<svg width="500" height="250" viewBox="0 0 500 250" fill="none" xmlns="http://www.w3.org/2000/svg">
<rect width="500" height="250" fill="white"/>
<path d="M179.91 147.979L189.27 126.979H194.07L203.46 147.979H198.36L190.68 129.439H192.6L184.89 147.979H179.91ZM184.59 143.479L185.88 139.789H196.68L198 143.479H184.59ZM212.092 148.219C210.572 148.219 209.202 147.879 207.982 147.199C206.762 146.499 205.792 145.529 205.072 144.289C204.372 143.049 204.022 141.589 204.022 139.909C204.022 138.209 204.372 136.739 205.072 135.499C205.792 134.259 206.762 133.299 207.982 132.619C209.202 131.939 210.572 131.599 212.092 131.599C213.452 131.599 214.642 131.899 215.662 132.499C216.682 133.099 217.472 134.009 218.032 135.229C218.592 136.449 218.872 138.009 218.872 139.909C218.872 141.789 218.602 143.349 218.062 144.589C217.522 145.809 216.742 146.719 215.722 147.319C214.722 147.919 213.512 148.219 212.092 148.219ZM212.902 144.379C213.662 144.379 214.352 144.199 214.972 143.839C215.592 143.479 216.082 142.969 216.442 142.309C216.822 141.629 217.012 140.829 217.012 139.909C217.012 138.969 216.822 138.169 216.442 137.509C216.082 136.849 215.592 136.339 214.972 135.979C214.352 135.619 213.662 135.439 212.902 135.439C212.122 135.439 211.422 135.619 210.802 135.979C210.182 136.339 209.682 136.849 209.302 137.509C208.942 138.169 208.762 138.969 208.762 139.909C208.762 140.829 208.942 141.629 209.302 142.309C209.682 142.969 210.182 143.479 210.802 143.839C211.422 144.199 212.122 144.379 212.902 144.379ZM217.132 147.979V144.679L217.222 139.879L216.922 135.109V125.719H221.602V147.979H217.132ZM235.833 147.979V144.829L235.533 144.139V138.499C235.533 137.499 235.223 136.719 234.603 136.159C234.003 135.599 233.073 135.319 231.813 135.319C230.953 135.319 230.103 135.459 229.263 135.739C228.443 135.999 227.743 136.359 227.163 136.819L225.483 133.549C226.363 132.929 227.423 132.449 228.663 132.109C229.903 131.769 231.163 131.599 232.443 131.599C234.903 131.599 236.813 132.179 238.173 133.339C239.533 134.499 240.213 136.309 240.213 138.769V147.979H235.833ZM230.913 148.219C229.653 148.219 228.573 148.009 227.673 147.589C226.773 147.149 226.083 146.559 225.603 145.819C225.123 145.079 224.883 144.249 224.883 143.329C224.883 142.369 225.113 141.529 225.573 140.809C226.053 140.089 226.803 139.529 227.823 139.129C228.843 138.709 230.173 138.499 231.813 138.499H236.103V141.229H232.323C231.223 141.229 230.463 141.409 230.043 141.769C229.643 142.129 229.443 142.579 229.443 143.119C229.443 143.719 229.673 144.199 230.133 144.559C230.613 144.899 231.263 145.069 232.083 145.069C232.863 145.069 233.563 144.889 234.183 144.529C234.803 144.149 235.253 143.599 235.533 142.879L236.253 145.039C235.913 146.079 235.293 146.869 234.393 147.409C233.493 147.949 232.333 148.219 230.913 148.219ZM253.989 148.219C252.629 148.219 251.439 147.919 250.419 147.319C249.399 146.719 248.599 145.809 248.019 144.589C247.459 143.349 247.179 141.789 247.179 139.909C247.179 138.009 247.449 136.449 247.989 135.229C248.529 134.009 249.309 133.099 250.329 132.499C251.349 131.899 252.569 131.599 253.989 131.599C255.509 131.599 256.869 131.949 258.069 132.649C259.289 133.329 260.249 134.289 260.949 135.529C261.669 136.769 262.029 138.229 262.029 139.909C262.029 141.609 261.669 143.079 260.949 144.319C260.249 145.559 259.289 146.519 258.069 147.199C256.869 147.879 255.509 148.219 253.989 148.219ZM244.449 153.799V131.839H248.919V135.139L248.829 139.939L249.129 144.709V153.799H244.449ZM253.179 144.379C253.959 144.379 254.649 144.199 255.249 143.839C255.869 143.479 256.359 142.969 256.719 142.309C257.099 141.629 257.289 140.829 257.289 139.909C257.289 138.969 257.099 138.169 256.719 137.509C256.359 136.849 255.869 136.339 255.249 135.979C254.649 135.619 253.959 135.439 253.179 135.439C252.399 135.439 251.699 135.619 251.079 135.979C250.459 136.339 249.969 136.849 249.609 137.509C249.249 138.169 249.069 138.969 249.069 139.909C249.069 140.829 249.249 141.629 249.609 142.309C249.969 142.969 250.459 143.479 251.079 143.839C251.699 144.199 252.399 144.379 253.179 144.379ZM271.762 148.219C269.862 148.219 268.382 147.739 267.322 146.779C266.262 145.799 265.732 144.349 265.732 142.429V128.269H270.412V142.369C270.412 143.049 270.592 143.579 270.952 143.959C271.312 144.319 271.802 144.499 272.422 144.499C273.162 144.499 273.792 144.299 274.312 143.899L275.572 147.199C275.092 147.539 274.512 147.799 273.832 147.979C273.172 148.139 272.482 148.219 271.762 148.219ZM263.242 135.799V132.199H274.432V135.799H263.242ZM278.199 147.979V131.839H282.879V147.979H278.199ZM280.539 129.589C279.679 129.589 278.979 129.339 278.439 128.839C277.899 128.339 277.629 127.719 277.629 126.979C277.629 126.239 277.899 125.619 278.439 125.119C278.979 124.619 279.679 124.369 280.539 124.369C281.399 124.369 282.099 124.609 282.639 125.089C283.179 125.549 283.449 126.149 283.449 126.889C283.449 127.669 283.179 128.319 282.639 128.839C282.119 129.339 281.419 129.589 280.539 129.589ZM291.603 147.979L284.822 131.839H289.653L295.293 145.729H292.893L298.743 131.839H303.243L296.433 147.979H291.603ZM312.723 148.219C310.883 148.219 309.263 147.859 307.863 147.139C306.483 146.419 305.413 145.439 304.653 144.199C303.893 142.939 303.513 141.509 303.513 139.909C303.513 138.289 303.883 136.859 304.623 135.619C305.383 134.359 306.413 133.379 307.713 132.679C309.013 131.959 310.483 131.599 312.123 131.599C313.703 131.599 315.123 131.939 316.383 132.619C317.663 133.279 318.673 134.239 319.413 135.499C320.153 136.739 320.523 138.229 320.523 139.969C320.523 140.149 320.513 140.359 320.493 140.599C320.473 140.819 320.453 141.029 320.433 141.229H307.323V138.499H317.973L316.173 139.309C316.173 138.469 316.003 137.739 315.663 137.119C315.323 136.499 314.853 136.019 314.253 135.679C313.653 135.319 312.953 135.139 312.153 135.139C311.353 135.139 310.643 135.319 310.023 135.679C309.423 136.019 308.953 136.509 308.613 137.149C308.273 137.769 308.103 138.509 308.103 139.369V140.089C308.103 140.969 308.293 141.749 308.673 142.429C309.073 143.089 309.623 143.599 310.323 143.959C311.043 144.299 311.883 144.469 312.843 144.469C313.703 144.469 314.453 144.339 315.093 144.079C315.753 143.819 316.353 143.429 316.893 142.909L319.383 145.609C318.643 146.449 317.713 147.099 316.593 147.559C315.473 147.999 314.183 148.219 312.723 148.219Z" fill="black"/>
<path d="M180.521 183.438V162.438H185.381V179.478H195.911V183.438H180.521ZM205.889 183.678C204.169 183.678 202.639 183.318 201.299 182.598C199.979 181.878 198.929 180.898 198.149 179.658C197.389 178.398 197.009 176.968 197.009 175.368C197.009 173.748 197.389 172.318 198.149 171.078C198.929 169.818 199.979 168.838 201.299 168.138C202.639 167.418 204.169 167.058 205.889 167.058C207.589 167.058 209.109 167.418 210.449 168.138C211.789 168.838 212.839 169.808 213.599 171.048C214.359 172.288 214.739 173.728 214.739 175.368C214.739 176.968 214.359 178.398 213.599 179.658C212.839 180.898 211.789 181.878 210.449 182.598C209.109 183.318 207.589 183.678 205.889 183.678ZM205.889 179.838C206.669 179.838 207.369 179.658 207.989 179.298C208.609 178.938 209.099 178.428 209.459 177.768C209.819 177.088 209.999 176.288 209.999 175.368C209.999 174.428 209.819 173.628 209.459 172.968C209.099 172.308 208.609 171.798 207.989 171.438C207.369 171.078 206.669 170.898 205.889 170.898C205.109 170.898 204.409 171.078 203.789 171.438C203.169 171.798 202.669 172.308 202.289 172.968C201.929 173.628 201.749 174.428 201.749 175.368C201.749 176.288 201.929 177.088 202.289 177.768C202.669 178.428 203.169 178.938 203.789 179.298C204.409 179.658 205.109 179.838 205.889 179.838ZM225.457 189.498C223.937 189.498 222.467 189.308 221.047 188.928C219.647 188.568 218.477 188.018 217.537 187.278L219.397 183.918C220.077 184.478 220.937 184.918 221.977 185.238C223.037 185.578 224.077 185.748 225.097 185.748C226.757 185.748 227.957 185.378 228.697 184.638C229.457 183.898 229.837 182.798 229.837 181.338V178.908L230.137 174.858L230.077 170.778V167.298H234.517V180.738C234.517 183.738 233.737 185.948 232.177 187.368C230.617 188.788 228.377 189.498 225.457 189.498ZM224.737 182.658C223.237 182.658 221.877 182.338 220.657 181.698C219.457 181.038 218.487 180.128 217.747 178.968C217.027 177.788 216.667 176.418 216.667 174.858C216.667 173.278 217.027 171.908 217.747 170.748C218.487 169.568 219.457 168.658 220.657 168.018C221.877 167.378 223.237 167.058 224.737 167.058C226.097 167.058 227.297 167.338 228.337 167.898C229.377 168.438 230.187 169.288 230.767 170.448C231.347 171.588 231.637 173.058 231.637 174.858C231.637 176.638 231.347 178.108 230.767 179.268C230.187 180.408 229.377 181.258 228.337 181.818C227.297 182.378 226.097 182.658 224.737 182.658ZM225.667 178.818C226.487 178.818 227.217 178.658 227.857 178.338C228.497 177.998 228.997 177.528 229.357 176.928C229.717 176.328 229.897 175.638 229.897 174.858C229.897 174.058 229.717 173.368 229.357 172.788C228.997 172.188 228.497 171.728 227.857 171.408C227.217 171.068 226.487 170.898 225.667 170.898C224.847 170.898 224.117 171.068 223.477 171.408C222.837 171.728 222.327 172.188 221.947 172.788C221.587 173.368 221.407 174.058 221.407 174.858C221.407 175.638 221.587 176.328 221.947 176.928C222.327 177.528 222.837 177.998 223.477 178.338C224.117 178.658 224.847 178.818 225.667 178.818ZM238.873 183.438V167.298H243.553V183.438H238.873ZM241.213 165.048C240.353 165.048 239.653 164.798 239.113 164.298C238.573 163.798 238.303 163.178 238.303 162.438C238.303 161.698 238.573 161.078 239.113 160.578C239.653 160.078 240.353 159.828 241.213 159.828C242.073 159.828 242.773 160.068 243.313 160.548C243.853 161.008 244.123 161.608 244.123 162.348C244.123 163.128 243.853 163.778 243.313 164.298C242.793 164.798 242.093 165.048 241.213 165.048ZM255.696 183.678C253.956 183.678 252.406 183.328 251.046 182.628C249.686 181.908 248.616 180.918 247.836 179.658C247.076 178.398 246.696 176.968 246.696 175.368C246.696 173.748 247.076 172.318 247.836 171.078C248.616 169.818 249.686 168.838 251.046 168.138C252.406 167.418 253.956 167.058 255.696 167.058C257.396 167.058 258.876 167.418 260.136 168.138C261.396 168.838 262.326 169.848 262.926 171.168L259.296 173.118C258.876 172.358 258.346 171.798 257.706 171.438C257.086 171.078 256.406 170.898 255.666 170.898C254.866 170.898 254.146 171.078 253.506 171.438C252.866 171.798 252.356 172.308 251.976 172.968C251.616 173.628 251.436 174.428 251.436 175.368C251.436 176.308 251.616 177.108 251.976 177.768C252.356 178.428 252.866 178.938 253.506 179.298C254.146 179.658 254.866 179.838 255.666 179.838C256.406 179.838 257.086 179.668 257.706 179.328C258.346 178.968 258.876 178.398 259.296 177.618L262.926 179.598C262.326 180.898 261.396 181.908 260.136 182.628C258.876 183.328 257.396 183.678 255.696 183.678Z" fill="black"/>
<path d="M80.0014 50.645L81.8046 52.3632L80.0014 50.645ZM161.987 39.4439C163.137 38.6463 163.345 37.1673 162.452 36.1405L147.89 19.4068C146.996 18.38 145.339 18.1941 144.189 18.9916C143.038 19.7892 142.83 21.2681 143.723 22.295L156.667 37.1693L140.002 48.722C138.851 49.5196 138.643 50.9985 139.537 52.0254C140.43 53.0523 142.087 53.2382 143.238 52.4406L161.987 39.4439ZM61.884 125.484C64.5076 125.24 64.5076 125.241 64.5076 125.241C64.5076 125.241 64.5076 125.24 64.5075 125.24C64.5074 125.239 64.5072 125.237 64.5069 125.234C64.5063 125.229 64.5053 125.221 64.504 125.209C64.5014 125.185 64.4973 125.149 64.492 125.1C64.4814 125.002 64.4657 124.854 64.4461 124.658C64.4068 124.267 64.3519 123.685 64.2903 122.934C64.167 121.433 64.0171 119.259 63.9126 116.583C63.7033 111.226 63.6767 103.883 64.4027 95.9206C65.1296 87.9488 66.6053 79.4231 69.3688 71.6762C72.1391 63.9106 76.1439 57.0956 81.8046 52.3632L78.1982 48.9268C71.6336 54.4148 67.2611 62.0649 64.342 70.2478C61.4162 78.4495 59.8908 87.356 59.1446 95.5387C58.3976 103.731 58.4262 111.265 58.6403 116.747C58.7475 119.49 58.9014 121.725 59.0289 123.278C59.0927 124.055 59.15 124.662 59.1916 125.077C59.2124 125.285 59.2293 125.445 59.2411 125.554C59.247 125.609 59.2517 125.651 59.255 125.679C59.2566 125.694 59.2579 125.705 59.2588 125.713C59.2592 125.717 59.2596 125.72 59.2599 125.723C59.26 125.724 59.2601 125.725 59.2602 125.725C59.2603 125.726 59.2604 125.727 61.884 125.484ZM81.8046 52.3632C87.1983 47.8541 94.6839 44.7429 103.087 42.6613C111.468 40.5851 120.583 39.5769 129.059 39.1664C137.525 38.7564 145.286 38.9457 150.932 39.2383C153.754 39.3846 156.041 39.5563 157.619 39.6909C158.408 39.7582 159.019 39.8163 159.43 39.8571C159.635 39.8776 159.791 39.8937 159.893 39.9046C159.944 39.91 159.982 39.9141 160.007 39.9168C160.019 39.9181 160.028 39.9191 160.034 39.9197C160.036 39.92 160.038 39.9202 160.039 39.9204C160.04 39.9204 160.04 39.9204 160.04 39.9204C160.04 39.9204 160.04 39.9204 160.369 37.5846C160.698 35.2487 160.697 35.2486 160.696 35.2485C160.695 35.2484 160.694 35.2483 160.693 35.2482C160.69 35.2479 160.687 35.2475 160.683 35.2471C160.674 35.2461 160.663 35.2448 160.647 35.2432C160.617 35.2398 160.573 35.2351 160.515 35.229C160.4 35.2168 160.232 35.1994 160.014 35.1777C159.577 35.1342 158.939 35.0737 158.121 35.0039C156.486 34.8643 154.133 34.6878 151.238 34.5378C145.454 34.238 137.488 34.0428 128.773 34.4649C120.068 34.8865 110.546 35.927 101.676 38.1244C92.827 40.3164 84.446 43.7038 78.1982 48.9268L81.8046 52.3632Z" fill="#AEF2A3"/>
<path d="M80.3608 53.0415L82.164 54.7597L80.3608 53.0415ZM162.346 41.8403C163.496 41.0428 163.705 39.5638 162.811 38.537L148.249 21.8033C147.356 20.7764 145.699 20.5905 144.548 21.3881C143.398 22.1856 143.189 23.6646 144.083 24.6915L157.027 39.5658L140.361 51.1185C139.211 51.9161 139.002 53.395 139.896 54.4219C140.79 55.4487 142.447 55.6346 143.597 54.8371L162.346 41.8403ZM62.2434 127.88C64.867 127.637 64.867 127.637 64.867 127.637C64.867 127.637 64.867 127.637 64.8669 127.636C64.8668 127.635 64.8666 127.634 64.8663 127.631C64.8657 127.626 64.8647 127.617 64.8634 127.605C64.8608 127.582 64.8567 127.546 64.8514 127.497C64.8408 127.399 64.8251 127.25 64.8055 127.055C64.7662 126.663 64.7113 126.081 64.6497 125.331C64.5264 123.83 64.3765 121.655 64.272 118.979C64.0627 113.623 64.0361 106.279 64.7621 98.3171C65.489 90.3452 66.9647 81.8196 69.7282 74.0727C72.4984 66.3071 76.5033 59.4921 82.164 54.7597L78.5576 51.3233C71.993 56.8113 67.6204 64.4614 64.7014 72.6443C61.7756 80.846 60.2501 89.7525 59.504 97.9352C58.757 106.128 58.7855 113.661 58.9997 119.143C59.1069 121.886 59.2607 124.121 59.3883 125.675C59.4521 126.452 59.5094 127.059 59.551 127.474C59.5718 127.682 59.5886 127.841 59.6005 127.95C59.6064 128.005 59.6111 128.047 59.6143 128.076C59.616 128.09 59.6172 128.102 59.6181 128.11C59.6186 128.114 59.619 128.117 59.6192 128.119C59.6194 128.12 59.6195 128.121 59.6196 128.122C59.6197 128.123 59.6198 128.124 62.2434 127.88ZM82.164 54.7597C87.5577 50.2506 95.0433 47.1393 103.446 45.0578C111.827 42.9815 120.942 41.9734 129.418 41.5629C137.885 41.1529 145.645 41.3421 151.292 41.6348C154.113 41.781 156.401 41.9528 157.979 42.0874C158.767 42.1547 159.378 42.2127 159.789 42.2536C159.994 42.274 160.15 42.2902 160.252 42.3011C160.304 42.3065 160.342 42.3106 160.366 42.3133C160.379 42.3146 160.388 42.3156 160.393 42.3162C160.396 42.3165 160.398 42.3167 160.399 42.3168C160.399 42.3169 160.399 42.3169 160.399 42.3169C160.399 42.3169 160.399 42.3169 160.728 39.981C161.057 37.6452 161.056 37.6451 161.055 37.645C161.055 37.6449 161.053 37.6448 161.052 37.6447C161.05 37.6444 161.046 37.644 161.042 37.6436C161.034 37.6426 161.022 37.6413 161.007 37.6397C160.976 37.6363 160.932 37.6316 160.875 37.6255C160.76 37.6133 160.592 37.5959 160.373 37.5741C159.937 37.5307 159.298 37.4701 158.481 37.4004C156.846 37.2608 154.492 37.0843 151.598 36.9343C145.814 36.6345 137.848 36.4393 129.133 36.8614C120.427 37.283 110.906 38.3234 102.035 40.5208C93.1864 42.7129 84.8053 46.1003 78.5576 51.3233L82.164 54.7597Z" fill="#2BB514"/>
<path d="M429.667 49.088L431.767 47.6946L429.667 49.088ZM434.204 115.043C435.06 116.108 436.708 116.365 437.885 115.616L457.062 103.417C458.239 102.669 458.499 101.199 457.643 100.133C456.787 99.0681 455.139 98.8114 453.962 99.56L436.916 110.403L424.516 94.9732C423.66 93.908 422.012 93.6513 420.835 94.3999C419.659 95.1484 419.398 96.6188 420.254 97.684L434.204 115.043ZM354.088 28.6914C354.102 31.0486 354.102 31.0486 354.102 31.0486C354.102 31.0486 354.103 31.0486 354.103 31.0486C354.104 31.0486 354.106 31.0486 354.109 31.0487C354.115 31.0487 354.125 31.0488 354.137 31.049C354.163 31.0493 354.203 31.0498 354.256 31.0506C354.363 31.0523 354.524 31.055 354.737 31.0594C355.161 31.0683 355.791 31.0838 356.601 31.1107C358.221 31.1644 360.56 31.2631 363.422 31.443C369.151 31.8031 376.949 32.487 385.245 33.7802C393.554 35.0754 402.282 36.9696 409.906 39.7242C417.575 42.4952 423.847 46.0377 427.568 50.4815L431.767 47.6946C427.191 42.2294 419.868 38.2679 411.81 35.3565C403.708 32.4289 394.578 30.4625 386.067 29.1358C377.542 27.807 369.556 27.1076 363.706 26.7399C360.779 26.5559 358.381 26.4546 356.71 26.3992C355.875 26.3715 355.221 26.3553 354.773 26.346C354.549 26.3413 354.377 26.3384 354.26 26.3366C354.201 26.3357 354.156 26.3351 354.125 26.3347C354.109 26.3345 354.097 26.3344 354.089 26.3343C354.085 26.3342 354.081 26.3342 354.079 26.3342C354.078 26.3342 354.077 26.3342 354.076 26.3341C354.075 26.3341 354.074 26.3341 354.088 28.6914ZM427.568 50.4815C430.929 54.4968 433.118 60.3292 434.415 67.0716C435.702 73.7699 436.067 81.1306 435.968 88.0097C435.869 94.8787 435.309 101.207 434.773 105.821C434.505 108.126 434.243 109.999 434.049 111.293C433.952 111.939 433.872 112.44 433.817 112.778C433.789 112.947 433.768 113.075 433.753 113.16C433.746 113.202 433.74 113.234 433.737 113.254C433.735 113.264 433.734 113.272 433.733 113.276C433.733 113.279 433.732 113.28 433.732 113.281C433.732 113.282 433.732 113.282 433.732 113.282C433.732 113.282 433.732 113.282 436.335 113.687C438.937 114.093 438.938 114.092 438.938 114.091C438.938 114.091 438.938 114.09 438.938 114.089C438.938 114.087 438.939 114.084 438.939 114.081C438.941 114.074 438.942 114.065 438.944 114.053C438.949 114.028 438.955 113.992 438.963 113.946C438.979 113.852 439.002 113.715 439.031 113.538C439.089 113.182 439.173 112.661 439.273 111.994C439.473 110.661 439.74 108.741 440.014 106.384C440.562 101.674 441.136 95.1977 441.238 88.1472C441.339 81.1067 440.97 73.4328 439.608 66.346C438.254 59.3034 435.874 52.6003 431.767 47.6946L427.568 50.4815Z" fill="#AEF2A3"/>
<path d="M431.519 50.3322L433.618 48.9387L431.519 50.3322ZM436.055 116.287C436.911 117.352 438.559 117.609 439.736 116.86L458.914 104.662C460.091 103.913 460.351 102.443 459.495 101.377C458.639 100.312 456.991 100.056 455.814 100.804L438.767 111.647L426.368 96.2173C425.512 95.1521 423.864 94.8954 422.687 95.644C421.51 96.3926 421.25 97.8629 422.106 98.9281L436.055 116.287ZM355.94 29.9355C355.954 32.2927 355.954 32.2927 355.954 32.2927C355.954 32.2927 355.954 32.2927 355.955 32.2927C355.956 32.2927 355.958 32.2928 355.961 32.2928C355.967 32.2929 355.976 32.293 355.989 32.2931C356.015 32.2934 356.055 32.294 356.108 32.2948C356.215 32.2964 356.376 32.2991 356.588 32.3036C357.013 32.3124 357.642 32.328 358.452 32.3548C360.072 32.4085 362.412 32.5072 365.274 32.6871C371.003 33.0473 378.8 33.7312 387.096 35.0243C395.406 36.3196 404.134 38.2137 411.757 40.9684C419.426 43.7393 425.699 47.2818 429.419 51.7256L433.618 48.9387C429.043 43.4736 421.72 39.5121 413.662 36.6007C405.559 33.673 396.43 31.7066 387.918 30.3799C379.394 29.0511 371.407 28.3517 365.558 27.984C362.631 27.8 360.232 27.6987 358.562 27.6433C357.726 27.6156 357.072 27.5994 356.625 27.5901C356.401 27.5855 356.229 27.5825 356.111 27.5807C356.053 27.5798 356.007 27.5792 355.976 27.5789C355.961 27.5787 355.949 27.5785 355.94 27.5784C355.936 27.5784 355.933 27.5783 355.93 27.5783C355.929 27.5783 355.928 27.5783 355.927 27.5783C355.927 27.5783 355.926 27.5783 355.94 29.9355ZM429.419 51.7256C432.781 55.7409 434.97 61.5733 436.266 68.3157C437.554 75.014 437.919 82.3748 437.82 89.2538C437.721 96.1228 437.161 102.451 436.624 107.065C436.356 109.37 436.095 111.243 435.901 112.537C435.804 113.183 435.724 113.685 435.668 114.022C435.641 114.191 435.619 114.319 435.605 114.404C435.597 114.446 435.592 114.478 435.588 114.498C435.587 114.508 435.585 114.516 435.585 114.521C435.584 114.523 435.584 114.525 435.584 114.525C435.584 114.526 435.584 114.526 435.584 114.526C435.584 114.526 435.584 114.526 438.186 114.931C440.789 115.337 440.789 115.336 440.789 115.336C440.789 115.335 440.789 115.334 440.79 115.333C440.79 115.331 440.79 115.329 440.791 115.325C440.792 115.319 440.794 115.309 440.796 115.297C440.8 115.272 440.806 115.236 440.814 115.19C440.83 115.096 440.853 114.96 440.883 114.782C440.941 114.426 441.024 113.905 441.124 113.238C441.324 111.905 441.592 109.985 441.866 107.628C442.414 102.918 442.988 96.4419 443.089 89.3914C443.19 82.3508 442.822 74.6769 441.459 67.5902C440.105 60.5475 437.726 53.8444 433.618 48.9387L429.419 51.7256Z" fill="#009006"/>
<path d="M116.703 78.0099L118.504 79.7406L118.504 79.7406L116.703 78.0099ZM98.9957 123.776C99.9983 124.726 101.668 124.774 102.724 123.885L119.94 109.398C120.997 108.509 121.04 107.019 120.038 106.07C119.035 105.121 117.366 105.072 116.309 105.961L101.006 118.838L86.482 105.09C85.4793 104.14 83.8101 104.092 82.7536 104.981C81.6971 105.87 81.6535 107.36 82.6562 108.309L98.9957 123.776ZM166.41 67.0225C166.49 64.6693 166.49 64.6693 166.489 64.6693C166.488 64.6693 166.487 64.6693 166.487 64.6692C166.485 64.6692 166.483 64.6691 166.48 64.669C166.474 64.6688 166.466 64.6686 166.456 64.6683C166.437 64.6677 166.409 64.6669 166.372 64.6659C166.3 64.6639 166.194 64.6612 166.058 64.6584C165.786 64.6526 165.389 64.6459 164.882 64.6418C163.868 64.6337 162.41 64.636 160.619 64.6774C157.039 64.7602 152.106 64.9993 146.696 65.6267C136.053 66.8611 122.881 69.667 114.902 76.2791L118.504 79.7406C125.18 74.208 136.862 71.5202 147.409 70.297C152.594 69.6957 157.339 69.4651 160.79 69.3853C162.513 69.3455 163.909 69.3434 164.869 69.3511C165.349 69.3549 165.72 69.3612 165.968 69.3665C166.092 69.3691 166.185 69.3715 166.246 69.3731C166.277 69.374 166.299 69.3746 166.313 69.3751C166.32 69.3753 166.325 69.3754 166.328 69.3755C166.329 69.3756 166.33 69.3756 166.331 69.3756C166.331 69.3756 166.331 69.3756 166.331 69.3756C166.33 69.3756 166.33 69.3756 166.41 67.0225ZM114.902 76.2791C106.809 82.9862 102.744 94.6974 100.644 104.238C99.5769 109.089 98.9851 113.538 98.6597 116.773C98.4968 118.393 98.4003 119.712 98.3443 120.631C98.3163 121.091 98.2984 121.45 98.2875 121.698C98.282 121.821 98.2782 121.917 98.2758 121.983C98.2746 122.016 98.2738 122.041 98.2732 122.059C98.2729 122.068 98.2727 122.075 98.2725 122.08C98.2724 122.083 98.2723 122.085 98.2723 122.086C98.2723 122.087 98.2723 122.088 98.2722 122.088C98.2722 122.089 98.2722 122.09 100.909 122.167C103.545 122.244 103.545 122.244 103.545 122.244C103.545 122.244 103.545 122.244 103.545 122.244C103.545 122.244 103.545 122.243 103.545 122.242C103.545 122.239 103.545 122.235 103.545 122.228C103.546 122.215 103.547 122.195 103.548 122.167C103.55 122.112 103.553 122.027 103.558 121.915C103.568 121.689 103.585 121.353 103.611 120.918C103.664 120.048 103.756 118.783 103.913 117.225C104.227 114.105 104.797 109.825 105.82 105.176C107.902 95.7177 111.735 85.3505 118.504 79.7406L114.902 76.2791Z" fill="#BE0000"/>
<path d="M119.094 78.17L120.895 79.9008L120.895 79.9008L119.094 78.17ZM101.386 123.937C102.389 124.886 104.058 124.935 105.115 124.046L122.331 109.558C123.387 108.669 123.431 107.179 122.428 106.23C121.426 105.281 119.756 105.232 118.7 106.121L103.397 118.999L88.8726 105.25C87.87 104.3 86.2007 104.252 85.1442 105.141C84.0878 106.03 84.0441 107.52 85.0468 108.469L101.386 123.937ZM168.801 67.1826C168.881 64.8295 168.88 64.8295 168.879 64.8295C168.879 64.8294 168.878 64.8294 168.877 64.8294C168.875 64.8293 168.873 64.8292 168.87 64.8292C168.865 64.829 168.857 64.8287 168.847 64.8284C168.827 64.8278 168.799 64.827 168.763 64.826C168.69 64.8241 168.585 64.8214 168.449 64.8185C168.176 64.8127 167.78 64.806 167.272 64.802C166.258 64.7938 164.801 64.7962 163.009 64.8376C159.43 64.9204 154.497 65.1594 149.086 65.7869C138.444 67.0212 125.272 69.8272 117.293 76.4392L120.895 79.9008C127.571 74.3681 139.253 71.6804 149.8 70.4572C154.984 69.8559 159.73 69.6253 163.181 69.5455C164.904 69.5056 166.3 69.5035 167.26 69.5112C167.74 69.5151 168.11 69.5214 168.358 69.5266C168.482 69.5293 168.576 69.5316 168.637 69.5333C168.667 69.5341 168.69 69.5348 168.704 69.5352C168.711 69.5354 168.716 69.5356 168.718 69.5357C168.72 69.5357 168.721 69.5357 168.721 69.5358C168.721 69.5358 168.721 69.5358 168.721 69.5358C168.721 69.5357 168.721 69.5357 168.801 67.1826ZM117.293 76.4392C109.2 83.1463 105.135 94.8576 103.035 104.399C101.968 109.249 101.376 113.698 101.05 116.933C100.887 118.553 100.791 119.872 100.735 120.791C100.707 121.251 100.689 121.611 100.678 121.858C100.673 121.981 100.669 122.077 100.666 122.143C100.665 122.176 100.664 122.201 100.664 122.219C100.663 122.228 100.663 122.235 100.663 122.24C100.663 122.243 100.663 122.245 100.663 122.247C100.663 122.247 100.663 122.248 100.663 122.249C100.663 122.249 100.663 122.25 103.299 122.327C105.936 122.404 105.936 122.404 105.936 122.404C105.936 122.404 105.936 122.405 105.936 122.404C105.936 122.404 105.936 122.403 105.936 122.402C105.936 122.399 105.936 122.395 105.936 122.388C105.937 122.376 105.937 122.355 105.938 122.328C105.94 122.272 105.944 122.187 105.949 122.075C105.958 121.85 105.975 121.513 106.002 121.078C106.055 120.208 106.147 118.944 106.304 117.385C106.618 114.266 107.188 109.985 108.211 105.336C110.293 95.8778 114.125 85.5106 120.895 79.9008L117.293 76.4392Z" fill="#F0A1A1"/>
<path d="M386.838 67.851L388.265 65.8511L388.265 65.8511L386.838 67.851ZM336.011 65.8723C335.282 67.0087 335.713 68.4445 336.973 69.0793L357.505 79.4237C358.765 80.0585 360.377 79.6518 361.106 78.5155C361.835 77.3791 361.404 75.9433 360.144 75.3085L341.893 66.1135L352.448 49.6529C353.177 48.5166 352.746 47.0808 351.486 46.446C350.226 45.8112 348.614 46.2178 347.885 47.3542L336.011 65.8723ZM405.188 119.264C407.821 119.314 407.821 119.313 407.821 119.312C407.821 119.312 407.821 119.311 407.821 119.31C407.821 119.308 407.822 119.305 407.822 119.302C407.822 119.296 407.822 119.287 407.823 119.276C407.823 119.254 407.825 119.222 407.826 119.181C407.828 119.099 407.832 118.979 407.836 118.824C407.843 118.515 407.851 118.065 407.853 117.49C407.859 116.342 407.844 114.697 407.762 112.691C407.599 108.683 407.171 103.207 406.102 97.3593C405.036 91.5234 403.319 85.2362 400.54 79.6432C397.77 74.0657 393.852 68.9959 388.265 65.8511L385.41 69.8508C389.808 72.3268 393.177 76.494 395.718 81.6103C398.252 86.7111 399.875 92.5745 400.9 98.1866C401.923 103.786 402.337 109.056 402.495 112.932C402.574 114.867 402.588 116.448 402.583 117.541C402.58 118.087 402.573 118.511 402.566 118.795C402.563 118.938 402.559 119.045 402.557 119.115C402.556 119.151 402.555 119.177 402.555 119.193C402.554 119.201 402.554 119.207 402.554 119.211C402.554 119.212 402.554 119.214 402.554 119.214C402.554 119.214 402.554 119.214 402.554 119.214C402.554 119.214 402.554 119.214 405.188 119.264ZM388.265 65.8511C383.796 63.3351 378.322 62.0901 372.802 61.5686C367.26 61.0451 361.5 61.2352 356.323 61.7059C351.137 62.1775 346.475 62.9366 343.111 63.5767C341.426 63.8972 340.062 64.1889 339.115 64.4016C338.641 64.508 338.271 64.5947 338.016 64.6555C337.889 64.6859 337.791 64.7099 337.723 64.7265C337.689 64.7349 337.663 64.7414 337.644 64.746C337.635 64.7483 337.628 64.7502 337.622 64.7515C337.619 64.7522 337.617 64.7527 337.616 64.7532C337.615 64.7534 337.614 64.7536 337.613 64.7537C337.613 64.7539 337.612 64.7541 338.292 67.0217C338.973 69.2894 338.972 69.2895 338.972 69.2895C338.972 69.2895 338.972 69.2896 338.972 69.2895C338.972 69.2895 338.973 69.2893 338.974 69.2889C338.977 69.2883 338.981 69.2872 338.988 69.2856C339.001 69.2824 339.021 69.2773 339.049 69.2704C339.105 69.2566 339.191 69.2356 339.306 69.2082C339.536 69.1533 339.88 69.0726 340.326 68.9725C341.219 68.7721 342.52 68.4937 344.134 68.1866C347.366 67.5715 351.833 66.8451 356.779 66.3954C361.734 65.9448 367.107 65.7779 372.171 66.2563C377.257 66.7367 381.86 67.8525 385.41 69.8508L388.265 65.8511Z" fill="#BE0000"/>
<path d="M388.232 65.8168L389.66 63.8169L389.66 63.8169L388.232 65.8168ZM337.405 63.8382C336.677 64.9745 337.107 66.4103 338.367 67.0451L358.9 77.3895C360.16 78.0243 361.772 77.6177 362.5 76.4813C363.229 75.3449 362.798 73.9091 361.538 73.2743L343.288 64.0793L353.842 47.6188C354.571 46.4824 354.14 45.0466 352.88 44.4118C351.62 43.777 350.008 44.1836 349.28 45.32L337.405 63.8382ZM406.582 117.229C409.216 117.279 409.216 117.279 409.216 117.278C409.216 117.277 409.216 117.276 409.216 117.275C409.216 117.273 409.216 117.271 409.216 117.268C409.216 117.262 409.217 117.253 409.217 117.242C409.218 117.219 409.219 117.188 409.22 117.147C409.223 117.064 409.227 116.945 409.23 116.79C409.237 116.481 409.245 116.03 409.248 115.456C409.253 114.308 409.238 112.663 409.157 110.656C408.994 106.649 408.565 101.173 407.497 95.3251C406.431 89.4892 404.714 83.202 401.935 77.609C399.164 72.0315 395.246 66.9617 389.66 63.8169L386.805 67.8167C391.203 70.2926 394.571 74.4598 397.113 79.5762C399.647 84.6769 401.269 90.5403 402.295 96.1524C403.318 101.752 403.732 107.022 403.889 110.898C403.968 112.833 403.982 114.414 403.977 115.507C403.975 116.053 403.967 116.477 403.961 116.761C403.957 116.903 403.954 117.011 403.952 117.081C403.951 117.116 403.95 117.142 403.949 117.159C403.949 117.167 403.949 117.173 403.948 117.177C403.948 117.178 403.948 117.179 403.948 117.18C403.948 117.18 403.948 117.18 403.948 117.18C403.948 117.18 403.948 117.18 406.582 117.229ZM389.66 63.8169C385.191 61.3009 379.717 60.056 374.196 59.5345C368.655 59.011 362.894 59.201 357.717 59.6718C352.532 60.1433 347.869 60.9024 344.505 61.5426C342.821 61.863 341.457 62.1547 340.509 62.3674C340.035 62.4738 339.665 62.5605 339.411 62.6214C339.284 62.6518 339.185 62.6757 339.117 62.6924C339.084 62.7007 339.057 62.7072 339.039 62.7119C339.029 62.7142 339.022 62.716 339.017 62.7173C339.014 62.718 339.012 62.7186 339.01 62.719C339.009 62.7192 339.008 62.7194 339.008 62.7195C339.007 62.7197 339.007 62.7199 339.687 64.9875C340.367 67.2552 340.367 67.2553 340.366 67.2554C340.366 67.2553 340.366 67.2554 340.366 67.2553C340.367 67.2553 340.368 67.2551 340.369 67.2548C340.371 67.2541 340.376 67.253 340.382 67.2514C340.395 67.2482 340.416 67.2431 340.444 67.2362C340.5 67.2224 340.586 67.2014 340.701 67.174C340.93 67.1191 341.274 67.0385 341.721 66.9383C342.613 66.7379 343.914 66.4595 345.528 66.1524C348.761 65.5373 353.227 64.8109 358.173 64.3612C363.128 63.9106 368.501 63.7437 373.566 64.2221C378.651 64.7026 383.255 65.8184 386.805 67.8167L389.66 63.8169Z" fill="#F0A1A1"/>
<path d="M190.699 47.8583C210.359 47.8583 208.947 47.8689 228.607 47.8583C255.286 47.8439 281.923 47.1173 308.59 46.6055" stroke="#FFE696" stroke-width="20" stroke-linecap="square"/>
<path d="M38.6914 163.854C51.2363 163.854 63.7815 163.831 76.3264 163.854C93.3768 163.886 110.36 165.503 127.373 165.503" stroke="#F5B9FF" stroke-width="20" stroke-linecap="square"/>
<path d="M194.962 54.1211V36.6211H198.312L205.762 48.9711H203.987L211.312 36.6211H214.637L214.687 54.1211H210.887L210.862 42.4461H211.562L205.712 52.2711H203.887L197.912 42.4461H198.762V54.1211H194.962ZM225.239 54.3211C223.705 54.3211 222.355 54.0211 221.189 53.4211C220.039 52.8211 219.147 52.0044 218.514 50.9711C217.88 49.9211 217.564 48.7294 217.564 47.3961C217.564 46.0461 217.872 44.8544 218.489 43.8211C219.122 42.7711 219.98 41.9544 221.064 41.3711C222.147 40.7711 223.372 40.4711 224.739 40.4711C226.055 40.4711 227.239 40.7544 228.289 41.3211C229.355 41.8711 230.197 42.6711 230.814 43.7211C231.43 44.7544 231.739 45.9961 231.739 47.4461C231.739 47.5961 231.73 47.7711 231.714 47.9711C231.697 48.1544 231.68 48.3294 231.664 48.4961H220.739V46.2211H229.614L228.114 46.8961C228.114 46.1961 227.972 45.5878 227.689 45.0711C227.405 44.5544 227.014 44.1544 226.514 43.8711C226.014 43.5711 225.43 43.4211 224.764 43.4211C224.097 43.4211 223.505 43.5711 222.989 43.8711C222.489 44.1544 222.097 44.5628 221.814 45.0961C221.53 45.6128 221.389 46.2294 221.389 46.9461V47.5461C221.389 48.2794 221.547 48.9294 221.864 49.4961C222.197 50.0461 222.655 50.4711 223.239 50.7711C223.839 51.0544 224.539 51.1961 225.339 51.1961C226.055 51.1961 226.68 51.0878 227.214 50.8711C227.764 50.6544 228.264 50.3294 228.714 49.8961L230.789 52.1461C230.172 52.8461 229.397 53.3878 228.464 53.7711C227.53 54.1378 226.455 54.3211 225.239 54.3211ZM240.11 54.3211C238.843 54.3211 237.702 54.0378 236.685 53.4711C235.668 52.8878 234.86 52.0794 234.26 51.0461C233.677 50.0128 233.385 48.7961 233.385 47.3961C233.385 45.9794 233.677 44.7544 234.26 43.7211C234.86 42.6878 235.668 41.8878 236.685 41.3211C237.702 40.7544 238.843 40.4711 240.11 40.4711C241.243 40.4711 242.235 40.7211 243.085 41.2211C243.935 41.7211 244.593 42.4794 245.06 43.4961C245.527 44.5128 245.76 45.8128 245.76 47.3961C245.76 48.9628 245.535 50.2628 245.085 51.2961C244.635 52.3128 243.985 53.0711 243.135 53.5711C242.302 54.0711 241.293 54.3211 240.11 54.3211ZM240.785 51.1211C241.418 51.1211 241.993 50.9711 242.51 50.6711C243.027 50.3711 243.435 49.9461 243.735 49.3961C244.052 48.8294 244.21 48.1628 244.21 47.3961C244.21 46.6128 244.052 45.9461 243.735 45.3961C243.435 44.8461 243.027 44.4211 242.51 44.1211C241.993 43.8211 241.418 43.6711 240.785 43.6711C240.135 43.6711 239.552 43.8211 239.035 44.1211C238.518 44.4211 238.102 44.8461 237.785 45.3961C237.485 45.9461 237.335 46.6128 237.335 47.3961C237.335 48.1628 237.485 48.8294 237.785 49.3961C238.102 49.9461 238.518 50.3711 239.035 50.6711C239.552 50.9711 240.135 51.1211 240.785 51.1211ZM244.31 54.1211V51.3711L244.385 47.3711L244.135 43.3961V35.5711H248.035V54.1211H244.31ZM251.645 54.1211V40.6711H255.545V54.1211H251.645ZM253.595 38.7961C252.878 38.7961 252.295 38.5878 251.845 38.1711C251.395 37.7544 251.17 37.2378 251.17 36.6211C251.17 36.0044 251.395 35.4878 251.845 35.0711C252.295 34.6544 252.878 34.4461 253.595 34.4461C254.311 34.4461 254.895 34.6461 255.345 35.0461C255.795 35.4294 256.02 35.9294 256.02 36.5461C256.02 37.1961 255.795 37.7378 255.345 38.1711C254.911 38.5878 254.328 38.7961 253.595 38.7961ZM264.839 54.3211C263.723 54.3211 262.723 54.1044 261.839 53.6711C260.973 53.2378 260.298 52.5794 259.814 51.6961C259.331 50.7961 259.089 49.6544 259.089 48.2711V40.6711H262.989V47.6961C262.989 48.8128 263.223 49.6378 263.689 50.1711C264.173 50.6878 264.848 50.9461 265.714 50.9461C266.314 50.9461 266.848 50.8211 267.314 50.5711C267.781 50.3044 268.148 49.9044 268.414 49.3711C268.681 48.8211 268.814 48.1378 268.814 47.3211V40.6711H272.714V54.1211H269.014V50.4211L269.689 51.4961C269.239 52.4294 268.573 53.1378 267.689 53.6211C266.823 54.0878 265.873 54.3211 264.839 54.3211ZM293.552 40.4711C294.619 40.4711 295.561 40.6878 296.377 41.1211C297.211 41.5378 297.861 42.1878 298.327 43.0711C298.811 43.9378 299.052 45.0544 299.052 46.4211V54.1211H295.152V47.0211C295.152 45.9378 294.927 45.1378 294.477 44.6211C294.027 44.1044 293.394 43.8461 292.577 43.8461C292.011 43.8461 291.502 43.9794 291.052 44.2461C290.602 44.4961 290.252 44.8794 290.002 45.3961C289.752 45.9128 289.627 46.5711 289.627 47.3711V54.1211H285.727V47.0211C285.727 45.9378 285.502 45.1378 285.052 44.6211C284.619 44.1044 283.994 43.8461 283.177 43.8461C282.611 43.8461 282.102 43.9794 281.652 44.2461C281.202 44.4961 280.852 44.8794 280.602 45.3961C280.352 45.9128 280.227 46.5711 280.227 47.3711V54.1211H276.327V40.6711H280.052V44.3461L279.352 43.2711C279.819 42.3544 280.477 41.6628 281.327 41.1961C282.194 40.7128 283.177 40.4711 284.277 40.4711C285.511 40.4711 286.586 40.7878 287.502 41.4211C288.436 42.0378 289.052 42.9878 289.352 44.2711L287.977 43.8961C288.427 42.8461 289.144 42.0128 290.127 41.3961C291.127 40.7794 292.269 40.4711 293.552 40.4711Z" fill="#FFAE00"/>
<path d="M53.2844 161.125H61.7094V164.275H53.2844V161.125ZM53.5844 168.325H63.1094V171.575H49.5594V154.075H62.7844V157.325H53.5844V168.325ZM74.2336 171.575V168.95L73.9836 168.375V163.675C73.9836 162.842 73.7253 162.192 73.2086 161.725C72.7086 161.259 71.9336 161.025 70.8836 161.025C70.1669 161.025 69.4586 161.142 68.7586 161.375C68.0753 161.592 67.4919 161.892 67.0086 162.275L65.6086 159.55C66.3419 159.034 67.2253 158.634 68.2586 158.35C69.2919 158.067 70.3419 157.925 71.4086 157.925C73.4586 157.925 75.0503 158.409 76.1836 159.375C77.3169 160.342 77.8836 161.85 77.8836 163.9V171.575H74.2336ZM70.1336 171.775C69.0836 171.775 68.1836 171.6 67.4336 171.25C66.6836 170.884 66.1086 170.392 65.7086 169.775C65.3086 169.159 65.1086 168.467 65.1086 167.7C65.1086 166.9 65.3003 166.2 65.6836 165.6C66.0836 165 66.7086 164.534 67.5586 164.2C68.4086 163.85 69.5169 163.675 70.8836 163.675H74.4586V165.95H71.3086C70.3919 165.95 69.7586 166.1 69.4086 166.4C69.0753 166.7 68.9086 167.075 68.9086 167.525C68.9086 168.025 69.1003 168.425 69.4836 168.725C69.8836 169.009 70.4253 169.15 71.1086 169.15C71.7586 169.15 72.3419 169 72.8586 168.7C73.3753 168.384 73.7503 167.925 73.9836 167.325L74.5836 169.125C74.3003 169.992 73.7836 170.65 73.0336 171.1C72.2836 171.55 71.3169 171.775 70.1336 171.775ZM85.9383 171.775C84.7883 171.775 83.6799 171.642 82.6133 171.375C81.5633 171.092 80.7299 170.742 80.1133 170.325L81.4133 167.525C82.0299 167.909 82.7549 168.225 83.5883 168.475C84.4383 168.709 85.2716 168.825 86.0883 168.825C86.9883 168.825 87.6216 168.717 87.9883 168.5C88.3716 168.284 88.5633 167.984 88.5633 167.6C88.5633 167.284 88.4133 167.05 88.1133 166.9C87.8299 166.734 87.4466 166.609 86.9633 166.525C86.4799 166.442 85.9466 166.359 85.3633 166.275C84.7966 166.192 84.2216 166.084 83.6383 165.95C83.0549 165.8 82.5216 165.584 82.0383 165.3C81.5549 165.017 81.1633 164.634 80.8633 164.15C80.5799 163.667 80.4383 163.042 80.4383 162.275C80.4383 161.425 80.6799 160.675 81.1633 160.025C81.6633 159.375 82.3799 158.867 83.3133 158.5C84.2466 158.117 85.3633 157.925 86.6633 157.925C87.5799 157.925 88.5133 158.025 89.4633 158.225C90.4133 158.425 91.2049 158.717 91.8383 159.1L90.5383 161.875C89.8883 161.492 89.2299 161.234 88.5633 161.1C87.9133 160.95 87.2799 160.875 86.6633 160.875C85.7966 160.875 85.1633 160.992 84.7633 161.225C84.3633 161.459 84.1633 161.759 84.1633 162.125C84.1633 162.459 84.3049 162.709 84.5883 162.875C84.8883 163.042 85.2799 163.175 85.7633 163.275C86.2466 163.375 86.7716 163.467 87.3383 163.55C87.9216 163.617 88.5049 163.725 89.0883 163.875C89.6716 164.025 90.1966 164.242 90.6633 164.525C91.1466 164.792 91.5383 165.167 91.8383 165.65C92.1383 166.117 92.2883 166.734 92.2883 167.5C92.2883 168.334 92.0383 169.075 91.5383 169.725C91.0383 170.359 90.3133 170.859 89.3633 171.225C88.4299 171.592 87.2883 171.775 85.9383 171.775ZM96.1504 176.625C95.4504 176.625 94.7587 176.517 94.0754 176.3C93.3921 176.084 92.8337 175.784 92.4004 175.4L93.8254 172.625C94.1254 172.892 94.4671 173.1 94.8504 173.25C95.2504 173.4 95.6421 173.475 96.0254 173.475C96.5754 173.475 97.0087 173.342 97.3254 173.075C97.6587 172.825 97.9587 172.4 98.2254 171.8L98.9254 170.15L99.2254 169.725L104.05 158.125H107.8L101.725 172.4C101.292 173.484 100.792 174.334 100.225 174.95C99.6754 175.567 99.0587 176 98.3754 176.25C97.7087 176.5 96.9671 176.625 96.1504 176.625ZM98.4504 172.1L92.4504 158.125H96.4754L101.125 169.375L98.4504 172.1Z" fill="#E01FFF"/>
<path d="M388.645 164.109C415.865 164.109 443.079 164.109 470.311 164.109" stroke="#A2A5FF" stroke-width="20" stroke-linecap="square"/>
<path d="M402.72 153.417H406.77V170.917H402.72V153.417ZM394.77 170.917H390.72V153.417H394.77V170.917ZM403.02 163.742H394.47V160.317H403.02V163.742ZM418.885 170.917V168.292L418.635 167.717V163.017C418.635 162.184 418.377 161.534 417.86 161.067C417.36 160.6 416.585 160.367 415.535 160.367C414.818 160.367 414.11 160.484 413.41 160.717C412.727 160.934 412.143 161.234 411.66 161.617L410.26 158.892C410.993 158.375 411.877 157.975 412.91 157.692C413.943 157.409 414.993 157.267 416.06 157.267C418.11 157.267 419.702 157.75 420.835 158.717C421.968 159.684 422.535 161.192 422.535 163.242V170.917H418.885ZM414.785 171.117C413.735 171.117 412.835 170.942 412.085 170.592C411.335 170.225 410.76 169.734 410.36 169.117C409.96 168.5 409.76 167.809 409.76 167.042C409.76 166.242 409.952 165.542 410.335 164.942C410.735 164.342 411.36 163.875 412.21 163.542C413.06 163.192 414.168 163.017 415.535 163.017H419.11V165.292H415.96C415.043 165.292 414.41 165.442 414.06 165.742C413.727 166.042 413.56 166.417 413.56 166.867C413.56 167.367 413.752 167.767 414.135 168.067C414.535 168.35 415.077 168.492 415.76 168.492C416.41 168.492 416.993 168.342 417.51 168.042C418.027 167.725 418.402 167.267 418.635 166.667L419.235 168.467C418.952 169.334 418.435 169.992 417.685 170.442C416.935 170.892 415.968 171.117 414.785 171.117ZM426.065 170.917V157.467H429.79V161.267L429.265 160.167C429.665 159.217 430.306 158.5 431.19 158.017C432.073 157.517 433.148 157.267 434.415 157.267V160.867C434.248 160.85 434.098 160.842 433.965 160.842C433.831 160.825 433.69 160.817 433.54 160.817C432.473 160.817 431.606 161.125 430.94 161.742C430.29 162.342 429.965 163.284 429.965 164.567V170.917H426.065ZM442.411 171.117C441.144 171.117 440.003 170.834 438.986 170.267C437.969 169.684 437.161 168.875 436.561 167.842C435.978 166.809 435.686 165.592 435.686 164.192C435.686 162.775 435.978 161.55 436.561 160.517C437.161 159.484 437.969 158.684 438.986 158.117C440.003 157.55 441.144 157.267 442.411 157.267C443.544 157.267 444.536 157.517 445.386 158.017C446.236 158.517 446.894 159.275 447.361 160.292C447.828 161.309 448.061 162.609 448.061 164.192C448.061 165.759 447.836 167.059 447.386 168.092C446.936 169.109 446.286 169.867 445.436 170.367C444.603 170.867 443.594 171.117 442.411 171.117ZM443.086 167.917C443.719 167.917 444.294 167.767 444.811 167.467C445.328 167.167 445.736 166.742 446.036 166.192C446.353 165.625 446.511 164.959 446.511 164.192C446.511 163.409 446.353 162.742 446.036 162.192C445.736 161.642 445.328 161.217 444.811 160.917C444.294 160.617 443.719 160.467 443.086 160.467C442.436 160.467 441.853 160.617 441.336 160.917C440.819 161.217 440.403 161.642 440.086 162.192C439.786 162.742 439.636 163.409 439.636 164.192C439.636 164.959 439.786 165.625 440.086 166.192C440.403 166.742 440.819 167.167 441.336 167.467C441.853 167.767 442.436 167.917 443.086 167.917ZM446.611 170.917V168.167L446.686 164.167L446.436 160.192V152.367H450.336V170.917H446.611Z" fill="#020CFF"/>
<path d="M165.438 215.688C167.647 215.688 169.437 213.898 169.437 211.688L169.437 126.202C169.437 123.992 167.647 122.202 165.437 122.202L151.872 122.202C149.11 122.202 146.872 124.44 146.872 127.202L146.872 209.688C146.872 213.002 149.558 215.688 152.872 215.688L165.438 215.688Z" fill="#FFD13B"/>
<path d="M155.473 214.136C155.473 218.554 159.054 222.136 163.473 222.136H351.714C356.684 222.136 360.714 218.106 360.714 213.136V203.57C360.714 201.361 358.923 199.57 356.714 199.57H163.473C159.054 199.57 155.473 203.152 155.473 207.57V214.136Z" fill="#E962FF"/>
<path d="M359.082 212.465C362.948 212.465 366.082 209.331 366.082 205.465L366.082 102.338C366.082 98.4717 362.948 95.3376 359.082 95.3376L348.516 95.3376C345.755 95.3376 343.516 97.5762 343.516 100.338L343.516 206.465C343.516 209.779 346.203 212.465 349.516 212.465L359.082 212.465Z" fill="#3C5AFF"/>
<path d="M147.945 110.754C147.945 113.515 150.184 115.754 152.945 115.754L348.261 115.754C351.575 115.754 354.261 113.068 354.261 109.754V100.188C354.261 96.3221 351.127 93.1881 347.261 93.1881L154.945 93.1881C151.079 93.1881 147.945 96.3221 147.945 100.188V110.754Z" fill="#29DB0B"/>
<g filter="url(#filter0_d_1292_243)">
<rect width="22.5658" height="22.5658" rx="3" transform="matrix(1 0 0 -1 343.516 115.754)" fill="#B3FFA7"/>
</g>
<path d="M165.438 141.544C167.647 141.544 169.437 139.753 169.437 137.544L169.437 107.711C169.437 103.845 166.303 100.711 162.437 100.711L153.872 100.711C150.006 100.711 146.872 103.845 146.872 107.711L146.872 135.544C146.872 138.858 149.558 141.544 152.872 141.544L165.438 141.544Z" fill="#FFD13B"/>
<g filter="url(#filter1_d_1292_243)">
<rect width="22.5658" height="22.5658" rx="3" transform="matrix(1 0 0 -1 343.516 222.136)" fill="#9DACFF"/>
</g>
<g filter="url(#filter2_d_1292_243)">
<rect width="22.5658" height="22.5658" rx="3" transform="matrix(1 0 0 -1 146.871 222.136)" fill="#EF9DFF"/>
</g>
<g filter="url(#filter3_d_1292_243)">
<rect width="22.5658" height="22.5658" rx="3" transform="matrix(-8.42937e-08 -1 -1 8.42937e-08 169.438 115.754)" fill="#FFDE83"/>
</g>
<defs>
<filter id="filter0_d_1292_243" x="339.516" y="93.1885" width="30.5664" height="30.5654" filterUnits="userSpaceOnUse" color-interpolation-filters="sRGB">
<feFlood flood-opacity="0" result="BackgroundImageFix"/>
<feColorMatrix in="SourceAlpha" type="matrix" values="0 0 0 0 0 0 0 0 0 0 0 0 0 0 0 0 0 0 127 0" result="hardAlpha"/>
<feOffset dy="4"/>
<feGaussianBlur stdDeviation="2"/>
<feComposite in2="hardAlpha" operator="out"/>
<feColorMatrix type="matrix" values="0 0 0 0 0 0 0 0 0 0 0 0 0 0 0 0 0 0 0.05 0"/>
<feBlend mode="normal" in2="BackgroundImageFix" result="effect1_dropShadow_1292_243"/>
<feBlend mode="normal" in="SourceGraphic" in2="effect1_dropShadow_1292_243" result="shape"/>
</filter>
<filter id="filter1_d_1292_243" x="339.516" y="199.57" width="30.5664" height="30.5654" filterUnits="userSpaceOnUse" color-interpolation-filters="sRGB">
<feFlood flood-opacity="0" result="BackgroundImageFix"/>
<feColorMatrix in="SourceAlpha" type="matrix" values="0 0 0 0 0 0 0 0 0 0 0 0 0 0 0 0 0 0 127 0" result="hardAlpha"/>
<feOffset dy="4"/>
<feGaussianBlur stdDeviation="2"/>
<feComposite in2="hardAlpha" operator="out"/>
<feColorMatrix type="matrix" values="0 0 0 0 0 0 0 0 0 0 0 0 0 0 0 0 0 0 0.05 0"/>
<feBlend mode="normal" in2="BackgroundImageFix" result="effect1_dropShadow_1292_243"/>
<feBlend mode="normal" in="SourceGraphic" in2="effect1_dropShadow_1292_243" result="shape"/>
</filter>
<filter id="filter2_d_1292_243" x="142.871" y="199.57" width="30.5664" height="30.5654" filterUnits="userSpaceOnUse" color-interpolation-filters="sRGB">
<feFlood flood-opacity="0" result="BackgroundImageFix"/>
<feColorMatrix in="SourceAlpha" type="matrix" values="0 0 0 0 0 0 0 0 0 0 0 0 0 0 0 0 0 0 127 0" result="hardAlpha"/>
<feOffset dy="4"/>
<feGaussianBlur stdDeviation="2"/>
<feComposite in2="hardAlpha" operator="out"/>
<feColorMatrix type="matrix" values="0 0 0 0 0 0 0 0 0 0 0 0 0 0 0 0 0 0 0.05 0"/>
<feBlend mode="normal" in2="BackgroundImageFix" result="effect1_dropShadow_1292_243"/>
<feBlend mode="normal" in="SourceGraphic" in2="effect1_dropShadow_1292_243" result="shape"/>
</filter>
<filter id="filter3_d_1292_243" x="142.871" y="93.1885" width="30.5664" height="30.5654" filterUnits="userSpaceOnUse" color-interpolation-filters="sRGB">
<feFlood flood-opacity="0" result="BackgroundImageFix"/>
<feColorMatrix in="SourceAlpha" type="matrix" values="0 0 0 0 0 0 0 0 0 0 0 0 0 0 0 0 0 0 127 0" result="hardAlpha"/>
<feOffset dy="4"/>
<feGaussianBlur stdDeviation="2"/>
<feComposite in2="hardAlpha" operator="out"/>
<feColorMatrix type="matrix" values="0 0 0 0 0 0 0 0 0 0 0 0 0 0 0 0 0 0 0.05 0"/>
<feBlend mode="normal" in2="BackgroundImageFix" result="effect1_dropShadow_1292_243"/>
<feBlend mode="normal" in="SourceGraphic" in2="effect1_dropShadow_1292_243" result="shape"/>
</filter>
</defs>
</svg>
