<svg width="700" height="400" viewBox="0 0 700 400" fill="none" xmlns="http://www.w3.org/2000/svg">
<rect width="700" height="400" fill="white"/>
<rect x="206.918" y="126.984" width="252.962" height="164.016" rx="25" stroke="#020CFF" stroke-width="40"/>
<rect x="196.918" y="116.984" width="274.206" height="184.016" rx="38" stroke="#627BFF" stroke-width="20"/>
<path d="M239.514 199L251.994 171H258.394L270.914 199H264.114L253.874 174.28H256.434L246.154 199H239.514ZM245.754 193L247.474 188.08H261.874L263.634 193H245.754ZM282.424 199.32C280.397 199.32 278.571 198.867 276.944 197.96C275.317 197.027 274.024 195.733 273.064 194.08C272.131 192.427 271.664 190.48 271.664 188.24C271.664 185.973 272.131 184.013 273.064 182.36C274.024 180.707 275.317 179.427 276.944 178.52C278.571 177.613 280.397 177.16 282.424 177.16C284.237 177.16 285.824 177.56 287.184 178.36C288.544 179.16 289.597 180.373 290.344 182C291.091 183.627 291.464 185.707 291.464 188.24C291.464 190.747 291.104 192.827 290.384 194.48C289.664 196.107 288.624 197.32 287.264 198.12C285.931 198.92 284.317 199.32 282.424 199.32ZM283.504 194.2C284.517 194.2 285.437 193.96 286.264 193.48C287.091 193 287.744 192.32 288.224 191.44C288.731 190.533 288.984 189.467 288.984 188.24C288.984 186.987 288.731 185.92 288.224 185.04C287.744 184.16 287.091 183.48 286.264 183C285.437 182.52 284.517 182.28 283.504 182.28C282.464 182.28 281.531 182.52 280.704 183C279.877 183.48 279.211 184.16 278.704 185.04C278.224 185.92 277.984 186.987 277.984 188.24C277.984 189.467 278.224 190.533 278.704 191.44C279.211 192.32 279.877 193 280.704 193.48C281.531 193.96 282.464 194.2 283.504 194.2ZM289.144 199V194.6L289.264 188.2L288.864 181.84V169.32H295.104V199H289.144ZM314.079 199V194.8L313.679 193.88V186.36C313.679 185.027 313.266 183.987 312.439 183.24C311.639 182.493 310.399 182.12 308.719 182.12C307.573 182.12 306.439 182.307 305.319 182.68C304.226 183.027 303.293 183.507 302.519 184.12L300.279 179.76C301.453 178.933 302.866 178.293 304.519 177.84C306.173 177.387 307.853 177.16 309.559 177.16C312.839 177.16 315.386 177.933 317.199 179.48C319.013 181.027 319.919 183.44 319.919 186.72V199H314.079ZM307.519 199.32C305.839 199.32 304.399 199.04 303.199 198.48C301.999 197.893 301.079 197.107 300.439 196.12C299.799 195.133 299.479 194.027 299.479 192.8C299.479 191.52 299.786 190.4 300.399 189.44C301.039 188.48 302.039 187.733 303.399 187.2C304.759 186.64 306.533 186.36 308.719 186.36H314.439V190H309.399C307.933 190 306.919 190.24 306.359 190.72C305.826 191.2 305.559 191.8 305.559 192.52C305.559 193.32 305.866 193.96 306.479 194.44C307.119 194.893 307.986 195.12 309.079 195.12C310.119 195.12 311.053 194.88 311.879 194.4C312.706 193.893 313.306 193.16 313.679 192.2L314.639 195.08C314.186 196.467 313.359 197.52 312.159 198.24C310.959 198.96 309.413 199.32 307.519 199.32ZM338.287 199.32C336.473 199.32 334.887 198.92 333.527 198.12C332.167 197.32 331.1 196.107 330.327 194.48C329.58 192.827 329.207 190.747 329.207 188.24C329.207 185.707 329.567 183.627 330.287 182C331.007 180.373 332.047 179.16 333.407 178.36C334.767 177.56 336.393 177.16 338.287 177.16C340.313 177.16 342.127 177.627 343.727 178.56C345.353 179.467 346.633 180.747 347.567 182.4C348.527 184.053 349.007 186 349.007 188.24C349.007 190.507 348.527 192.467 347.567 194.12C346.633 195.773 345.353 197.053 343.727 197.96C342.127 198.867 340.313 199.32 338.287 199.32ZM325.567 206.76V177.48H331.527V181.88L331.407 188.28L331.807 194.64V206.76H325.567ZM337.207 194.2C338.247 194.2 339.167 193.96 339.967 193.48C340.793 193 341.447 192.32 341.927 191.44C342.433 190.533 342.687 189.467 342.687 188.24C342.687 186.987 342.433 185.92 341.927 185.04C341.447 184.16 340.793 183.48 339.967 183C339.167 182.52 338.247 182.28 337.207 182.28C336.167 182.28 335.233 182.52 334.407 183C333.58 183.48 332.927 184.16 332.447 185.04C331.967 185.92 331.727 186.987 331.727 188.24C331.727 189.467 331.967 190.533 332.447 191.44C332.927 192.32 333.58 193 334.407 193.48C335.233 193.96 336.167 194.2 337.207 194.2ZM361.984 199.32C359.451 199.32 357.477 198.68 356.064 197.4C354.651 196.093 353.944 194.16 353.944 191.6V172.72H360.184V191.52C360.184 192.427 360.424 193.133 360.904 193.64C361.384 194.12 362.037 194.36 362.864 194.36C363.851 194.36 364.691 194.093 365.384 193.56L367.064 197.96C366.424 198.413 365.651 198.76 364.744 199C363.864 199.213 362.944 199.32 361.984 199.32ZM350.624 182.76V177.96H365.544V182.76H350.624ZM370.567 199V177.48H376.807V199H370.567ZM373.687 174.48C372.54 174.48 371.607 174.147 370.887 173.48C370.167 172.813 369.807 171.987 369.807 171C369.807 170.013 370.167 169.187 370.887 168.52C371.607 167.853 372.54 167.52 373.687 167.52C374.833 167.52 375.767 167.84 376.487 168.48C377.207 169.093 377.567 169.893 377.567 170.88C377.567 171.92 377.207 172.787 376.487 173.48C375.793 174.147 374.86 174.48 373.687 174.48ZM388.438 199L379.398 177.48H385.838L393.358 196H390.158L397.958 177.48H403.958L394.878 199H388.438ZM416.598 199.32C414.145 199.32 411.985 198.84 410.118 197.88C408.278 196.92 406.852 195.613 405.838 193.96C404.825 192.28 404.318 190.373 404.318 188.24C404.318 186.08 404.812 184.173 405.798 182.52C406.812 180.84 408.185 179.533 409.918 178.6C411.652 177.64 413.612 177.16 415.798 177.16C417.905 177.16 419.798 177.613 421.478 178.52C423.185 179.4 424.532 180.68 425.518 182.36C426.505 184.013 426.998 186 426.998 188.32C426.998 188.56 426.985 188.84 426.958 189.16C426.932 189.453 426.905 189.733 426.878 190H409.398V186.36H423.598L421.198 187.44C421.198 186.32 420.972 185.347 420.518 184.52C420.065 183.693 419.438 183.053 418.638 182.6C417.838 182.12 416.905 181.88 415.838 181.88C414.772 181.88 413.825 182.12 412.998 182.6C412.198 183.053 411.572 183.707 411.118 184.56C410.665 185.387 410.438 186.373 410.438 187.52V188.48C410.438 189.653 410.692 190.693 411.198 191.6C411.732 192.48 412.465 193.16 413.398 193.64C414.358 194.093 415.478 194.32 416.758 194.32C417.905 194.32 418.905 194.147 419.758 193.8C420.638 193.453 421.438 192.933 422.158 192.24L425.478 195.84C424.492 196.96 423.252 197.827 421.758 198.44C420.265 199.027 418.545 199.32 416.598 199.32Z" fill="black"/>
<path d="M241.32 251V223H247.8V245.72H261.84V251H241.32ZM275.143 251.32C272.85 251.32 270.81 250.84 269.023 249.88C267.263 248.92 265.863 247.613 264.823 245.96C263.81 244.28 263.303 242.373 263.303 240.24C263.303 238.08 263.81 236.173 264.823 234.52C265.863 232.84 267.263 231.533 269.023 230.6C270.81 229.64 272.85 229.16 275.143 229.16C277.41 229.16 279.437 229.64 281.223 230.6C283.01 231.533 284.41 232.827 285.423 234.48C286.437 236.133 286.943 238.053 286.943 240.24C286.943 242.373 286.437 244.28 285.423 245.96C284.41 247.613 283.01 248.92 281.223 249.88C279.437 250.84 277.41 251.32 275.143 251.32ZM275.143 246.2C276.183 246.2 277.117 245.96 277.943 245.48C278.77 245 279.423 244.32 279.903 243.44C280.383 242.533 280.623 241.467 280.623 240.24C280.623 238.987 280.383 237.92 279.903 237.04C279.423 236.16 278.77 235.48 277.943 235C277.117 234.52 276.183 234.28 275.143 234.28C274.103 234.28 273.17 234.52 272.343 235C271.517 235.48 270.85 236.16 270.343 237.04C269.863 237.92 269.623 238.987 269.623 240.24C269.623 241.467 269.863 242.533 270.343 243.44C270.85 244.32 271.517 245 272.343 245.48C273.17 245.96 274.103 246.2 275.143 246.2ZM301.234 259.08C299.208 259.08 297.248 258.827 295.354 258.32C293.488 257.84 291.928 257.107 290.674 256.12L293.154 251.64C294.061 252.387 295.208 252.973 296.594 253.4C298.008 253.853 299.394 254.08 300.754 254.08C302.968 254.08 304.568 253.587 305.554 252.6C306.568 251.613 307.074 250.147 307.074 248.2V244.96L307.474 239.56L307.394 234.12V229.48H313.314V247.4C313.314 251.4 312.274 254.347 310.194 256.24C308.114 258.133 305.128 259.08 301.234 259.08ZM300.274 249.96C298.274 249.96 296.461 249.533 294.834 248.68C293.234 247.8 291.941 246.587 290.954 245.04C289.994 243.467 289.514 241.64 289.514 239.56C289.514 237.453 289.994 235.627 290.954 234.08C291.941 232.507 293.234 231.293 294.834 230.44C296.461 229.587 298.274 229.16 300.274 229.16C302.088 229.16 303.688 229.533 305.074 230.28C306.461 231 307.541 232.133 308.314 233.68C309.088 235.2 309.474 237.16 309.474 239.56C309.474 241.933 309.088 243.893 308.314 245.44C307.541 246.96 306.461 248.093 305.074 248.84C303.688 249.587 302.088 249.96 300.274 249.96ZM301.514 244.84C302.608 244.84 303.581 244.627 304.434 244.2C305.288 243.747 305.954 243.12 306.434 242.32C306.914 241.52 307.154 240.6 307.154 239.56C307.154 238.493 306.914 237.573 306.434 236.8C305.954 236 305.288 235.387 304.434 234.96C303.581 234.507 302.608 234.28 301.514 234.28C300.421 234.28 299.448 234.507 298.594 234.96C297.741 235.387 297.061 236 296.554 236.8C296.074 237.573 295.834 238.493 295.834 239.56C295.834 240.6 296.074 241.52 296.554 242.32C297.061 243.12 297.741 243.747 298.594 244.2C299.448 244.627 300.421 244.84 301.514 244.84ZM319.122 251V229.48H325.362V251H319.122ZM322.242 226.48C321.096 226.48 320.162 226.147 319.442 225.48C318.722 224.813 318.362 223.987 318.362 223C318.362 222.013 318.722 221.187 319.442 220.52C320.162 219.853 321.096 219.52 322.242 219.52C323.389 219.52 324.322 219.84 325.042 220.48C325.762 221.093 326.122 221.893 326.122 222.88C326.122 223.92 325.762 224.787 325.042 225.48C324.349 226.147 323.416 226.48 322.242 226.48ZM341.553 251.32C339.233 251.32 337.167 250.853 335.353 249.92C333.54 248.96 332.113 247.64 331.073 245.96C330.06 244.28 329.553 242.373 329.553 240.24C329.553 238.08 330.06 236.173 331.073 234.52C332.113 232.84 333.54 231.533 335.353 230.6C337.167 229.64 339.233 229.16 341.553 229.16C343.82 229.16 345.793 229.64 347.473 230.6C349.153 231.533 350.393 232.88 351.193 234.64L346.353 237.24C345.793 236.227 345.087 235.48 344.233 235C343.407 234.52 342.5 234.28 341.513 234.28C340.447 234.28 339.487 234.52 338.633 235C337.78 235.48 337.1 236.16 336.593 237.04C336.113 237.92 335.873 238.987 335.873 240.24C335.873 241.493 336.113 242.56 336.593 243.44C337.1 244.32 337.78 245 338.633 245.48C339.487 245.96 340.447 246.2 341.513 246.2C342.5 246.2 343.407 245.973 344.233 245.52C345.087 245.04 345.793 244.28 346.353 243.24L351.193 245.88C350.393 247.613 349.153 248.96 347.473 249.92C345.793 250.853 343.82 251.32 341.553 251.32Z" fill="black"/>
<path d="M85.3668 65.2763L83.5636 63.5581L83.5636 63.5581L85.3668 65.2763ZM199.452 48.8585C200.602 48.061 200.811 46.582 199.917 45.5551L185.355 28.8215C184.462 27.7946 182.805 27.6087 181.654 28.4063C180.504 29.2038 180.295 30.6828 181.189 31.7096L194.133 46.584L177.467 58.1367C176.317 58.9342 176.108 60.4132 177.002 61.4401C177.896 62.4669 179.553 62.6528 180.703 61.8553L199.452 48.8585ZM60.0129 170.007C62.6366 169.763 62.6366 169.764 62.6366 169.764C62.6365 169.763 62.6365 169.763 62.6364 169.762C62.6362 169.76 62.6359 169.758 62.6354 169.754C62.6345 169.746 62.6331 169.733 62.6312 169.716C62.6274 169.682 62.6216 169.63 62.614 169.561C62.5989 169.421 62.5767 169.212 62.549 168.935C62.4936 168.382 62.4163 167.563 62.3296 166.508C62.1563 164.397 61.9457 161.341 61.7989 157.583C61.5051 150.062 61.4674 139.748 62.4876 128.559C63.5087 117.361 65.5838 105.354 69.4835 94.4224C73.3899 83.4717 79.0677 73.7679 87.17 66.9945L83.5636 63.5581C74.5575 71.0872 68.5119 81.626 64.4566 92.994C60.3947 104.381 58.2698 116.769 57.2295 128.177C56.1883 139.596 56.2279 150.101 56.5266 157.747C56.6761 161.573 56.8906 164.688 57.0683 166.852C57.1571 167.934 57.2368 168.778 57.2945 169.355C57.3234 169.643 57.3468 169.864 57.3631 170.014C57.3713 170.09 57.3777 170.147 57.3821 170.187C57.3843 170.206 57.3861 170.222 57.3873 170.232C57.3879 170.237 57.3884 170.242 57.3887 170.245C57.3889 170.246 57.389 170.247 57.3891 170.248C57.3892 170.249 57.3893 170.25 60.0129 170.007ZM87.17 66.9945C94.8886 60.5418 105.543 56.1326 117.391 53.1976C129.217 50.2679 142.054 48.8506 153.962 48.274C165.859 47.6978 176.76 47.9638 184.69 48.3748C188.653 48.5802 191.867 48.8215 194.087 49.0109C195.196 49.1056 196.057 49.1872 196.637 49.245C196.927 49.2738 197.147 49.2967 197.293 49.3121C197.366 49.3199 197.42 49.3258 197.456 49.3296C197.474 49.3316 197.487 49.333 197.495 49.3339C197.499 49.3344 197.502 49.3347 197.504 49.3349C197.504 49.335 197.505 49.335 197.505 49.3351C197.505 49.3351 197.505 49.3351 197.834 46.9992C198.163 44.6634 198.162 44.6633 198.161 44.6631C198.16 44.6631 198.159 44.6629 198.157 44.6627C198.154 44.6624 198.15 44.6619 198.144 44.6613C198.133 44.66 198.117 44.6583 198.096 44.656C198.055 44.6515 197.994 44.6449 197.915 44.6365C197.757 44.6198 197.524 44.5956 197.221 44.5655C196.615 44.5052 195.727 44.421 194.589 44.3238C192.312 44.1295 189.032 43.8835 184.996 43.6743C176.929 43.2562 165.822 42.9842 153.676 43.5724C141.539 44.1602 128.296 45.6098 115.98 48.6607C103.686 51.7062 92.1362 56.3914 83.5636 63.5581L87.17 66.9945Z" fill="#AEF2A3"/>
<path d="M85.8707 68.6278L84.0675 66.9096L84.0675 66.9096L85.8707 68.6278ZM199.956 52.2101C201.106 51.4125 201.315 49.9335 200.421 48.9067L185.859 32.173C184.966 31.1462 183.308 30.9603 182.158 31.7578C181.007 32.5554 180.799 34.0343 181.693 35.0612L194.637 49.9356L177.971 61.4882C176.821 62.2858 176.612 63.7648 177.506 64.7916C178.399 65.8185 180.057 66.0044 181.207 65.2068L199.956 52.2101ZM60.5168 173.358C63.1405 173.115 63.1405 173.115 63.1405 173.115C63.1404 173.115 63.1404 173.114 63.1403 173.114C63.1401 173.112 63.1398 173.109 63.1393 173.105C63.1384 173.097 63.137 173.085 63.1351 173.068C63.1313 173.034 63.1255 172.982 63.1179 172.912C63.1028 172.773 63.0806 172.563 63.0529 172.287C62.9975 171.734 62.9202 170.915 62.8335 169.859C62.6602 167.748 62.4496 164.693 62.3028 160.935C62.009 153.414 61.9713 143.099 62.9915 131.911C64.0126 120.713 66.0877 108.706 69.9874 97.774C73.8938 86.8232 79.5717 77.1195 87.6739 70.346L84.0675 66.9096C75.0614 74.4387 69.0158 84.9776 64.9605 96.3455C60.8986 107.732 58.7737 120.12 57.7334 131.529C56.6922 142.948 56.7318 153.452 57.0305 161.099C57.18 164.924 57.3945 168.04 57.5722 170.204C57.661 171.285 57.7407 172.13 57.7984 172.706C57.8273 172.994 57.8507 173.216 57.867 173.366C57.8752 173.441 57.8816 173.499 57.886 173.538C57.8882 173.558 57.89 173.573 57.8912 173.584C57.8918 173.589 57.8923 173.593 57.8926 173.596C57.8928 173.598 57.8929 173.599 57.893 173.6C57.8931 173.601 57.8932 173.602 60.5168 173.358ZM87.6739 70.346C95.3925 63.8933 106.047 59.4842 117.895 56.5492C129.721 53.6195 142.558 52.2022 154.466 51.6255C166.363 51.0494 177.264 51.3154 185.194 51.7264C189.156 51.9318 192.371 52.173 194.591 52.3624C195.7 52.4571 196.561 52.5388 197.141 52.5965C197.431 52.6254 197.651 52.6482 197.797 52.6637C197.87 52.6714 197.924 52.6773 197.96 52.6812C197.978 52.6831 197.991 52.6846 197.999 52.6855C198.003 52.6859 198.006 52.6863 198.007 52.6865C198.008 52.6865 198.009 52.6866 198.009 52.6866C198.009 52.6866 198.009 52.6866 198.338 50.3508C198.667 48.0149 198.666 48.0148 198.665 48.0147C198.664 48.0146 198.663 48.0145 198.661 48.0143C198.658 48.0139 198.653 48.0134 198.648 48.0128C198.637 48.0116 198.621 48.0098 198.6 48.0076C198.558 48.003 198.498 47.9965 198.419 47.9881C198.261 47.9713 198.028 47.9472 197.725 47.917C197.119 47.8568 196.231 47.7725 195.093 47.6754C192.816 47.4811 189.535 47.235 185.5 47.0259C177.433 46.6077 166.326 46.3358 154.18 46.924C142.043 47.5118 128.8 48.9614 116.484 52.0122C104.19 55.0578 92.6401 59.743 84.0675 66.9096L87.6739 70.346Z" fill="#2BB514"/>
<path d="M574.693 63.097L576.793 61.7035L574.693 63.097ZM581.893 154.854C582.749 155.919 584.397 156.176 585.574 155.427L604.751 143.228C605.928 142.48 606.188 141.01 605.332 139.944C604.476 138.879 602.828 138.622 601.651 139.371L584.605 150.214L572.205 134.784C571.349 133.719 569.701 133.462 568.524 134.211C567.348 134.959 567.087 136.43 567.943 137.495L581.893 154.854ZM468.927 34.5535C468.941 36.9107 468.941 36.9107 468.941 36.9107C468.941 36.9107 468.942 36.9107 468.943 36.9107C468.945 36.9108 468.948 36.9108 468.952 36.9108C468.961 36.9109 468.974 36.9111 468.993 36.9113C469.03 36.9118 469.087 36.9125 469.163 36.9137C469.314 36.916 469.542 36.9199 469.841 36.9261C470.44 36.9386 471.326 36.9605 472.464 36.9982C474.742 37.0737 478.027 37.2124 482.045 37.4649C490.087 37.9704 501.036 38.9306 512.691 40.7474C524.36 42.5662 536.654 45.2314 547.419 49.1208C558.229 53.0266 567.216 58.0677 572.594 64.4904L576.793 61.7035C570.56 54.2595 560.522 48.7993 549.324 44.7531C538.08 40.6907 525.384 37.9533 513.514 36.103C501.63 34.2505 490.491 33.2749 482.329 32.7618C478.246 32.5051 474.901 32.3639 472.574 32.2867C471.41 32.2481 470.499 32.2256 469.878 32.2126C469.567 32.2062 469.328 32.2021 469.166 32.1996C469.085 32.1984 469.023 32.1976 468.98 32.1971C468.959 32.1968 468.943 32.1966 468.932 32.1965C468.926 32.1964 468.922 32.1964 468.918 32.1963C468.917 32.1963 468.915 32.1963 468.915 32.1963C468.913 32.1963 468.913 32.1963 468.927 34.5535ZM572.594 64.4904C577.447 70.2873 580.548 78.6231 582.374 88.1185C584.191 97.5698 584.702 107.933 584.563 117.592C584.424 127.241 583.638 136.126 582.885 142.603C582.508 145.839 582.141 148.469 581.869 150.287C581.732 151.196 581.62 151.901 581.541 152.378C581.502 152.616 581.472 152.797 581.451 152.917C581.441 152.977 581.433 153.022 581.428 153.052C581.426 153.066 581.424 153.077 581.423 153.084C581.422 153.087 581.422 153.09 581.421 153.091C581.421 153.092 581.421 153.093 581.421 153.093C581.421 153.093 581.421 153.093 584.024 153.498C586.626 153.904 586.627 153.903 586.627 153.902C586.627 153.902 586.627 153.9 586.627 153.899C586.628 153.897 586.628 153.893 586.629 153.889C586.631 153.88 586.633 153.867 586.636 153.85C586.642 153.816 586.65 153.767 586.661 153.703C586.683 153.574 586.715 153.384 586.756 153.137C586.837 152.643 586.952 151.918 587.092 150.989C587.371 149.131 587.744 146.454 588.126 143.166C588.89 136.593 589.691 127.56 589.832 117.73C589.974 107.909 589.459 97.2327 587.567 87.393C585.683 77.5973 582.392 68.3908 576.793 61.7035L572.594 64.4904Z" fill="#AEF2A3"/>
<path d="M577.291 64.8372L579.39 63.4437L577.291 64.8372ZM584.491 156.594C585.347 157.659 586.994 157.916 588.171 157.167L607.349 144.969C608.526 144.22 608.786 142.75 607.93 141.685C607.074 140.619 605.426 140.363 604.249 141.111L587.202 151.954L574.803 136.524C573.947 135.459 572.299 135.202 571.122 135.951C569.945 136.7 569.685 138.17 570.541 139.235L584.491 156.594ZM471.524 36.2937C471.538 38.651 471.538 38.651 471.538 38.651C471.539 38.651 471.539 38.651 471.54 38.651C471.542 38.651 471.545 38.651 471.55 38.6511C471.558 38.6512 471.572 38.6513 471.591 38.6516C471.628 38.652 471.684 38.6528 471.76 38.6539C471.912 38.6562 472.139 38.6601 472.439 38.6663C473.038 38.6788 473.924 38.7007 475.062 38.7384C477.339 38.8139 480.625 38.9526 484.643 39.2052C492.684 39.7107 503.634 40.6708 515.289 42.4876C526.958 44.3065 539.252 46.9716 550.017 50.8611C560.826 54.7668 569.814 59.8079 575.191 66.2307L579.39 63.4437C573.158 55.9997 563.12 50.5395 551.921 46.4934C540.678 42.4309 527.982 39.6935 516.111 37.8432C504.227 35.9908 493.089 35.0151 484.927 34.5021C480.844 34.2454 477.499 34.1041 475.171 34.027C474.007 33.9884 473.097 33.9658 472.475 33.9529C472.165 33.9464 471.926 33.9423 471.764 33.9399C471.682 33.9386 471.62 33.9378 471.578 33.9373C471.557 33.937 471.541 33.9368 471.529 33.9367C471.524 33.9366 471.519 33.9366 471.516 33.9366C471.514 33.9366 471.513 33.9365 471.512 33.9365C471.511 33.9365 471.51 33.9365 471.524 36.2937ZM575.191 66.2307C580.045 72.0276 583.146 80.3634 584.971 89.8587C586.789 99.31 587.3 109.673 587.161 119.332C587.022 128.981 586.235 137.867 585.482 144.343C585.106 147.579 584.739 150.209 584.466 152.027C584.33 152.936 584.217 153.642 584.139 154.118C584.1 154.356 584.07 154.537 584.049 154.657C584.039 154.717 584.031 154.762 584.026 154.792C584.023 154.806 584.021 154.817 584.02 154.824C584.02 154.828 584.019 154.83 584.019 154.832C584.019 154.832 584.019 154.833 584.019 154.833C584.019 154.833 584.019 154.833 586.621 155.239C589.224 155.644 589.224 155.643 589.224 155.642C589.224 155.642 589.225 155.641 589.225 155.639C589.225 155.637 589.226 155.633 589.227 155.629C589.228 155.62 589.231 155.607 589.233 155.59C589.239 155.557 589.248 155.507 589.259 155.443C589.281 155.314 589.313 155.124 589.353 154.877C589.435 154.383 589.55 153.658 589.69 152.729C589.968 150.871 590.342 148.194 590.724 144.906C591.488 138.334 592.289 129.3 592.43 119.47C592.571 109.649 592.056 98.9729 590.164 89.1332C588.281 79.3375 584.989 70.1311 579.39 63.4437L575.191 66.2307Z" fill="#009006"/>
<path d="M136.725 103.569L138.525 105.3L138.525 105.3L136.725 103.569ZM112.708 166.973C113.711 167.922 115.38 167.971 116.437 167.082L133.653 152.595C134.709 151.706 134.753 150.215 133.75 149.266C132.748 148.317 131.078 148.268 130.022 149.157L114.719 162.035L100.195 148.286C99.1919 147.337 97.5226 147.288 96.4662 148.177C95.4097 149.066 95.3661 150.556 96.3688 151.505L112.708 166.973ZM206.285 88.1934C206.365 85.8402 206.365 85.8402 206.364 85.8402C206.363 85.8402 206.362 85.8401 206.361 85.8401C206.359 85.84 206.356 85.8399 206.352 85.8398C206.345 85.8396 206.334 85.8393 206.321 85.8389C206.295 85.8381 206.257 85.837 206.207 85.8356C206.108 85.8329 205.963 85.8292 205.774 85.8253C205.398 85.8173 204.848 85.808 204.144 85.8023C202.735 85.791 200.708 85.7943 198.215 85.8519C193.231 85.9671 186.365 86.3 178.839 87.1729C163.964 88.898 145.829 92.801 134.924 101.839L138.525 105.3C148.128 97.342 164.774 93.5571 179.552 91.8431C186.853 90.9964 193.531 90.672 198.386 90.5598C200.811 90.5037 202.777 90.5007 204.131 90.5116C204.808 90.517 205.332 90.5259 205.684 90.5334C205.86 90.5371 205.993 90.5405 206.081 90.5429C206.125 90.5441 206.157 90.545 206.178 90.5456C206.188 90.5459 206.196 90.5462 206.2 90.5463C206.203 90.5464 206.204 90.5464 206.205 90.5465C206.205 90.5465 206.205 90.5465 206.206 90.5465C206.205 90.5465 206.205 90.5465 206.285 88.1934ZM134.924 101.839C123.862 111.005 118.22 127.126 115.285 140.461C113.8 147.209 112.976 153.402 112.523 157.906C112.296 160.16 112.162 161.995 112.084 163.272C112.046 163.91 112.021 164.409 112.006 164.75C111.998 164.921 111.993 165.052 111.99 165.143C111.988 165.188 111.987 165.222 111.986 165.246C111.986 165.258 111.985 165.268 111.985 165.274C111.985 165.278 111.985 165.28 111.985 165.282C111.985 165.283 111.985 165.284 111.985 165.285C111.985 165.286 111.985 165.286 114.621 165.363C117.258 165.44 117.258 165.441 117.258 165.441C117.258 165.44 117.258 165.44 117.258 165.44C117.258 165.439 117.258 165.438 117.258 165.436C117.258 165.432 117.258 165.425 117.258 165.415C117.259 165.397 117.26 165.367 117.261 165.327C117.264 165.248 117.269 165.127 117.276 164.967C117.29 164.648 117.314 164.172 117.351 163.558C117.426 162.331 117.556 160.55 117.777 158.358C118.218 153.969 119.02 147.945 120.461 141.399C123.378 128.146 128.788 113.37 138.525 105.3L134.924 101.839Z" fill="#BE0000"/>
<path d="M140.072 103.794L141.873 105.525L141.873 105.525L140.072 103.794ZM116.056 167.197C117.059 168.147 118.728 168.195 119.784 167.306L137.001 152.819C138.057 151.93 138.101 150.44 137.098 149.491C136.095 148.542 134.426 148.493 133.37 149.382L118.066 162.26L103.542 148.511C102.54 147.561 100.87 147.513 99.8138 148.402C98.7574 149.291 98.7137 150.781 99.7164 151.73L116.056 167.197ZM209.633 88.418C209.713 86.0649 209.712 86.0648 209.711 86.0648C209.711 86.0648 209.71 86.0647 209.709 86.0647C209.706 86.0646 209.703 86.0645 209.7 86.0644C209.692 86.0642 209.682 86.0639 209.669 86.0635C209.642 86.0627 209.604 86.0616 209.555 86.0602C209.455 86.0575 209.31 86.0539 209.122 86.0499C208.746 86.0419 208.196 86.0326 207.491 86.0269C206.083 86.0156 204.056 86.0189 201.562 86.0765C196.579 86.1917 189.713 86.5246 182.187 87.3975C167.312 89.1226 149.177 93.0256 138.271 102.063L141.873 105.525C151.476 97.5666 168.121 93.7817 182.9 92.0678C190.2 91.2211 196.879 90.8966 201.734 90.7844C204.159 90.7283 206.124 90.7253 207.479 90.7362C208.156 90.7416 208.68 90.7505 209.032 90.758C209.208 90.7617 209.341 90.7651 209.428 90.7675C209.472 90.7687 209.505 90.7696 209.525 90.7702C209.536 90.7706 209.543 90.7708 209.548 90.7709C209.55 90.771 209.552 90.7711 209.553 90.7711C209.553 90.7711 209.553 90.7711 209.553 90.7711C209.553 90.7711 209.553 90.7711 209.633 88.418ZM138.271 102.063C127.21 111.23 121.568 127.351 118.633 140.686C117.148 147.434 116.324 153.626 115.871 158.13C115.644 160.384 115.51 162.22 115.432 163.496C115.393 164.134 115.368 164.633 115.353 164.975C115.346 165.146 115.341 165.277 115.337 165.367C115.336 165.412 115.334 165.447 115.334 165.471C115.333 165.483 115.333 165.492 115.333 165.499C115.333 165.502 115.333 165.505 115.333 165.507C115.333 165.508 115.332 165.509 115.332 165.509C115.332 165.51 115.332 165.511 117.969 165.588C120.605 165.665 120.605 165.665 120.605 165.665C120.605 165.665 120.605 165.665 120.605 165.665C120.605 165.664 120.605 165.663 120.605 165.66C120.605 165.656 120.606 165.65 120.606 165.64C120.607 165.621 120.608 165.592 120.609 165.552C120.612 165.472 120.617 165.351 120.624 165.192C120.638 164.872 120.661 164.397 120.699 163.783C120.774 162.555 120.904 160.775 121.124 158.582C121.566 154.193 122.368 148.169 123.809 141.623C126.726 128.371 132.136 113.594 141.873 105.525L138.271 102.063Z" fill="#F0A1A1"/>
<path d="M514.759 89.3549L513.331 91.3548L513.331 91.3548L514.759 89.3549ZM444.542 87.0451C443.813 88.1815 444.244 89.6173 445.504 90.252L466.036 100.596C467.296 101.231 468.908 100.825 469.637 99.6882C470.366 98.5518 469.935 97.116 468.675 96.4813L450.424 87.2863L460.979 70.8257C461.707 69.6893 461.277 68.2535 460.017 67.6187C458.757 66.9839 457.145 67.3906 456.416 68.5269L444.542 87.0451ZM540.438 161.303C543.071 161.353 543.071 161.352 543.071 161.351C543.071 161.35 543.071 161.349 543.071 161.348C543.071 161.346 543.072 161.342 543.072 161.338C543.072 161.33 543.073 161.318 543.073 161.303C543.074 161.273 543.076 161.23 543.077 161.174C543.081 161.061 543.086 160.896 543.091 160.682C543.101 160.254 543.112 159.629 543.116 158.831C543.123 157.236 543.102 154.946 542.989 152.153C542.762 146.57 542.165 138.949 540.679 130.815C539.195 122.692 536.811 113.979 532.971 106.25C529.139 98.5369 523.767 91.6224 516.186 87.355L513.331 91.3548C519.723 94.9533 524.546 100.965 528.149 108.217C531.744 115.454 534.034 123.744 535.476 131.642C536.917 139.528 537.5 146.944 537.721 152.394C537.832 155.116 537.852 157.341 537.845 158.882C537.841 159.652 537.831 160.25 537.821 160.653C537.817 160.855 537.812 161.007 537.809 161.108C537.807 161.159 537.806 161.196 537.805 161.221C537.805 161.233 537.804 161.241 537.804 161.247C537.804 161.25 537.804 161.251 537.804 161.252C537.804 161.253 537.804 161.253 537.804 161.253C537.804 161.253 537.804 161.253 540.438 161.303ZM516.186 87.355C510.115 83.9375 502.629 82.2211 494.991 81.4995C487.331 80.7759 479.347 81.0373 472.147 81.692C464.938 82.3475 458.452 83.4033 453.77 84.2941C451.427 84.7399 449.531 85.1454 448.216 85.4407C447.558 85.5883 447.046 85.7085 446.695 85.7924C446.519 85.8343 446.384 85.8672 446.291 85.89C446.245 85.9014 446.209 85.9102 446.184 85.9164C446.172 85.9195 446.162 85.9219 446.155 85.9237C446.152 85.9245 446.149 85.9252 446.147 85.9258C446.146 85.926 446.145 85.9263 446.145 85.9264C446.144 85.9266 446.143 85.9268 446.823 88.1945C447.503 90.4621 447.503 90.4622 447.503 90.4622C447.503 90.4622 447.503 90.4622 447.503 90.4621C447.504 90.4619 447.505 90.4616 447.508 90.4611C447.512 90.4601 447.519 90.4583 447.528 90.456C447.547 90.4512 447.577 90.4438 447.617 90.4339C447.698 90.414 447.821 90.384 447.985 90.345C448.311 90.267 448.797 90.153 449.427 90.0115C450.688 89.7286 452.521 89.3364 454.794 88.904C459.343 88.0382 465.633 87.0151 472.602 86.3814C479.581 85.7469 487.178 85.5087 494.36 86.1872C501.563 86.8677 508.18 88.455 513.331 91.3548L516.186 87.355Z" fill="#BE0000"/>
<path d="M516.708 86.5073L515.28 88.5071L515.28 88.5071L516.708 86.5073ZM446.491 84.1974C445.762 85.3338 446.193 86.7696 447.453 87.4044L467.985 97.7488C469.245 98.3835 470.857 97.9769 471.586 96.8406C472.315 95.7042 471.884 94.2684 470.624 93.6336L452.373 84.4386L462.928 67.978C463.657 66.8417 463.226 65.4059 461.966 64.7711C460.706 64.1363 459.094 64.5429 458.365 65.6793L446.491 84.1974ZM542.387 158.455C545.02 158.505 545.02 158.504 545.02 158.503C545.02 158.503 545.021 158.501 545.021 158.5C545.021 158.498 545.021 158.495 545.021 158.49C545.021 158.482 545.022 158.471 545.022 158.456C545.023 158.426 545.025 158.382 545.027 158.326C545.03 158.213 545.035 158.048 545.04 157.834C545.05 157.406 545.061 156.782 545.065 155.984C545.072 154.388 545.051 152.099 544.938 149.305C544.711 143.723 544.114 136.101 542.628 127.967C541.144 119.845 538.76 111.131 534.921 103.402C531.089 95.6892 525.716 88.7747 518.135 84.5074L515.28 88.5071C521.672 92.1057 526.496 98.1175 530.098 105.37C533.694 112.606 535.983 120.896 537.426 128.794C538.866 136.68 539.449 144.096 539.671 149.546C539.781 152.268 539.801 154.494 539.794 156.034C539.791 156.804 539.78 157.402 539.771 157.805C539.766 158.007 539.761 158.16 539.758 158.261C539.756 158.311 539.755 158.349 539.754 158.373C539.754 158.385 539.753 158.394 539.753 158.399C539.753 158.402 539.753 158.404 539.753 158.405C539.753 158.405 539.753 158.405 539.753 158.406C539.753 158.406 539.753 158.405 542.387 158.455ZM518.135 84.5074C512.065 81.0899 504.578 79.3734 496.94 78.6519C489.28 77.9283 481.296 78.1896 474.096 78.8443C466.887 79.4998 460.401 80.5556 455.72 81.4465C453.377 81.8923 451.48 82.2978 450.165 82.593C449.508 82.7407 448.995 82.8608 448.644 82.9447C448.468 82.9867 448.333 83.0196 448.241 83.0424C448.194 83.0537 448.159 83.0626 448.134 83.0688C448.121 83.0719 448.112 83.0743 448.105 83.076C448.101 83.0769 448.098 83.0776 448.096 83.0781C448.095 83.0784 448.094 83.0786 448.094 83.0788C448.093 83.079 448.092 83.0792 448.772 85.3468C449.453 87.6145 449.452 87.6145 449.452 87.6146C449.452 87.6145 449.452 87.6146 449.453 87.6145C449.453 87.6143 449.455 87.6139 449.457 87.6134C449.461 87.6124 449.468 87.6107 449.477 87.6083C449.496 87.6036 449.526 87.5961 449.567 87.5862C449.648 87.5663 449.771 87.5363 449.934 87.4973C450.26 87.4193 450.747 87.3053 451.377 87.1639C452.637 86.881 454.47 86.4888 456.743 86.0563C461.292 85.1905 467.582 84.1675 474.552 83.5337C481.53 82.8992 489.127 82.661 496.309 83.3395C503.513 84.02 510.129 85.6073 515.28 88.5071L518.135 84.5074Z" fill="#F0A1A1"/>
<path d="M240.281 61.3762C267.794 61.3762 295.307 61.3911 322.819 61.3762C360.155 61.3561 397.431 60.3393 434.75 59.623" stroke="#FFE696" stroke-width="20" stroke-linecap="square"/>
<path d="M27.5547 208.665C45.1103 208.665 62.6662 208.632 80.2217 208.665C104.082 208.709 127.849 210.973 151.657 210.973" stroke="#F5B9FF" stroke-width="20" stroke-linecap="square"/>
<path d="M246.664 75.5547V47.5547H252.024L263.944 67.3147H261.104L272.824 47.5547H278.144L278.224 75.5547H272.144L272.104 56.8747H273.224L263.864 72.5947H260.944L251.384 56.8747H252.744V75.5547H246.664ZM295.107 75.8747C292.654 75.8747 290.494 75.3947 288.627 74.4347C286.787 73.4747 285.36 72.168 284.347 70.5147C283.334 68.8347 282.827 66.928 282.827 64.7947C282.827 62.6347 283.32 60.728 284.307 59.0747C285.32 57.3947 286.694 56.088 288.427 55.1547C290.16 54.1947 292.12 53.7147 294.307 53.7147C296.414 53.7147 298.307 54.168 299.987 55.0747C301.694 55.9547 303.04 57.2347 304.027 58.9147C305.014 60.568 305.507 62.5547 305.507 64.8747C305.507 65.1147 305.494 65.3947 305.467 65.7147C305.44 66.008 305.414 66.288 305.387 66.5547H287.907V62.9147H302.107L299.707 63.9947C299.707 62.8747 299.48 61.9014 299.027 61.0747C298.574 60.248 297.947 59.608 297.147 59.1547C296.347 58.6747 295.414 58.4347 294.347 58.4347C293.28 58.4347 292.334 58.6747 291.507 59.1547C290.707 59.608 290.08 60.2614 289.627 61.1147C289.174 61.9414 288.947 62.928 288.947 64.0747V65.0347C288.947 66.208 289.2 67.248 289.707 68.1547C290.24 69.0347 290.974 69.7147 291.907 70.1947C292.867 70.648 293.987 70.8747 295.267 70.8747C296.414 70.8747 297.414 70.7014 298.267 70.3547C299.147 70.008 299.947 69.488 300.667 68.7947L303.987 72.3947C303 73.5147 301.76 74.3814 300.267 74.9947C298.774 75.5814 297.054 75.8747 295.107 75.8747ZM318.901 75.8747C316.875 75.8747 315.048 75.4214 313.421 74.5147C311.795 73.5814 310.501 72.288 309.541 70.6347C308.608 68.9814 308.141 67.0347 308.141 64.7947C308.141 62.528 308.608 60.568 309.541 58.9147C310.501 57.2614 311.795 55.9814 313.421 55.0747C315.048 54.168 316.875 53.7147 318.901 53.7147C320.715 53.7147 322.301 54.1147 323.661 54.9147C325.021 55.7147 326.075 56.928 326.821 58.5547C327.568 60.1814 327.941 62.2614 327.941 64.7947C327.941 67.3014 327.581 69.3814 326.861 71.0347C326.141 72.6614 325.101 73.8747 323.741 74.6747C322.408 75.4747 320.795 75.8747 318.901 75.8747ZM319.981 70.7547C320.995 70.7547 321.915 70.5147 322.741 70.0347C323.568 69.5547 324.221 68.8747 324.701 67.9947C325.208 67.088 325.461 66.0214 325.461 64.7947C325.461 63.5414 325.208 62.4747 324.701 61.5947C324.221 60.7147 323.568 60.0347 322.741 59.5547C321.915 59.0747 320.995 58.8347 319.981 58.8347C318.941 58.8347 318.008 59.0747 317.181 59.5547C316.355 60.0347 315.688 60.7147 315.181 61.5947C314.701 62.4747 314.461 63.5414 314.461 64.7947C314.461 66.0214 314.701 67.088 315.181 67.9947C315.688 68.8747 316.355 69.5547 317.181 70.0347C318.008 70.5147 318.941 70.7547 319.981 70.7547ZM325.621 75.5547V71.1547L325.741 64.7547L325.341 58.3947V45.8747H331.581V75.5547H325.621ZM337.357 75.5547V54.0347H343.597V75.5547H337.357ZM340.477 51.0347C339.33 51.0347 338.397 50.7014 337.677 50.0347C336.957 49.368 336.597 48.5414 336.597 47.5547C336.597 46.568 336.957 45.7414 337.677 45.0747C338.397 44.408 339.33 44.0747 340.477 44.0747C341.623 44.0747 342.557 44.3947 343.277 45.0347C343.997 45.648 344.357 46.448 344.357 47.4347C344.357 48.4747 343.997 49.3414 343.277 50.0347C342.583 50.7014 341.65 51.0347 340.477 51.0347ZM358.468 75.8747C356.681 75.8747 355.081 75.528 353.668 74.8347C352.281 74.1414 351.201 73.088 350.428 71.6747C349.654 70.2347 349.268 68.408 349.268 66.1947V54.0347H355.508V65.2747C355.508 67.0614 355.881 68.3814 356.628 69.2347C357.401 70.0614 358.481 70.4747 359.868 70.4747C360.828 70.4747 361.681 70.2747 362.428 69.8747C363.174 69.448 363.761 68.808 364.188 67.9547C364.614 67.0747 364.828 65.9814 364.828 64.6747V54.0347H371.068V75.5547H365.148V69.6347L366.228 71.3547C365.508 72.848 364.441 73.9814 363.028 74.7547C361.641 75.5014 360.121 75.8747 358.468 75.8747ZM404.409 53.7147C406.115 53.7147 407.622 54.0614 408.929 54.7547C410.262 55.4214 411.302 56.4614 412.049 57.8747C412.822 59.2614 413.209 61.048 413.209 63.2347V75.5547H406.969V64.1947C406.969 62.4614 406.609 61.1814 405.889 60.3547C405.169 59.528 404.155 59.1147 402.849 59.1147C401.942 59.1147 401.129 59.328 400.409 59.7547C399.689 60.1547 399.129 60.768 398.729 61.5947C398.329 62.4214 398.129 63.4747 398.129 64.7547V75.5547H391.889V64.1947C391.889 62.4614 391.529 61.1814 390.809 60.3547C390.115 59.528 389.115 59.1147 387.809 59.1147C386.902 59.1147 386.089 59.328 385.369 59.7547C384.649 60.1547 384.089 60.768 383.689 61.5947C383.289 62.4214 383.089 63.4747 383.089 64.7547V75.5547H376.849V54.0347H382.809V59.9147L381.689 58.1947C382.435 56.728 383.489 55.6214 384.849 54.8747C386.235 54.1014 387.809 53.7147 389.569 53.7147C391.542 53.7147 393.262 54.2214 394.729 55.2347C396.222 56.2214 397.209 57.7414 397.689 59.7947L395.489 59.1947C396.209 57.5147 397.355 56.1814 398.929 55.1947C400.529 54.208 402.355 53.7147 404.409 53.7147Z" fill="#FFAE00"/>
<path d="M49.1433 202.149H62.6233V207.189H49.1433V202.149ZM49.6233 213.669H64.8633V218.869H43.1833V190.869H64.3433V196.069H49.6233V213.669ZM82.662 218.869V214.669L82.262 213.749V206.229C82.262 204.896 81.8487 203.856 81.022 203.109C80.222 202.362 78.982 201.989 77.302 201.989C76.1554 201.989 75.022 202.176 73.902 202.549C72.8087 202.896 71.8754 203.376 71.102 203.989L68.862 199.629C70.0354 198.802 71.4487 198.162 73.102 197.709C74.7554 197.256 76.4354 197.029 78.142 197.029C81.422 197.029 83.9687 197.802 85.782 199.349C87.5954 200.896 88.502 203.309 88.502 206.589V218.869H82.662ZM76.102 219.189C74.422 219.189 72.982 218.909 71.782 218.349C70.582 217.762 69.662 216.976 69.022 215.989C68.382 215.002 68.062 213.896 68.062 212.669C68.062 211.389 68.3687 210.269 68.982 209.309C69.622 208.349 70.622 207.602 71.982 207.069C73.342 206.509 75.1154 206.229 77.302 206.229H83.022V209.869H77.982C76.5154 209.869 75.502 210.109 74.942 210.589C74.4087 211.069 74.142 211.669 74.142 212.389C74.142 213.189 74.4487 213.829 75.062 214.309C75.702 214.762 76.5687 214.989 77.662 214.989C78.702 214.989 79.6354 214.749 80.462 214.269C81.2887 213.762 81.8887 213.029 82.262 212.069L83.222 214.949C82.7687 216.336 81.942 217.389 80.742 218.109C79.542 218.829 77.9954 219.189 76.102 219.189ZM101.39 219.189C99.5495 219.189 97.7762 218.976 96.0695 218.549C94.3895 218.096 93.0562 217.536 92.0695 216.869L94.1495 212.389C95.1362 213.002 96.2962 213.509 97.6295 213.909C98.9895 214.282 100.323 214.469 101.63 214.469C103.07 214.469 104.083 214.296 104.67 213.949C105.283 213.602 105.59 213.122 105.59 212.509C105.59 212.002 105.35 211.629 104.87 211.389C104.416 211.122 103.803 210.922 103.03 210.789C102.256 210.656 101.403 210.522 100.47 210.389C99.5629 210.256 98.6429 210.082 97.7095 209.869C96.7762 209.629 95.9229 209.282 95.1495 208.829C94.3762 208.376 93.7495 207.762 93.2695 206.989C92.8162 206.216 92.5895 205.216 92.5895 203.989C92.5895 202.629 92.9762 201.429 93.7495 200.389C94.5495 199.349 95.6962 198.536 97.1895 197.949C98.6829 197.336 100.47 197.029 102.55 197.029C104.016 197.029 105.51 197.189 107.03 197.509C108.55 197.829 109.816 198.296 110.83 198.909L108.75 203.349C107.71 202.736 106.656 202.322 105.59 202.109C104.55 201.869 103.536 201.749 102.55 201.749C101.163 201.749 100.15 201.936 99.5095 202.309C98.8695 202.682 98.5495 203.162 98.5495 203.749C98.5495 204.282 98.7762 204.682 99.2295 204.949C99.7095 205.216 100.336 205.429 101.11 205.589C101.883 205.749 102.723 205.896 103.63 206.029C104.563 206.136 105.496 206.309 106.43 206.549C107.363 206.789 108.203 207.136 108.95 207.589C109.723 208.016 110.35 208.616 110.83 209.389C111.31 210.136 111.55 211.122 111.55 212.349C111.55 213.682 111.15 214.869 110.35 215.909C109.55 216.922 108.39 217.722 106.87 218.309C105.376 218.896 103.55 219.189 101.39 219.189ZM117.729 226.949C116.609 226.949 115.502 226.776 114.409 226.429C113.316 226.082 112.422 225.602 111.729 224.989L114.009 220.549C114.489 220.976 115.036 221.309 115.649 221.549C116.289 221.789 116.916 221.909 117.529 221.909C118.409 221.909 119.102 221.696 119.609 221.269C120.142 220.869 120.622 220.189 121.049 219.229L122.169 216.589L122.649 215.909L130.369 197.349H136.369L126.649 220.189C125.956 221.922 125.156 223.282 124.249 224.269C123.369 225.256 122.382 225.949 121.289 226.349C120.222 226.749 119.036 226.949 117.729 226.949ZM121.409 219.709L111.809 197.349H118.249L125.689 215.349L121.409 219.709Z" fill="#E01FFF"/>
<path d="M506.727 204.82C549.815 204.08 592.893 204.051 636 204.051" stroke="#A2A5FF" stroke-width="20" stroke-linecap="square"/>
<path d="M538.903 190.869H545.383V218.869H538.903V190.869ZM526.183 218.869H519.703V190.869H526.183V218.869ZM539.383 207.389H525.703V201.909H539.383V207.389ZM564.768 218.869V214.669L564.368 213.749V206.229C564.368 204.896 563.954 203.856 563.128 203.109C562.328 202.362 561.088 201.989 559.408 201.989C558.261 201.989 557.128 202.176 556.008 202.549C554.914 202.896 553.981 203.376 553.208 203.989L550.968 199.629C552.141 198.802 553.554 198.162 555.208 197.709C556.861 197.256 558.541 197.029 560.248 197.029C563.528 197.029 566.074 197.802 567.888 199.349C569.701 200.896 570.608 203.309 570.608 206.589V218.869H564.768ZM558.208 219.189C556.528 219.189 555.088 218.909 553.888 218.349C552.688 217.762 551.768 216.976 551.128 215.989C550.488 215.002 550.168 213.896 550.168 212.669C550.168 211.389 550.474 210.269 551.088 209.309C551.728 208.349 552.728 207.602 554.088 207.069C555.448 206.509 557.221 206.229 559.408 206.229H565.128V209.869H560.088C558.621 209.869 557.608 210.109 557.048 210.589C556.514 211.069 556.248 211.669 556.248 212.389C556.248 213.189 556.554 213.829 557.168 214.309C557.808 214.762 558.674 214.989 559.768 214.989C560.808 214.989 561.741 214.749 562.568 214.269C563.394 213.762 563.994 213.029 564.368 212.069L565.328 214.949C564.874 216.336 564.048 217.389 562.848 218.109C561.648 218.829 560.101 219.189 558.208 219.189ZM576.255 218.869V197.349H582.215V203.429L581.375 201.669C582.015 200.149 583.042 199.002 584.455 198.229C585.868 197.429 587.588 197.029 589.615 197.029V202.789C589.348 202.762 589.108 202.749 588.895 202.749C588.682 202.722 588.455 202.709 588.215 202.709C586.508 202.709 585.122 203.202 584.055 204.189C583.015 205.149 582.495 206.656 582.495 208.709V218.869H576.255ZM602.409 219.189C600.382 219.189 598.556 218.736 596.929 217.829C595.302 216.896 594.009 215.602 593.049 213.949C592.116 212.296 591.649 210.349 591.649 208.109C591.649 205.842 592.116 203.882 593.049 202.229C594.009 200.576 595.302 199.296 596.929 198.389C598.556 197.482 600.382 197.029 602.409 197.029C604.222 197.029 605.809 197.429 607.169 198.229C608.529 199.029 609.582 200.242 610.329 201.869C611.076 203.496 611.449 205.576 611.449 208.109C611.449 210.616 611.089 212.696 610.369 214.349C609.649 215.976 608.609 217.189 607.249 217.989C605.916 218.789 604.302 219.189 602.409 219.189ZM603.489 214.069C604.502 214.069 605.422 213.829 606.249 213.349C607.076 212.869 607.729 212.189 608.209 211.309C608.716 210.402 608.969 209.336 608.969 208.109C608.969 206.856 608.716 205.789 608.209 204.909C607.729 204.029 607.076 203.349 606.249 202.869C605.422 202.389 604.502 202.149 603.489 202.149C602.449 202.149 601.516 202.389 600.689 202.869C599.862 203.349 599.196 204.029 598.689 204.909C598.209 205.789 597.969 206.856 597.969 208.109C597.969 209.336 598.209 210.402 598.689 211.309C599.196 212.189 599.862 212.869 600.689 213.349C601.516 213.829 602.449 214.069 603.489 214.069ZM609.129 218.869V214.469L609.249 208.069L608.849 201.709V189.189H615.089V218.869H609.129Z" fill="#020CFF"/>
<path d="M393.238 368.08V362.72H399.958V356H405.558V362.72H412.278V368.08H405.558V374.8H399.958V368.08H393.238Z" fill="black"/>
<path d="M115.766 372.887C116.042 373.71 124.674 370.195 124.874 370.13C132.436 367.661 140.332 365.753 148.216 363.947C155.737 362.224 163.762 360.184 171.713 360.005C173.937 359.955 175.008 360.244 174.865 361.989C174.533 366.02 172.133 369.91 170.241 373.634C169.979 374.151 167.951 377.039 168.579 377.833C169.226 378.651 174.166 376.198 174.415 376.081C182.482 372.293 188.918 366.998 196.717 362.981C197.965 362.338 199.228 361.635 199.228 363.213C199.228 365.331 198.266 367.501 198.64 369.615C199.523 374.607 214.321 369.106 217.012 368.327C222.486 366.742 227.935 365.112 233.393 363.496C233.574 363.442 240.191 361.102 240.371 362.169C240.689 364.062 238.857 366.549 237.981 368.198C236.64 370.723 234.761 373.371 234.172 376.081C233.894 377.359 235.554 376.642 236.388 376.391C241.62 374.812 246.774 373.098 251.869 371.289C258.446 368.955 264.97 366.515 271.713 364.449C274.844 363.49 276.744 362.96 279.903 362.272C281.123 362.007 284.127 361.174 285.6 361.551C287.082 361.93 287.002 364.776 287.124 365.57C287.427 367.546 287.269 370.387 289.271 371.946C290.401 372.826 292.143 372.637 293.6 372.487C297.168 372.12 300.48 371.176 303.764 370.104C305.716 369.468 328.01 360.866 328.266 361.216C328.806 361.951 327.669 364.405 327.539 365.132C327.365 366.108 326.45 368.936 327.92 369.679C329.75 370.605 333.408 369.456 335.193 368.945" stroke="#FDEC8E" stroke-width="5" stroke-linecap="round"/>
<path d="M112.875 373.15L114.775 369.825C115.508 370.425 116.358 370.917 117.325 371.3C118.292 371.667 119.233 371.85 120.15 371.85C120.7 371.85 121.158 371.783 121.525 371.65C121.908 371.517 122.2 371.342 122.4 371.125C122.6 370.908 122.7 370.667 122.7 370.4C122.7 370.167 122.608 369.925 122.425 369.675C122.258 369.425 121.942 369.167 121.475 368.9C121.025 368.633 120.358 368.358 119.475 368.075C118.108 367.625 117 367.117 116.15 366.55C115.317 365.967 114.708 365.333 114.325 364.65C113.942 363.967 113.75 363.25 113.75 362.5C113.75 361.583 113.992 360.742 114.475 359.975C114.975 359.208 115.708 358.6 116.675 358.15C117.642 357.683 118.833 357.45 120.25 357.45C121.383 357.45 122.508 357.633 123.625 358C124.758 358.35 125.708 358.792 126.475 359.325L124.7 362.5C124.017 362.017 123.267 361.625 122.45 361.325C121.633 361.008 120.792 360.85 119.925 360.85C119.225 360.85 118.692 360.983 118.325 361.25C117.958 361.517 117.775 361.825 117.775 362.175C117.775 362.425 117.867 362.667 118.05 362.9C118.25 363.133 118.575 363.367 119.025 363.6C119.492 363.833 120.117 364.083 120.9 364.35C122.317 364.817 123.458 365.342 124.325 365.925C125.192 366.492 125.825 367.125 126.225 367.825C126.625 368.508 126.825 369.275 126.825 370.125C126.825 371.042 126.567 371.892 126.05 372.675C125.533 373.458 124.75 374.092 123.7 374.575C122.65 375.058 121.325 375.3 119.725 375.3C118.942 375.3 118.158 375.208 117.375 375.025C116.592 374.858 115.825 374.617 115.075 374.3C114.325 373.983 113.592 373.6 112.875 373.15ZM128.317 364.75V361.875H130.567V358.975L134.317 358.475V361.875H137.792V364.75H134.317V369.975C134.317 370.692 134.459 371.192 134.742 371.475C135.026 371.758 135.442 371.9 135.992 371.9C136.226 371.9 136.476 371.875 136.742 371.825C137.026 371.758 137.309 371.675 137.592 371.575L137.992 374.8C137.576 374.95 137.126 375.067 136.642 375.15C136.159 375.25 135.676 375.3 135.192 375.3C134.242 375.3 133.417 375.125 132.717 374.775C132.034 374.408 131.501 373.867 131.117 373.15C130.751 372.433 130.567 371.533 130.567 370.45V364.75H128.317ZM140.483 370.025V361.875H144.233V369.45C144.233 370.267 144.425 370.875 144.808 371.275C145.208 371.658 145.733 371.85 146.383 371.85C146.817 371.85 147.233 371.767 147.633 371.6C148.05 371.417 148.442 371.167 148.808 370.85V361.875H152.558V371.875C152.558 372.225 152.567 372.542 152.583 372.825C152.617 373.092 152.667 373.408 152.733 373.775L152.933 375H149.283L148.958 373.225C148.458 373.842 147.883 374.342 147.233 374.725C146.583 375.108 145.842 375.3 145.008 375.3C144.242 375.3 143.508 375.108 142.808 374.725C142.125 374.325 141.567 373.733 141.133 372.95C140.7 372.167 140.483 371.192 140.483 370.025ZM155.382 368.4C155.382 366.917 155.623 365.675 156.107 364.675C156.59 363.658 157.248 362.892 158.082 362.375C158.915 361.842 159.857 361.575 160.907 361.575C161.54 361.575 162.123 361.708 162.657 361.975C163.207 362.242 163.673 362.617 164.057 363.1V357.125L167.807 356.625V371.875C167.807 372.225 167.815 372.542 167.832 372.825C167.865 373.092 167.915 373.408 167.982 373.775L168.182 375H164.532L164.207 373.225C163.723 373.842 163.157 374.342 162.507 374.725C161.857 375.108 161.123 375.3 160.307 375.3C159.423 375.3 158.607 375.017 157.857 374.45C157.107 373.883 156.507 373.083 156.057 372.05C155.607 371.017 155.382 369.8 155.382 368.4ZM159.132 368.2C159.132 369.033 159.232 369.725 159.432 370.275C159.632 370.825 159.915 371.233 160.282 371.5C160.648 371.767 161.073 371.9 161.557 371.9C161.99 371.9 162.423 371.808 162.857 371.625C163.29 371.442 163.69 371.183 164.057 370.85V366.95C164.007 366.4 163.89 365.95 163.707 365.6C163.523 365.233 163.273 364.967 162.957 364.8C162.657 364.617 162.307 364.525 161.907 364.525C161.107 364.525 160.44 364.842 159.907 365.475C159.39 366.108 159.132 367.017 159.132 368.2ZM170.64 368.7C170.64 367.267 170.915 366.017 171.465 364.95C172.015 363.883 172.774 363.058 173.74 362.475C174.707 361.875 175.815 361.575 177.065 361.575C178.265 361.575 179.299 361.842 180.165 362.375C181.049 362.908 181.724 363.667 182.19 364.65C182.674 365.617 182.915 366.783 182.915 368.15C182.915 368.433 182.899 368.7 182.865 368.95C182.849 369.2 182.824 369.4 182.79 369.55H173.315V367.175H180.09L179.315 368.2C179.315 366.917 179.107 365.983 178.69 365.4C178.29 364.8 177.724 364.5 176.99 364.5C176.474 364.5 176.007 364.633 175.59 364.9C175.19 365.167 174.874 365.592 174.64 366.175C174.407 366.758 174.29 367.517 174.29 368.45C174.29 369.333 174.449 370.058 174.765 370.625C175.082 371.175 175.515 371.583 176.065 371.85C176.632 372.117 177.29 372.25 178.04 372.25C178.54 372.25 179.057 372.183 179.59 372.05C180.14 371.9 180.624 371.717 181.04 371.5L182.065 374.3C181.465 374.567 180.79 374.8 180.04 375C179.307 375.2 178.499 375.3 177.615 375.3C176.149 375.3 174.89 375.025 173.84 374.475C172.807 373.925 172.015 373.158 171.465 372.175C170.915 371.175 170.64 370.017 170.64 368.7ZM185.302 361.875H188.952L189.277 363.65C189.793 363.017 190.385 362.517 191.052 362.15C191.718 361.767 192.468 361.575 193.302 361.575C194.085 361.575 194.827 361.775 195.527 362.175C196.227 362.558 196.793 363.142 197.227 363.925C197.677 364.692 197.902 365.667 197.902 366.85V375H194.152V367.425C194.152 366.875 194.052 366.425 193.852 366.075C193.668 365.708 193.41 365.442 193.077 365.275C192.743 365.108 192.36 365.025 191.927 365.025C191.51 365.025 191.077 365.108 190.627 365.275C190.193 365.442 189.793 365.692 189.427 366.025V375H185.677V365C185.677 364.65 185.66 364.342 185.627 364.075C185.61 363.792 185.568 363.467 185.502 363.1L185.302 361.875ZM200.021 364.75V361.875H202.271V358.975L206.021 358.475V361.875H209.496V364.75H206.021V369.975C206.021 370.692 206.163 371.192 206.446 371.475C206.73 371.758 207.146 371.9 207.696 371.9C207.93 371.9 208.18 371.875 208.446 371.825C208.73 371.758 209.013 371.675 209.296 371.575L209.696 374.8C209.28 374.95 208.83 375.067 208.346 375.15C207.863 375.25 207.38 375.3 206.896 375.3C205.946 375.3 205.121 375.125 204.421 374.775C203.738 374.408 203.205 373.867 202.821 373.15C202.455 372.433 202.271 371.533 202.271 370.45V364.75H200.021ZM218.813 375V357.75H225.363C226.579 357.75 227.671 357.983 228.638 358.45C229.604 358.9 230.371 359.558 230.938 360.425C231.504 361.275 231.788 362.3 231.788 363.5C231.788 364.683 231.479 365.692 230.863 366.525C230.263 367.358 229.463 367.992 228.463 368.425L232.288 375H227.863L224.738 369H222.813V375H218.813ZM222.813 365.75H224.988C225.804 365.75 226.463 365.567 226.963 365.2C227.463 364.833 227.713 364.267 227.713 363.5C227.713 362.733 227.463 362.167 226.963 361.8C226.463 361.433 225.804 361.25 224.988 361.25H222.813V365.75ZM234.117 368.7C234.117 367.267 234.392 366.017 234.942 364.95C235.492 363.883 236.25 363.058 237.217 362.475C238.184 361.875 239.292 361.575 240.542 361.575C241.742 361.575 242.775 361.842 243.642 362.375C244.525 362.908 245.2 363.667 245.667 364.65C246.15 365.617 246.392 366.783 246.392 368.15C246.392 368.433 246.375 368.7 246.342 368.95C246.325 369.2 246.3 369.4 246.267 369.55H236.792V367.175H243.567L242.792 368.2C242.792 366.917 242.584 365.983 242.167 365.4C241.767 364.8 241.2 364.5 240.467 364.5C239.95 364.5 239.484 364.633 239.067 364.9C238.667 365.167 238.35 365.592 238.117 366.175C237.884 366.758 237.767 367.517 237.767 368.45C237.767 369.333 237.925 370.058 238.242 370.625C238.559 371.175 238.992 371.583 239.542 371.85C240.109 372.117 240.767 372.25 241.517 372.25C242.017 372.25 242.534 372.183 243.067 372.05C243.617 371.9 244.1 371.717 244.517 371.5L245.542 374.3C244.942 374.567 244.267 374.8 243.517 375C242.784 375.2 241.975 375.3 241.092 375.3C239.625 375.3 238.367 375.025 237.317 374.475C236.284 373.925 235.492 373.158 234.942 372.175C234.392 371.175 234.117 370.017 234.117 368.7ZM247.653 364.75V361.875H249.903V358.975L253.653 358.475V361.875H257.128V364.75H253.653V369.975C253.653 370.692 253.795 371.192 254.078 371.475C254.362 371.758 254.778 371.9 255.328 371.9C255.562 371.9 255.812 371.875 256.078 371.825C256.362 371.758 256.645 371.675 256.928 371.575L257.328 374.8C256.912 374.95 256.462 375.067 255.978 375.15C255.495 375.25 255.012 375.3 254.528 375.3C253.578 375.3 252.753 375.125 252.053 374.775C251.37 374.408 250.837 373.867 250.453 373.15C250.087 372.433 249.903 371.533 249.903 370.45V364.75H247.653ZM259.019 368.7C259.019 367.267 259.294 366.017 259.844 364.95C260.394 363.883 261.153 363.058 262.119 362.475C263.086 361.875 264.194 361.575 265.444 361.575C266.644 361.575 267.678 361.842 268.544 362.375C269.428 362.908 270.103 363.667 270.569 364.65C271.053 365.617 271.294 366.783 271.294 368.15C271.294 368.433 271.278 368.7 271.244 368.95C271.228 369.2 271.203 369.4 271.169 369.55H261.694V367.175H268.469L267.694 368.2C267.694 366.917 267.486 365.983 267.069 365.4C266.669 364.8 266.103 364.5 265.369 364.5C264.853 364.5 264.386 364.633 263.969 364.9C263.569 365.167 263.253 365.592 263.019 366.175C262.786 366.758 262.669 367.517 262.669 368.45C262.669 369.333 262.828 370.058 263.144 370.625C263.461 371.175 263.894 371.583 264.444 371.85C265.011 372.117 265.669 372.25 266.419 372.25C266.919 372.25 267.436 372.183 267.969 372.05C268.519 371.9 269.003 371.717 269.419 371.5L270.444 374.3C269.844 374.567 269.169 374.8 268.419 375C267.686 375.2 266.878 375.3 265.994 375.3C264.528 375.3 263.269 375.025 262.219 374.475C261.186 373.925 260.394 373.158 259.844 372.175C259.294 371.175 259.019 370.017 259.019 368.7ZM273.681 361.875H277.331L277.656 363.65C278.172 363.017 278.764 362.517 279.431 362.15C280.097 361.767 280.847 361.575 281.681 361.575C282.464 361.575 283.206 361.775 283.906 362.175C284.606 362.558 285.172 363.142 285.606 363.925C286.056 364.692 286.281 365.667 286.281 366.85V375H282.531V367.425C282.531 366.875 282.431 366.425 282.231 366.075C282.047 365.708 281.789 365.442 281.456 365.275C281.122 365.108 280.739 365.025 280.306 365.025C279.889 365.025 279.456 365.108 279.006 365.275C278.572 365.442 278.172 365.692 277.806 366.025V375H274.056V365C274.056 364.65 274.039 364.342 274.006 364.075C273.989 363.792 273.947 363.467 273.881 363.1L273.681 361.875ZM288.4 364.75V361.875H290.65V358.975L294.4 358.475V361.875H297.875V364.75H294.4V369.975C294.4 370.692 294.542 371.192 294.825 371.475C295.109 371.758 295.525 371.9 296.075 371.9C296.309 371.9 296.559 371.875 296.825 371.825C297.109 371.758 297.392 371.675 297.675 371.575L298.075 374.8C297.659 374.95 297.209 375.067 296.725 375.15C296.242 375.25 295.759 375.3 295.275 375.3C294.325 375.3 293.5 375.125 292.8 374.775C292.117 374.408 291.584 373.867 291.2 373.15C290.834 372.433 290.65 371.533 290.65 370.45V364.75H288.4ZM300.691 375V361.875H304.441V375H300.691ZM300.416 358.1C300.416 357.517 300.616 357.017 301.016 356.6C301.416 356.167 301.933 355.95 302.566 355.95C303.2 355.95 303.716 356.167 304.116 356.6C304.516 357.017 304.716 357.517 304.716 358.1C304.716 358.683 304.516 359.192 304.116 359.625C303.716 360.042 303.2 360.25 302.566 360.25C301.933 360.25 301.416 360.042 301.016 359.625C300.616 359.192 300.416 358.683 300.416 358.1ZM307.262 368.45C307.262 367.033 307.537 365.817 308.087 364.8C308.637 363.767 309.395 362.975 310.362 362.425C311.345 361.858 312.462 361.575 313.712 361.575C314.978 361.575 316.095 361.858 317.062 362.425C318.028 362.975 318.787 363.767 319.337 364.8C319.887 365.817 320.162 367.033 320.162 368.45C320.162 369.85 319.887 371.067 319.337 372.1C318.787 373.117 318.028 373.908 317.062 374.475C316.095 375.025 314.978 375.3 313.712 375.3C312.462 375.3 311.345 375.025 310.362 374.475C309.395 373.908 308.637 373.117 308.087 372.1C307.537 371.067 307.262 369.85 307.262 368.45ZM311.062 368.45C311.062 369.333 311.17 370.058 311.387 370.625C311.603 371.192 311.912 371.608 312.312 371.875C312.712 372.142 313.178 372.275 313.712 372.275C314.245 372.275 314.712 372.142 315.112 371.875C315.512 371.608 315.82 371.192 316.037 370.625C316.253 370.058 316.362 369.333 316.362 368.45C316.362 367.567 316.253 366.842 316.037 366.275C315.82 365.708 315.512 365.292 315.112 365.025C314.712 364.742 314.245 364.6 313.712 364.6C313.178 364.6 312.712 364.742 312.312 365.025C311.912 365.292 311.603 365.708 311.387 366.275C311.17 366.842 311.062 367.567 311.062 368.45ZM322.606 361.875H326.256L326.581 363.65C327.098 363.017 327.69 362.517 328.356 362.15C329.023 361.767 329.773 361.575 330.606 361.575C331.39 361.575 332.131 361.775 332.831 362.175C333.531 362.558 334.098 363.142 334.531 363.925C334.981 364.692 335.206 365.667 335.206 366.85V375H331.456V367.425C331.456 366.875 331.356 366.425 331.156 366.075C330.973 365.708 330.715 365.442 330.381 365.275C330.048 365.108 329.665 365.025 329.231 365.025C328.815 365.025 328.381 365.108 327.931 365.275C327.498 365.442 327.098 365.692 326.731 366.025V375H322.981V365C322.981 364.65 322.965 364.342 322.931 364.075C322.915 363.792 322.873 363.467 322.806 363.1L322.606 361.875Z" fill="black"/>
<path d="M344.613 384.194C345.125 380.288 346.92 376.49 348.177 372.803C350.506 365.974 353.117 359.257 355.253 352.363" stroke="#AEF2A3" stroke-width="7" stroke-linecap="round"/>
<path d="M438.843 366.831C441.853 365.617 446.504 364.502 450.69 363.621C450.932 363.57 456.919 362.491 456.922 362.716C456.927 363.023 456.18 363.307 455.744 363.596C453.78 364.897 451.77 366.194 449.733 367.487C447.235 369.073 444.299 370.64 442.059 372.253C440.705 373.229 446.97 371.421 447.43 371.302C452.701 369.938 458.025 368.598 463.946 367.459C466.049 367.054 472.234 365.65 475.243 365.841C476.383 365.914 473.507 367.668 473.461 367.702C472.535 368.382 471.374 369.209 470.361 369.879C469.425 370.498 465.708 372.121 467.741 371.753C470.897 371.182 473.153 370.288 475.784 369.535C481.175 367.992 486.477 366.399 492.356 364.997C493.97 364.612 497.634 363.642 500.059 363.6C502.361 363.561 495.355 370.663 494.789 371.156C494.391 371.503 490.809 373.688 491.92 374.091C492.193 374.19 499.481 372.142 499.57 372.119C505.326 370.605 511.271 369.117 517.602 367.795C522.25 366.825 528.164 365.568 534.051 365.353C538.602 365.186 535.303 371.169 534.901 371.926C534.854 372.015 533.625 373.232 535.03 373.208C537.777 373.161 541.786 372.079 543.835 371.657C546.531 371.102 569.468 365.644 571.832 366.697C573.489 367.435 572.685 368.915 572.584 369.729C572.425 371.015 570.959 372.614 571.742 373.876C572.072 374.408 576.961 373.296 577.36 373.209C583.013 371.979 588.182 370.591 594.009 369.419C597.742 368.668 602.651 367.607 607.354 367.466C610.655 367.366 611.202 368.447 611.594 369.125C612.015 369.853 611.399 370.914 614.098 371.243" stroke="#FCD718" stroke-opacity="0.49" stroke-width="7" stroke-linecap="round"/>
<path d="M350.507 351.713C352.15 350.123 353.797 348.482 355.373 346.82C356.249 345.895 357.077 344.864 358.049 344.041C358.612 343.565 358.466 344.66 358.477 344.945C358.612 348.219 358.717 351.528 359.249 354.764C359.388 355.612 359.508 357.857 360.662 358.017" stroke="#AEF2A3" stroke-width="7" stroke-linecap="round"/>
<path d="M346.473 384.194C347.042 379.849 348.965 375.615 350.319 371.509C352.826 363.903 355.632 356.419 357.937 348.743" stroke="#009006" stroke-width="7" stroke-linecap="round"/>
<path d="M352.367 351.713C354.01 350.123 355.656 348.482 357.232 346.82C358.108 345.895 358.936 344.864 359.909 344.041C360.472 343.565 360.325 344.66 360.337 344.945C360.472 348.219 360.577 351.528 361.108 354.764C361.247 355.612 361.367 357.857 362.521 358.017" stroke="#009006" stroke-width="7" stroke-linecap="round"/>
<path d="M440.602 373.15L442.502 369.825C443.235 370.425 444.085 370.917 445.052 371.3C446.018 371.667 446.96 371.85 447.877 371.85C448.427 371.85 448.885 371.783 449.252 371.65C449.635 371.517 449.927 371.342 450.127 371.125C450.327 370.908 450.427 370.667 450.427 370.4C450.427 370.167 450.335 369.925 450.152 369.675C449.985 369.425 449.668 369.167 449.202 368.9C448.752 368.633 448.085 368.358 447.202 368.075C445.835 367.625 444.727 367.117 443.877 366.55C443.043 365.967 442.435 365.333 442.052 364.65C441.668 363.967 441.477 363.25 441.477 362.5C441.477 361.583 441.718 360.742 442.202 359.975C442.702 359.208 443.435 358.6 444.402 358.15C445.368 357.683 446.56 357.45 447.977 357.45C449.11 357.45 450.235 357.633 451.352 358C452.485 358.35 453.435 358.792 454.202 359.325L452.427 362.5C451.743 362.017 450.993 361.625 450.177 361.325C449.36 361.008 448.518 360.85 447.652 360.85C446.952 360.85 446.418 360.983 446.052 361.25C445.685 361.517 445.502 361.825 445.502 362.175C445.502 362.425 445.593 362.667 445.777 362.9C445.977 363.133 446.302 363.367 446.752 363.6C447.218 363.833 447.843 364.083 448.627 364.35C450.043 364.817 451.185 365.342 452.052 365.925C452.918 366.492 453.552 367.125 453.952 367.825C454.352 368.508 454.552 369.275 454.552 370.125C454.552 371.042 454.293 371.892 453.777 372.675C453.26 373.458 452.477 374.092 451.427 374.575C450.377 375.058 449.052 375.3 447.452 375.3C446.668 375.3 445.885 375.208 445.102 375.025C444.318 374.858 443.552 374.617 442.802 374.3C442.052 373.983 441.318 373.6 440.602 373.15ZM456.044 364.75V361.875H458.294V358.975L462.044 358.475V361.875H465.519V364.75H462.044V369.975C462.044 370.692 462.186 371.192 462.469 371.475C462.752 371.758 463.169 371.9 463.719 371.9C463.952 371.9 464.202 371.875 464.469 371.825C464.752 371.758 465.036 371.675 465.319 371.575L465.719 374.8C465.302 374.95 464.852 375.067 464.369 375.15C463.886 375.25 463.402 375.3 462.919 375.3C461.969 375.3 461.144 375.125 460.444 374.775C459.761 374.408 459.227 373.867 458.844 373.15C458.477 372.433 458.294 371.533 458.294 370.45V364.75H456.044ZM468.21 370.025V361.875H471.96V369.45C471.96 370.267 472.152 370.875 472.535 371.275C472.935 371.658 473.46 371.85 474.11 371.85C474.543 371.85 474.96 371.767 475.36 371.6C475.777 371.417 476.168 371.167 476.535 370.85V361.875H480.285V371.875C480.285 372.225 480.293 372.542 480.31 372.825C480.343 373.092 480.393 373.408 480.46 373.775L480.66 375H477.01L476.685 373.225C476.185 373.842 475.61 374.342 474.96 374.725C474.31 375.108 473.568 375.3 472.735 375.3C471.968 375.3 471.235 375.108 470.535 374.725C469.852 374.325 469.293 373.733 468.86 372.95C468.427 372.167 468.21 371.192 468.21 370.025ZM483.108 368.4C483.108 366.917 483.35 365.675 483.833 364.675C484.317 363.658 484.975 362.892 485.808 362.375C486.642 361.842 487.583 361.575 488.633 361.575C489.267 361.575 489.85 361.708 490.383 361.975C490.933 362.242 491.4 362.617 491.783 363.1V357.125L495.533 356.625V371.875C495.533 372.225 495.542 372.542 495.558 372.825C495.592 373.092 495.642 373.408 495.708 373.775L495.908 375H492.258L491.933 373.225C491.45 373.842 490.883 374.342 490.233 374.725C489.583 375.108 488.85 375.3 488.033 375.3C487.15 375.3 486.333 375.017 485.583 374.45C484.833 373.883 484.233 373.083 483.783 372.05C483.333 371.017 483.108 369.8 483.108 368.4ZM486.858 368.2C486.858 369.033 486.958 369.725 487.158 370.275C487.358 370.825 487.642 371.233 488.008 371.5C488.375 371.767 488.8 371.9 489.283 371.9C489.717 371.9 490.15 371.808 490.583 371.625C491.017 371.442 491.417 371.183 491.783 370.85V366.95C491.733 366.4 491.617 365.95 491.433 365.6C491.25 365.233 491 364.967 490.683 364.8C490.383 364.617 490.033 364.525 489.633 364.525C488.833 364.525 488.167 364.842 487.633 365.475C487.117 366.108 486.858 367.017 486.858 368.2ZM498.367 368.7C498.367 367.267 498.642 366.017 499.192 364.95C499.742 363.883 500.5 363.058 501.467 362.475C502.434 361.875 503.542 361.575 504.792 361.575C505.992 361.575 507.025 361.842 507.892 362.375C508.775 362.908 509.45 363.667 509.917 364.65C510.4 365.617 510.642 366.783 510.642 368.15C510.642 368.433 510.625 368.7 510.592 368.95C510.575 369.2 510.55 369.4 510.517 369.55H501.042V367.175H507.817L507.042 368.2C507.042 366.917 506.834 365.983 506.417 365.4C506.017 364.8 505.45 364.5 504.717 364.5C504.2 364.5 503.734 364.633 503.317 364.9C502.917 365.167 502.6 365.592 502.367 366.175C502.134 366.758 502.017 367.517 502.017 368.45C502.017 369.333 502.175 370.058 502.492 370.625C502.809 371.175 503.242 371.583 503.792 371.85C504.359 372.117 505.017 372.25 505.767 372.25C506.267 372.25 506.784 372.183 507.317 372.05C507.867 371.9 508.35 371.717 508.767 371.5L509.792 374.3C509.192 374.567 508.517 374.8 507.767 375C507.034 375.2 506.225 375.3 505.342 375.3C503.875 375.3 502.617 375.025 501.567 374.475C500.534 373.925 499.742 373.158 499.192 372.175C498.642 371.175 498.367 370.017 498.367 368.7ZM513.028 361.875H516.678L517.003 363.65C517.52 363.017 518.112 362.517 518.778 362.15C519.445 361.767 520.195 361.575 521.028 361.575C521.812 361.575 522.553 361.775 523.253 362.175C523.953 362.558 524.52 363.142 524.953 363.925C525.403 364.692 525.628 365.667 525.628 366.85V375H521.878V367.425C521.878 366.875 521.778 366.425 521.578 366.075C521.395 365.708 521.137 365.442 520.803 365.275C520.47 365.108 520.087 365.025 519.653 365.025C519.237 365.025 518.803 365.108 518.353 365.275C517.92 365.442 517.52 365.692 517.153 366.025V375H513.403V365C513.403 364.65 513.387 364.342 513.353 364.075C513.337 363.792 513.295 363.467 513.228 363.1L513.028 361.875ZM527.748 364.75V361.875H529.998V358.975L533.748 358.475V361.875H537.223V364.75H533.748V369.975C533.748 370.692 533.89 371.192 534.173 371.475C534.456 371.758 534.873 371.9 535.423 371.9C535.656 371.9 535.906 371.875 536.173 371.825C536.456 371.758 536.74 371.675 537.023 371.575L537.423 374.8C537.006 374.95 536.556 375.067 536.073 375.15C535.59 375.25 535.106 375.3 534.623 375.3C533.673 375.3 532.848 375.125 532.148 374.775C531.465 374.408 530.931 373.867 530.548 373.15C530.181 372.433 529.998 371.533 529.998 370.45V364.75H527.748ZM545.289 373.15L547.189 369.825C547.922 370.425 548.772 370.917 549.739 371.3C550.706 371.667 551.647 371.85 552.564 371.85C553.114 371.85 553.572 371.783 553.939 371.65C554.322 371.517 554.614 371.342 554.814 371.125C555.014 370.908 555.114 370.667 555.114 370.4C555.114 370.167 555.022 369.925 554.839 369.675C554.672 369.425 554.356 369.167 553.889 368.9C553.439 368.633 552.772 368.358 551.889 368.075C550.522 367.625 549.414 367.117 548.564 366.55C547.731 365.967 547.122 365.333 546.739 364.65C546.356 363.967 546.164 363.25 546.164 362.5C546.164 361.583 546.406 360.742 546.889 359.975C547.389 359.208 548.122 358.6 549.089 358.15C550.056 357.683 551.247 357.45 552.664 357.45C553.797 357.45 554.922 357.633 556.039 358C557.172 358.35 558.122 358.792 558.889 359.325L557.114 362.5C556.431 362.017 555.681 361.625 554.864 361.325C554.047 361.008 553.206 360.85 552.339 360.85C551.639 360.85 551.106 360.983 550.739 361.25C550.372 361.517 550.189 361.825 550.189 362.175C550.189 362.425 550.281 362.667 550.464 362.9C550.664 363.133 550.989 363.367 551.439 363.6C551.906 363.833 552.531 364.083 553.314 364.35C554.731 364.817 555.872 365.342 556.739 365.925C557.606 366.492 558.239 367.125 558.639 367.825C559.039 368.508 559.239 369.275 559.239 370.125C559.239 371.042 558.981 371.892 558.464 372.675C557.947 373.458 557.164 374.092 556.114 374.575C555.064 375.058 553.739 375.3 552.139 375.3C551.356 375.3 550.572 375.208 549.789 375.025C549.006 374.858 548.239 374.617 547.489 374.3C546.739 373.983 546.006 373.6 545.289 373.15ZM560.731 364.75V361.875H562.981V358.975L566.731 358.475V361.875H570.206V364.75H566.731V369.975C566.731 370.692 566.873 371.192 567.156 371.475C567.44 371.758 567.856 371.9 568.406 371.9C568.64 371.9 568.89 371.875 569.156 371.825C569.44 371.758 569.723 371.675 570.006 371.575L570.406 374.8C569.99 374.95 569.54 375.067 569.056 375.15C568.573 375.25 568.09 375.3 567.606 375.3C566.656 375.3 565.831 375.125 565.131 374.775C564.448 374.408 563.915 373.867 563.531 373.15C563.165 372.433 562.981 371.533 562.981 370.45V364.75H560.731ZM572.647 361.875H576.297L576.672 364C577.189 363.233 577.806 362.642 578.522 362.225C579.239 361.792 580.006 361.575 580.822 361.575V365.275C579.939 365.275 579.189 365.367 578.572 365.55C577.956 365.717 577.356 366.025 576.772 366.475V375H573.022V365C573.022 364.65 573.006 364.342 572.972 364.075C572.956 363.792 572.914 363.467 572.847 363.1L572.647 361.875ZM582.327 368.7C582.327 367.267 582.602 366.017 583.152 364.95C583.702 363.883 584.46 363.058 585.427 362.475C586.394 361.875 587.502 361.575 588.752 361.575C589.952 361.575 590.985 361.842 591.852 362.375C592.735 362.908 593.41 363.667 593.877 364.65C594.36 365.617 594.602 366.783 594.602 368.15C594.602 368.433 594.585 368.7 594.552 368.95C594.535 369.2 594.51 369.4 594.477 369.55H585.002V367.175H591.777L591.002 368.2C591.002 366.917 590.794 365.983 590.377 365.4C589.977 364.8 589.41 364.5 588.677 364.5C588.16 364.5 587.694 364.633 587.277 364.9C586.877 365.167 586.56 365.592 586.327 366.175C586.094 366.758 585.977 367.517 585.977 368.45C585.977 369.333 586.135 370.058 586.452 370.625C586.769 371.175 587.202 371.583 587.752 371.85C588.319 372.117 588.977 372.25 589.727 372.25C590.227 372.25 590.744 372.183 591.277 372.05C591.827 371.9 592.31 371.717 592.727 371.5L593.752 374.3C593.152 374.567 592.477 374.8 591.727 375C590.994 375.2 590.185 375.3 589.302 375.3C587.835 375.3 586.577 375.025 585.527 374.475C584.494 373.925 583.702 373.158 583.152 372.175C582.602 371.175 582.327 370.017 582.327 368.7ZM596.113 374.125L597.388 371.15C597.922 371.467 598.53 371.742 599.213 371.975C599.897 372.192 600.572 372.3 601.238 372.3C601.872 372.3 602.305 372.217 602.538 372.05C602.772 371.867 602.888 371.65 602.888 371.4C602.888 371.233 602.83 371.083 602.713 370.95C602.613 370.817 602.438 370.692 602.188 370.575C601.955 370.458 601.638 370.333 601.238 370.2C599.538 369.617 598.347 368.975 597.663 368.275C596.98 367.558 596.638 366.7 596.638 365.7C596.638 364.933 596.847 364.242 597.263 363.625C597.68 362.992 598.288 362.492 599.088 362.125C599.888 361.758 600.855 361.575 601.988 361.575C602.805 361.575 603.597 361.675 604.363 361.875C605.147 362.075 605.847 362.325 606.463 362.625L605.238 365.5C604.738 365.25 604.172 365.033 603.538 364.85C602.905 364.667 602.322 364.575 601.788 364.575C601.288 364.575 600.913 364.65 600.663 364.8C600.413 364.95 600.288 365.15 600.288 365.4C600.288 365.567 600.338 365.717 600.438 365.85C600.555 365.983 600.747 366.117 601.013 366.25C601.28 366.383 601.655 366.533 602.138 366.7C603.255 367.083 604.155 367.492 604.838 367.925C605.522 368.342 606.013 368.817 606.313 369.35C606.63 369.867 606.788 370.475 606.788 371.175C606.788 371.992 606.547 372.708 606.063 373.325C605.597 373.942 604.93 374.425 604.063 374.775C603.213 375.125 602.205 375.3 601.038 375.3C600.072 375.3 599.163 375.192 598.313 374.975C597.48 374.742 596.747 374.458 596.113 374.125ZM608.247 374.125L609.522 371.15C610.055 371.467 610.664 371.742 611.347 371.975C612.03 372.192 612.705 372.3 613.372 372.3C614.005 372.3 614.439 372.217 614.672 372.05C614.905 371.867 615.022 371.65 615.022 371.4C615.022 371.233 614.964 371.083 614.847 370.95C614.747 370.817 614.572 370.692 614.322 370.575C614.089 370.458 613.772 370.333 613.372 370.2C611.672 369.617 610.48 368.975 609.797 368.275C609.114 367.558 608.772 366.7 608.772 365.7C608.772 364.933 608.98 364.242 609.397 363.625C609.814 362.992 610.422 362.492 611.222 362.125C612.022 361.758 612.989 361.575 614.122 361.575C614.939 361.575 615.73 361.675 616.497 361.875C617.28 362.075 617.98 362.325 618.597 362.625L617.372 365.5C616.872 365.25 616.305 365.033 615.672 364.85C615.039 364.667 614.455 364.575 613.922 364.575C613.422 364.575 613.047 364.65 612.797 364.8C612.547 364.95 612.422 365.15 612.422 365.4C612.422 365.567 612.472 365.717 612.572 365.85C612.689 365.983 612.88 366.117 613.147 366.25C613.414 366.383 613.789 366.533 614.272 366.7C615.389 367.083 616.289 367.492 616.972 367.925C617.655 368.342 618.147 368.817 618.447 369.35C618.764 369.867 618.922 370.475 618.922 371.175C618.922 371.992 618.68 372.708 618.197 373.325C617.73 373.942 617.064 374.425 616.197 374.775C615.347 375.125 614.339 375.3 613.172 375.3C612.205 375.3 611.297 375.192 610.447 374.975C609.614 374.742 608.88 374.458 608.247 374.125Z" fill="black"/>
<path d="M628.027 351C628.431 353.17 628.683 355.37 629.064 357.545C629.706 361.213 630.398 364.832 630.842 368.535C631.095 370.636 631.404 372.727 631.699 374.821C631.858 375.945 631.902 377.167 632.257 378.247" stroke="#FF9E9E" stroke-width="7" stroke-linecap="round"/>
<path d="M628.747 377.893C628.906 379.196 630.722 380.196 631.644 381.21C631.821 381.404 633.093 379.776 633.153 379.704C634.485 378.087 635.695 376.417 636.916 374.755" stroke="#FF9E9E" stroke-width="5" stroke-linecap="round"/>
<path d="M625.93 351.441C626.334 353.612 626.585 355.811 626.966 357.987C627.608 361.654 628.3 365.273 628.745 368.976C628.997 371.077 629.306 373.168 629.602 375.262C629.76 376.386 629.804 377.608 630.159 378.688" stroke="#C70000" stroke-width="7" stroke-linecap="round"/>
<path d="M625.809 378.334C625.969 379.638 627.785 380.638 628.707 381.652C628.883 381.846 630.156 380.217 630.215 380.145C631.548 378.529 632.757 376.859 633.979 375.196" stroke="#C70000" stroke-width="5" stroke-linecap="round"/>
<path d="M155.481 272C155.481 272 115.441 273.043 81.7771 291.191C35.7196 316.02 -4.09762 360.656 34.6759 366.495C52.5916 369.193 81.7775 366.495 81.7775 366.495" stroke="#AEF2A3" stroke-width="6"/>
<path d="M75.0391 358.125L85.8852 366.958L75.0391 375.792" stroke="#AEF2A3" stroke-width="6"/>
<path d="M160 274.209C160 274.209 119.96 275.252 86.2966 293.4C40.2391 318.229 0.421912 362.865 39.1954 368.704C57.1111 371.402 86.2971 368.704 86.2971 368.704" stroke="#2BB514" stroke-width="6"/>
<path d="M79.5586 360.334L90.4047 369.167L79.5586 378.001" stroke="#2BB514" stroke-width="6"/>
</svg>
