<svg width="134" height="34" viewBox="0 0 134 34" fill="none" xmlns="http://www.w3.org/2000/svg">
<path d="M6 1.5H124.117C126.067 1.5 127.795 2.75536 128.397 4.60951L131.971 15.6095C132.265 16.5133 132.265 17.4867 131.971 18.3905L128.397 29.3905C127.795 31.2446 126.067 32.5 124.117 32.5H5.99999C3.51471 32.5 1.5 30.4853 1.5 28V6C1.5 3.51472 3.51472 1.5 6 1.5Z" fill="#F4F4F4" stroke="#ABABAB" stroke-width="3"/>
<path d="M37.3901 21.14C36.6248 21.14 35.9201 21.0187 35.2761 20.776C34.6414 20.524 34.0861 20.174 33.6101 19.726C33.1341 19.2687 32.7654 18.732 32.5041 18.116C32.2428 17.5 32.1121 16.828 32.1121 16.1C32.1121 15.372 32.2428 14.7 32.5041 14.084C32.7654 13.468 33.1341 12.936 33.6101 12.488C34.0954 12.0307 34.6601 11.6807 35.3041 11.438C35.9481 11.186 36.6528 11.06 37.4181 11.06C38.2488 11.06 38.9954 11.1953 39.6581 11.466C40.3301 11.7367 40.8948 12.1333 41.3521 12.656L40.2041 13.776C39.8214 13.3933 39.4061 13.1133 38.9581 12.936C38.5194 12.7493 38.0341 12.656 37.5021 12.656C36.9888 12.656 36.5128 12.74 36.0741 12.908C35.6354 13.076 35.2574 13.314 34.9401 13.622C34.6228 13.93 34.3754 14.294 34.1981 14.714C34.0301 15.134 33.9461 15.596 33.9461 16.1C33.9461 16.5947 34.0301 17.052 34.1981 17.472C34.3754 17.892 34.6228 18.2607 34.9401 18.578C35.2574 18.886 35.6308 19.124 36.0601 19.292C36.4894 19.46 36.9654 19.544 37.4881 19.544C37.9734 19.544 38.4401 19.4693 38.8881 19.32C39.3454 19.1613 39.7794 18.9 40.1901 18.536L41.2261 19.894C40.7128 20.3047 40.1154 20.6173 39.4341 20.832C38.7621 21.0373 38.0808 21.14 37.3901 21.14ZM39.5041 19.656V15.988H41.2261V19.894L39.5041 19.656ZM46.9725 21.098C46.1419 21.098 45.4139 20.9347 44.7885 20.608C44.1725 20.272 43.6919 19.8147 43.3465 19.236C43.0105 18.6573 42.8425 17.9993 42.8425 17.262C42.8425 16.5153 43.0059 15.8573 43.3325 15.288C43.6685 14.7093 44.1259 14.2567 44.7045 13.93C45.2925 13.6033 45.9599 13.44 46.7065 13.44C47.4345 13.44 48.0832 13.5987 48.6525 13.916C49.2219 14.2333 49.6699 14.6813 49.9965 15.26C50.3232 15.8387 50.4865 16.52 50.4865 17.304C50.4865 17.3787 50.4819 17.4627 50.4725 17.556C50.4725 17.6493 50.4679 17.738 50.4585 17.822H44.2285V16.66H49.5345L48.8485 17.024C48.8579 16.5947 48.7692 16.2167 48.5825 15.89C48.3959 15.5633 48.1392 15.3067 47.8125 15.12C47.4952 14.9333 47.1265 14.84 46.7065 14.84C46.2772 14.84 45.8992 14.9333 45.5725 15.12C45.2552 15.3067 45.0032 15.568 44.8165 15.904C44.6392 16.2307 44.5505 16.618 44.5505 17.066V17.346C44.5505 17.794 44.6532 18.1907 44.8585 18.536C45.0639 18.8813 45.3532 19.1473 45.7265 19.334C46.0999 19.5207 46.5292 19.614 47.0145 19.614C47.4345 19.614 47.8125 19.5487 48.1485 19.418C48.4845 19.2873 48.7832 19.082 49.0445 18.802L49.9825 19.88C49.6465 20.272 49.2219 20.5753 48.7085 20.79C48.2045 20.9953 47.6259 21.098 46.9725 21.098ZM56.4095 13.44C57.0069 13.44 57.5389 13.5567 58.0055 13.79C58.4815 14.0233 58.8549 14.3827 59.1255 14.868C59.3962 15.344 59.5315 15.96 59.5315 16.716V21H57.7815V16.94C57.7815 16.2773 57.6229 15.7827 57.3055 15.456C56.9975 15.1293 56.5635 14.966 56.0035 14.966C55.5929 14.966 55.2289 15.05 54.9115 15.218C54.5942 15.386 54.3469 15.638 54.1695 15.974C54.0015 16.3007 53.9175 16.716 53.9175 17.22V21H52.1675V13.524H53.8335V15.54L53.5395 14.924C53.8009 14.448 54.1789 14.084 54.6735 13.832C55.1775 13.5707 55.7562 13.44 56.4095 13.44ZM65.2792 21.098C64.4485 21.098 63.7205 20.9347 63.0952 20.608C62.4792 20.272 61.9985 19.8147 61.6532 19.236C61.3172 18.6573 61.1492 17.9993 61.1492 17.262C61.1492 16.5153 61.3125 15.8573 61.6392 15.288C61.9752 14.7093 62.4325 14.2567 63.0112 13.93C63.5992 13.6033 64.2665 13.44 65.0132 13.44C65.7412 13.44 66.3899 13.5987 66.9592 13.916C67.5285 14.2333 67.9765 14.6813 68.3032 15.26C68.6299 15.8387 68.7932 16.52 68.7932 17.304C68.7932 17.3787 68.7885 17.4627 68.7792 17.556C68.7792 17.6493 68.7745 17.738 68.7652 17.822H62.5352V16.66H67.8412L67.1552 17.024C67.1645 16.5947 67.0759 16.2167 66.8892 15.89C66.7025 15.5633 66.4459 15.3067 66.1192 15.12C65.8019 14.9333 65.4332 14.84 65.0132 14.84C64.5839 14.84 64.2059 14.9333 63.8792 15.12C63.5619 15.3067 63.3099 15.568 63.1232 15.904C62.9459 16.2307 62.8572 16.618 62.8572 17.066V17.346C62.8572 17.794 62.9599 18.1907 63.1652 18.536C63.3705 18.8813 63.6599 19.1473 64.0332 19.334C64.4065 19.5207 64.8359 19.614 65.3212 19.614C65.7412 19.614 66.1192 19.5487 66.4552 19.418C66.7912 19.2873 67.0899 19.082 67.3512 18.802L68.2892 19.88C67.9532 20.272 67.5285 20.5753 67.0152 20.79C66.5112 20.9953 65.9325 21.098 65.2792 21.098ZM70.4742 21V13.524H72.1402V15.582L71.9442 14.98C72.1682 14.476 72.5182 14.0933 72.9942 13.832C73.4795 13.5707 74.0815 13.44 74.8002 13.44V15.106C74.7255 15.0873 74.6555 15.078 74.5902 15.078C74.5248 15.0687 74.4595 15.064 74.3942 15.064C73.7315 15.064 73.2042 15.26 72.8122 15.652C72.4202 16.0347 72.2242 16.6087 72.2242 17.374V21H70.4742ZM80.3575 21V19.488L80.2595 19.166V16.52C80.2595 16.0067 80.1055 15.61 79.7975 15.33C79.4895 15.0407 79.0228 14.896 78.3975 14.896C77.9775 14.896 77.5622 14.9613 77.1515 15.092C76.7502 15.2227 76.4095 15.4047 76.1295 15.638L75.4435 14.364C75.8448 14.056 76.3208 13.8273 76.8715 13.678C77.4315 13.5193 78.0102 13.44 78.6075 13.44C79.6902 13.44 80.5255 13.7013 81.1135 14.224C81.7108 14.7373 82.0095 15.5353 82.0095 16.618V21H80.3575ZM78.0055 21.098C77.4455 21.098 76.9555 21.0047 76.5355 20.818C76.1155 20.622 75.7888 20.356 75.5555 20.02C75.3315 19.6747 75.2195 19.2873 75.2195 18.858C75.2195 18.438 75.3175 18.06 75.5135 17.724C75.7188 17.388 76.0502 17.122 76.5075 16.926C76.9648 16.73 77.5715 16.632 78.3275 16.632H80.4975V17.794H78.4535C77.8562 17.794 77.4548 17.892 77.2495 18.088C77.0442 18.2747 76.9415 18.508 76.9415 18.788C76.9415 19.1053 77.0675 19.3573 77.3195 19.544C77.5715 19.7307 77.9215 19.824 78.3695 19.824C78.7988 19.824 79.1815 19.726 79.5175 19.53C79.8628 19.334 80.1102 19.0447 80.2595 18.662L80.5535 19.712C80.3855 20.1507 80.0822 20.4913 79.6435 20.734C79.2142 20.9767 78.6682 21.098 78.0055 21.098ZM87.0694 21.098C86.2481 21.098 85.6134 20.888 85.1654 20.468C84.7174 20.0387 84.4934 19.4087 84.4934 18.578V11.872H86.2434V18.536C86.2434 18.8907 86.3321 19.166 86.5094 19.362C86.6961 19.558 86.9528 19.656 87.2794 19.656C87.6714 19.656 87.9981 19.5533 88.2594 19.348L88.7494 20.594C88.5441 20.762 88.2921 20.888 87.9934 20.972C87.6948 21.056 87.3868 21.098 87.0694 21.098ZM83.2614 14.98V13.58H88.2454V14.98H83.2614ZM93.4569 21.098C92.6263 21.098 91.8983 20.9347 91.2729 20.608C90.6569 20.272 90.1763 19.8147 89.8309 19.236C89.4949 18.6573 89.3269 17.9993 89.3269 17.262C89.3269 16.5153 89.4903 15.8573 89.8169 15.288C90.1529 14.7093 90.6103 14.2567 91.1889 13.93C91.7769 13.6033 92.4443 13.44 93.1909 13.44C93.9189 13.44 94.5676 13.5987 95.1369 13.916C95.7063 14.2333 96.1543 14.6813 96.4809 15.26C96.8076 15.8387 96.9709 16.52 96.9709 17.304C96.9709 17.3787 96.9663 17.4627 96.9569 17.556C96.9569 17.6493 96.9523 17.738 96.9429 17.822H90.7129V16.66H96.0189L95.3329 17.024C95.3423 16.5947 95.2536 16.2167 95.0669 15.89C94.8803 15.5633 94.6236 15.3067 94.2969 15.12C93.9796 14.9333 93.6109 14.84 93.1909 14.84C92.7616 14.84 92.3836 14.9333 92.0569 15.12C91.7396 15.3067 91.4876 15.568 91.3009 15.904C91.1236 16.2307 91.0349 16.618 91.0349 17.066V17.346C91.0349 17.794 91.1376 18.1907 91.3429 18.536C91.5483 18.8813 91.8376 19.1473 92.2109 19.334C92.5843 19.5207 93.0136 19.614 93.4989 19.614C93.9189 19.614 94.2969 19.5487 94.6329 19.418C94.9689 19.2873 95.2676 19.082 95.5289 18.802L96.4669 19.88C96.1309 20.272 95.7063 20.5753 95.1929 20.79C94.6889 20.9953 94.1103 21.098 93.4569 21.098Z" fill="#ABABAB"/>
<path d="M109.625 16.5L110.875 17.75L113.375 15.25M107.125 10.875H115.875C116.565 10.875 117.125 11.4346 117.125 12.125V20.875C117.125 21.5654 116.565 22.125 115.875 22.125H107.125C106.435 22.125 105.875 21.5654 105.875 20.875V12.125C105.875 11.4346 106.435 10.875 107.125 10.875Z" stroke="#ABABAB" stroke-width="1.66667" stroke-linecap="round" stroke-linejoin="round"/>
</svg>
