<svg width="117" height="34" viewBox="0 0 117 34" fill="none" xmlns="http://www.w3.org/2000/svg">
<path d="M6 1.5H107.117C109.067 1.5 110.795 2.75536 111.397 4.60951L114.971 15.6095C115.265 16.5133 115.265 17.4867 114.971 18.3905L111.397 29.3905C110.795 31.2446 109.067 32.5 107.117 32.5H6C3.51472 32.5 1.5 30.4853 1.5 28V6C1.5 3.51472 3.51472 1.5 6 1.5Z" fill="#B7C2FF" stroke="#020CFF" stroke-width="3"/>
<path d="M24.3931 22V12.2H28.4251C29.2931 12.2 30.0351 12.34 30.6511 12.62C31.2765 12.9 31.7571 13.3013 32.0931 13.824C32.4291 14.3467 32.5971 14.9673 32.5971 15.686C32.5971 16.4047 32.4291 17.0253 32.0931 17.548C31.7571 18.0707 31.2765 18.472 30.6511 18.752C30.0351 19.032 29.2931 19.172 28.4251 19.172H25.4011L26.2131 18.318V22H24.3931ZM26.2131 18.514L25.4011 17.632H28.3411C29.1438 17.632 29.7458 17.464 30.1471 17.128C30.5578 16.7827 30.7631 16.302 30.7631 15.686C30.7631 15.0607 30.5578 14.58 30.1471 14.244C29.7458 13.908 29.1438 13.74 28.3411 13.74H25.4011L26.2131 12.844V18.514ZM34.1783 22V14.524H35.8443V16.582L35.6483 15.98C35.8723 15.476 36.2223 15.0933 36.6983 14.832C37.1836 14.5707 37.7856 14.44 38.5043 14.44V16.106C38.4296 16.0873 38.3596 16.078 38.2943 16.078C38.2289 16.0687 38.1636 16.064 38.0983 16.064C37.4356 16.064 36.9083 16.26 36.5163 16.652C36.1243 17.0347 35.9283 17.6087 35.9283 18.374V22H34.1783ZM43.4345 22.098C42.6038 22.098 41.8758 21.9347 41.2505 21.608C40.6345 21.272 40.1538 20.8147 39.8085 20.236C39.4725 19.6573 39.3045 18.9993 39.3045 18.262C39.3045 17.5153 39.4678 16.8573 39.7945 16.288C40.1305 15.7093 40.5878 15.2567 41.1665 14.93C41.7545 14.6033 42.4218 14.44 43.1685 14.44C43.8965 14.44 44.5451 14.5987 45.1145 14.916C45.6838 15.2333 46.1318 15.6813 46.4585 16.26C46.7851 16.8387 46.9485 17.52 46.9485 18.304C46.9485 18.3787 46.9438 18.4627 46.9345 18.556C46.9345 18.6493 46.9298 18.738 46.9205 18.822H40.6905V17.66H45.9965L45.3105 18.024C45.3198 17.5947 45.2311 17.2167 45.0445 16.89C44.8578 16.5633 44.6011 16.3067 44.2745 16.12C43.9571 15.9333 43.5885 15.84 43.1685 15.84C42.7391 15.84 42.3611 15.9333 42.0345 16.12C41.7171 16.3067 41.4651 16.568 41.2785 16.904C41.1011 17.2307 41.0125 17.618 41.0125 18.066V18.346C41.0125 18.794 41.1151 19.1907 41.3205 19.536C41.5258 19.8813 41.8151 20.1473 42.1885 20.334C42.5618 20.5207 42.9911 20.614 43.4765 20.614C43.8965 20.614 44.2745 20.5487 44.6105 20.418C44.9465 20.2873 45.2451 20.082 45.5065 19.802L46.4445 20.88C46.1085 21.272 45.6838 21.5753 45.1705 21.79C44.6665 21.9953 44.0878 22.098 43.4345 22.098ZM50.4807 22L47.2747 14.524H49.0947L51.8527 21.118H50.9567L53.8127 14.524H55.4927L52.2867 22H50.4807ZM56.5865 22V14.524H58.3365V22H56.5865ZM57.4685 13.292C57.1418 13.292 56.8711 13.1893 56.6565 12.984C56.4511 12.7787 56.3485 12.5313 56.3485 12.242C56.3485 11.9433 56.4511 11.696 56.6565 11.5C56.8711 11.2947 57.1418 11.192 57.4685 11.192C57.7951 11.192 58.0611 11.29 58.2665 11.486C58.4811 11.6727 58.5885 11.9107 58.5885 12.2C58.5885 12.508 58.4858 12.7693 58.2805 12.984C58.0751 13.1893 57.8045 13.292 57.4685 13.292ZM64.1474 22.098C63.3167 22.098 62.5887 21.9347 61.9634 21.608C61.3474 21.272 60.8667 20.8147 60.5214 20.236C60.1854 19.6573 60.0174 18.9993 60.0174 18.262C60.0174 17.5153 60.1807 16.8573 60.5074 16.288C60.8434 15.7093 61.3007 15.2567 61.8794 14.93C62.4674 14.6033 63.1347 14.44 63.8814 14.44C64.6094 14.44 65.258 14.5987 65.8274 14.916C66.3967 15.2333 66.8447 15.6813 67.1714 16.26C67.498 16.8387 67.6614 17.52 67.6614 18.304C67.6614 18.3787 67.6567 18.4627 67.6474 18.556C67.6474 18.6493 67.6427 18.738 67.6334 18.822H61.4034V17.66H66.7094L66.0234 18.024C66.0327 17.5947 65.944 17.2167 65.7574 16.89C65.5707 16.5633 65.314 16.3067 64.9874 16.12C64.67 15.9333 64.3014 15.84 63.8814 15.84C63.452 15.84 63.074 15.9333 62.7474 16.12C62.43 16.3067 62.178 16.568 61.9914 16.904C61.814 17.2307 61.7254 17.618 61.7254 18.066V18.346C61.7254 18.794 61.828 19.1907 62.0334 19.536C62.2387 19.8813 62.528 20.1473 62.9014 20.334C63.2747 20.5207 63.704 20.614 64.1894 20.614C64.6094 20.614 64.9874 20.5487 65.3234 20.418C65.6594 20.2873 65.958 20.082 66.2194 19.802L67.1574 20.88C66.8214 21.272 66.3967 21.5753 65.8834 21.79C65.3794 21.9953 64.8007 22.098 64.1474 22.098ZM70.8576 22L68.1136 14.524H69.7656L72.1176 21.118H71.3336L73.7976 14.524H75.2676L77.6616 21.118H76.8916L79.3136 14.524H80.8676L78.1096 22H76.4296L74.2456 16.162H74.7636L72.5376 22H70.8576Z" fill="#020CFF"/>
<path d="M94.625 16.5L95.875 17.75L98.375 15.25M92.125 10.875H100.875C101.565 10.875 102.125 11.4346 102.125 12.125V20.875C102.125 21.5654 101.565 22.125 100.875 22.125H92.125C91.4346 22.125 90.875 21.5654 90.875 20.875V12.125C90.875 11.4346 91.4346 10.875 92.125 10.875Z" stroke="#020CFF" stroke-width="1.66667" stroke-linecap="round" stroke-linejoin="round"/>
</svg>
