<svg width="34" height="38" viewBox="0 0 34 38" fill="none" xmlns="http://www.w3.org/2000/svg">
<path d="M15.4513 25.14C15.4513 24.6733 15.5247 24.26 15.6713 23.9C15.8313 23.54 16.0247 23.22 16.2513 22.94C16.4913 22.66 16.7447 22.4 17.0113 22.16C17.278 21.92 17.5247 21.6933 17.7513 21.48C17.9913 21.2533 18.1847 21.02 18.3313 20.78C18.4913 20.54 18.5713 20.2733 18.5713 19.98C18.5713 19.5 18.3713 19.1133 17.9713 18.82C17.5847 18.5267 17.0647 18.38 16.4113 18.38C15.7847 18.38 15.2247 18.5133 14.7313 18.78C14.238 19.0333 13.8313 19.3933 13.5113 19.86L11.0913 18.44C11.6247 17.6267 12.3647 16.98 13.3113 16.5C14.258 16.0067 15.4047 15.76 16.7513 15.76C17.7513 15.76 18.6313 15.9067 19.3913 16.2C20.1513 16.48 20.7447 16.8933 21.1713 17.44C21.6113 17.9867 21.8313 18.66 21.8313 19.46C21.8313 19.98 21.7513 20.44 21.5913 20.84C21.4313 21.24 21.2247 21.5867 20.9713 21.88C20.718 22.1733 20.4447 22.4467 20.1513 22.7C19.8713 22.9533 19.6047 23.2 19.3513 23.44C19.098 23.68 18.8847 23.9333 18.7113 24.2C18.5513 24.4667 18.4713 24.78 18.4713 25.14H15.4513ZM16.9713 30.16C16.4113 30.16 15.9513 29.98 15.5913 29.62C15.2313 29.26 15.0513 28.8333 15.0513 28.34C15.0513 27.8333 15.2313 27.4133 15.5913 27.08C15.9513 26.7333 16.4113 26.56 16.9713 26.56C17.5447 26.56 18.0047 26.7333 18.3513 27.08C18.7113 27.4133 18.8913 27.8333 18.8913 28.34C18.8913 28.8333 18.7113 29.26 18.3513 29.62C18.0047 29.98 17.5447 30.16 16.9713 30.16Z" fill="black"/>
<path d="M27 29V17.5M7 29V17.5M32 35.5H15.75H2M30.5 11H17H3L16.9307 2L30.5 11Z" stroke="black" stroke-width="3.5" stroke-linecap="round" stroke-linejoin="round"/>
</svg>
