<svg width="32" height="32" viewBox="0 0 32 32" fill="none" xmlns="http://www.w3.org/2000/svg">
<mask id="path-1-inside-1_1591_189" fill="white">
<path d="M26 26L-3.57628e-07 26L-6.19896e-07 29C-7.64743e-07 30.6569 1.34314 32 3 32L26 32L26 26Z"/>
</mask>
<path d="M26 26L-3.57628e-07 26L-6.19896e-07 29C-7.64743e-07 30.6569 1.34314 32 3 32L26 32L26 26Z" fill="#E01FFF" stroke="#E01FFF" stroke-width="6" mask="url(#path-1-inside-1_1591_189)"/>
<mask id="path-2-inside-2_1591_189" fill="white">
<path d="M26 6L26 32L29 32C30.6569 32 32 30.6569 32 29L32 6L26 6Z"/>
</mask>
<path d="M26 6L26 32L29 32C30.6569 32 32 30.6569 32 29L32 6L26 6Z" fill="#020CFF" stroke="#020CFF" stroke-width="6" mask="url(#path-2-inside-2_1591_189)"/>
<mask id="path-3-inside-3_1591_189" fill="white">
<path d="M6 6L32 6L32 3C32 1.34315 30.6569 -1.19209e-07 29 -1.19209e-07L6 -1.19209e-07L6 6Z"/>
</mask>
<path d="M6 6L32 6L32 3C32 1.34315 30.6569 -1.19209e-07 29 -1.19209e-07L6 -1.19209e-07L6 6Z" fill="#2BB514" stroke="#2BB514" stroke-width="6" mask="url(#path-3-inside-3_1591_189)"/>
<mask id="path-4-inside-4_1591_189" fill="white">
<path d="M6 26L6 1.54972e-06L3 1.15632e-06C1.34315 9.39048e-07 -2.23714e-07 1.34315 -4.40984e-07 3L-3.45707e-06 26L6 26Z"/>
</mask>
<path d="M6 26L6 1.54972e-06L3 1.15632e-06C1.34315 9.39048e-07 -2.23714e-07 1.34315 -4.40984e-07 3L-3.45707e-06 26L6 26Z" fill="#FFD13B"/>
<path d="M36 26L36 -30L3 1.15632e-06C2.20435 1.08676e-06 1.44129 0.316072 0.878679 0.878681C0.31607 1.44129 -3.71426e-07 2.20435 -4.40984e-07 3L-3.06367e-06 23L-3.45707e-06 26L36 26ZM3 -30C-15.2254 -30 -30 -15.2254 -30 3L-30 26L6 26L3 -30ZM-3.45707e-06 26L6 26L-3.45707e-06 26ZM36 -30L3 -30C-15.2254 -30 -30 -15.2254 -30 3L6 26L-3.45707e-06 26L36 -30Z" fill="#FFD13B" mask="url(#path-4-inside-4_1591_189)"/>
</svg>
