<svg width="158" height="158" viewBox="0 0 158 158" fill="none" xmlns="http://www.w3.org/2000/svg">
<path d="M30 141C32.2091 141 34 139.209 34 137L34 10C34 7.79086 32.2091 5.99999 30 5.99999L9 5.99999C6.23858 6 4 8.23857 4 11L4.00001 135C4.00001 138.314 6.6863 141 10 141L30 141Z" fill="#FFD13B"/>
<path d="M6 142C6 146.418 9.58172 150 14 150H140C144.971 150 149 145.971 149 141V124C149 121.791 147.209 120 145 120H14C9.58173 120 6 123.582 6 128V142Z" fill="#E962FF"/>
<path d="M147 148C150.866 148 154 144.866 154 141L154 16C154 12.134 150.866 8.99999 147 8.99999L129 9C126.239 9 124 11.2386 124 14L124 142C124 145.314 126.686 148 130 148L147 148Z" fill="#3C5AFF"/>
<path d="M14 25C14 27.7614 16.2386 30 19 30L148 30C151.314 30 154 27.3137 154 24V7C154 3.13401 150.866 -1.19209e-07 147 -1.19209e-07L21 -1.19209e-07C17.134 -1.19209e-07 14 3.13401 14 7L14 25Z" fill="#29DB0B"/>
<g filter="url(#filter0_d_1278_215)">
<rect width="30" height="30" rx="6" transform="matrix(1 0 0 -1 124 30)" fill="#B3FFA7"/>
</g>
<path d="M30 50C32.2091 50 34 48.2091 34 46L34 7C34 3.13401 30.866 -5.70288e-07 27 -2.44409e-07L11 1.10429e-06C7.13401 1.43017e-06 4 3.13401 4 7L4 44C4 47.3137 6.68629 50 10 50L30 50Z" fill="#FFD13B"/>
<g filter="url(#filter1_d_1278_215)">
<rect width="30" height="30" rx="6" transform="matrix(1 0 0 -1 124 150)" fill="#9DACFF"/>
</g>
<g filter="url(#filter2_d_1278_215)">
<rect width="30" height="30" rx="6" transform="matrix(1 0 0 -1 4 150)" fill="#EF9DFF"/>
</g>
<g filter="url(#filter3_d_1278_215)">
<rect width="30" height="30" rx="6" transform="matrix(-8.42937e-08 -1 -1 8.42937e-08 34 30)" fill="#FFDE83"/>
</g>
<defs>
<filter id="filter0_d_1278_215" x="120" y="0" width="38" height="38" filterUnits="userSpaceOnUse" color-interpolation-filters="sRGB">
<feFlood flood-opacity="0" result="BackgroundImageFix"/>
<feColorMatrix in="SourceAlpha" type="matrix" values="0 0 0 0 0 0 0 0 0 0 0 0 0 0 0 0 0 0 127 0" result="hardAlpha"/>
<feOffset dy="4"/>
<feGaussianBlur stdDeviation="2"/>
<feComposite in2="hardAlpha" operator="out"/>
<feColorMatrix type="matrix" values="0 0 0 0 0 0 0 0 0 0 0 0 0 0 0 0 0 0 0.05 0"/>
<feBlend mode="normal" in2="BackgroundImageFix" result="effect1_dropShadow_1278_215"/>
<feBlend mode="normal" in="SourceGraphic" in2="effect1_dropShadow_1278_215" result="shape"/>
</filter>
<filter id="filter1_d_1278_215" x="120" y="120" width="38" height="38" filterUnits="userSpaceOnUse" color-interpolation-filters="sRGB">
<feFlood flood-opacity="0" result="BackgroundImageFix"/>
<feColorMatrix in="SourceAlpha" type="matrix" values="0 0 0 0 0 0 0 0 0 0 0 0 0 0 0 0 0 0 127 0" result="hardAlpha"/>
<feOffset dy="4"/>
<feGaussianBlur stdDeviation="2"/>
<feComposite in2="hardAlpha" operator="out"/>
<feColorMatrix type="matrix" values="0 0 0 0 0 0 0 0 0 0 0 0 0 0 0 0 0 0 0.05 0"/>
<feBlend mode="normal" in2="BackgroundImageFix" result="effect1_dropShadow_1278_215"/>
<feBlend mode="normal" in="SourceGraphic" in2="effect1_dropShadow_1278_215" result="shape"/>
</filter>
<filter id="filter2_d_1278_215" x="0" y="120" width="38" height="38" filterUnits="userSpaceOnUse" color-interpolation-filters="sRGB">
<feFlood flood-opacity="0" result="BackgroundImageFix"/>
<feColorMatrix in="SourceAlpha" type="matrix" values="0 0 0 0 0 0 0 0 0 0 0 0 0 0 0 0 0 0 127 0" result="hardAlpha"/>
<feOffset dy="4"/>
<feGaussianBlur stdDeviation="2"/>
<feComposite in2="hardAlpha" operator="out"/>
<feColorMatrix type="matrix" values="0 0 0 0 0 0 0 0 0 0 0 0 0 0 0 0 0 0 0.05 0"/>
<feBlend mode="normal" in2="BackgroundImageFix" result="effect1_dropShadow_1278_215"/>
<feBlend mode="normal" in="SourceGraphic" in2="effect1_dropShadow_1278_215" result="shape"/>
</filter>
<filter id="filter3_d_1278_215" x="0" y="0" width="38" height="38" filterUnits="userSpaceOnUse" color-interpolation-filters="sRGB">
<feFlood flood-opacity="0" result="BackgroundImageFix"/>
<feColorMatrix in="SourceAlpha" type="matrix" values="0 0 0 0 0 0 0 0 0 0 0 0 0 0 0 0 0 0 127 0" result="hardAlpha"/>
<feOffset dy="4"/>
<feGaussianBlur stdDeviation="2"/>
<feComposite in2="hardAlpha" operator="out"/>
<feColorMatrix type="matrix" values="0 0 0 0 0 0 0 0 0 0 0 0 0 0 0 0 0 0 0.05 0"/>
<feBlend mode="normal" in2="BackgroundImageFix" result="effect1_dropShadow_1278_215"/>
<feBlend mode="normal" in="SourceGraphic" in2="effect1_dropShadow_1278_215" result="shape"/>
</filter>
</defs>
</svg>
