<svg width="177" height="34" viewBox="0 0 177 34" fill="none" xmlns="http://www.w3.org/2000/svg">
<path d="M6 1.5H167.106C169.054 1.5 170.781 2.75361 171.384 4.60594L174.968 15.6059C175.263 16.5119 175.263 17.4881 174.968 18.3941L171.384 29.3941C170.781 31.2464 169.054 32.5 167.106 32.5H6.00001C3.51472 32.5 1.5 30.4853 1.5 28V6C1.5 3.51472 3.51472 1.5 6 1.5Z" fill="#F4F4F4" stroke="#ABABAB" stroke-width="3"/>
<path d="M31.5474 21.14C30.782 21.14 30.0494 21.0327 29.3494 20.818C28.6494 20.594 28.094 20.3093 27.6834 19.964L28.3134 18.55C28.7054 18.858 29.1907 19.1147 29.7694 19.32C30.348 19.5253 30.9407 19.628 31.5474 19.628C32.0607 19.628 32.476 19.572 32.7934 19.46C33.1107 19.348 33.344 19.1987 33.4934 19.012C33.6427 18.816 33.7174 18.5967 33.7174 18.354C33.7174 18.0553 33.61 17.8173 33.3954 17.64C33.1807 17.4533 32.9007 17.3087 32.5554 17.206C32.2194 17.094 31.8414 16.9913 31.4214 16.898C31.0107 16.8047 30.5954 16.6973 30.1754 16.576C29.7647 16.4453 29.3867 16.282 29.0414 16.086C28.7054 15.8807 28.43 15.61 28.2154 15.274C28.0007 14.938 27.8934 14.5087 27.8934 13.986C27.8934 13.454 28.0334 12.9687 28.3134 12.53C28.6027 12.082 29.0367 11.7273 29.6154 11.466C30.2034 11.1953 30.9454 11.06 31.8414 11.06C32.4294 11.06 33.0127 11.1347 33.5914 11.284C34.17 11.4333 34.674 11.648 35.1034 11.928L34.5294 13.342C34.0907 13.0807 33.638 12.8893 33.1714 12.768C32.7047 12.6373 32.2567 12.572 31.8274 12.572C31.3234 12.572 30.9127 12.6327 30.5954 12.754C30.2874 12.8753 30.0587 13.034 29.9094 13.23C29.7694 13.426 29.6994 13.65 29.6994 13.902C29.6994 14.2007 29.802 14.4433 30.0074 14.63C30.222 14.8073 30.4974 14.9473 30.8334 15.05C31.1787 15.1527 31.5614 15.2553 31.9814 15.358C32.4014 15.4513 32.8167 15.5587 33.2274 15.68C33.6474 15.8013 34.0254 15.96 34.3614 16.156C34.7067 16.352 34.982 16.618 35.1874 16.954C35.402 17.29 35.5094 17.7147 35.5094 18.228C35.5094 18.7507 35.3647 19.236 35.0754 19.684C34.7954 20.1227 34.3614 20.4773 33.7734 20.748C33.1854 21.0093 32.4434 21.14 31.5474 21.14ZM40.66 21.098C39.8294 21.098 39.1014 20.9347 38.476 20.608C37.86 20.272 37.3794 19.8147 37.034 19.236C36.698 18.6573 36.53 17.9993 36.53 17.262C36.53 16.5153 36.6934 15.8573 37.02 15.288C37.356 14.7093 37.8134 14.2567 38.392 13.93C38.98 13.6033 39.6474 13.44 40.394 13.44C41.122 13.44 41.7707 13.5987 42.34 13.916C42.9094 14.2333 43.3574 14.6813 43.684 15.26C44.0107 15.8387 44.174 16.52 44.174 17.304C44.174 17.3787 44.1694 17.4627 44.16 17.556C44.16 17.6493 44.1554 17.738 44.146 17.822H37.916V16.66H43.222L42.536 17.024C42.5454 16.5947 42.4567 16.2167 42.27 15.89C42.0834 15.5633 41.8267 15.3067 41.5 15.12C41.1827 14.9333 40.814 14.84 40.394 14.84C39.9647 14.84 39.5867 14.9333 39.26 15.12C38.9427 15.3067 38.6907 15.568 38.504 15.904C38.3267 16.2307 38.238 16.618 38.238 17.066V17.346C38.238 17.794 38.3407 18.1907 38.546 18.536C38.7514 18.8813 39.0407 19.1473 39.414 19.334C39.7874 19.5207 40.2167 19.614 40.702 19.614C41.122 19.614 41.5 19.5487 41.836 19.418C42.172 19.2873 42.4707 19.082 42.732 18.802L43.67 19.88C43.334 20.272 42.9094 20.5753 42.396 20.79C41.892 20.9953 41.3134 21.098 40.66 21.098ZM45.855 21V10.612H47.605V21H45.855ZM53.4159 21.098C52.5852 21.098 51.8572 20.9347 51.2319 20.608C50.6159 20.272 50.1352 19.8147 49.7899 19.236C49.4539 18.6573 49.2859 17.9993 49.2859 17.262C49.2859 16.5153 49.4492 15.8573 49.7759 15.288C50.1119 14.7093 50.5692 14.2567 51.1479 13.93C51.7359 13.6033 52.4032 13.44 53.1499 13.44C53.8779 13.44 54.5266 13.5987 55.0959 13.916C55.6652 14.2333 56.1132 14.6813 56.4399 15.26C56.7666 15.8387 56.9299 16.52 56.9299 17.304C56.9299 17.3787 56.9252 17.4627 56.9159 17.556C56.9159 17.6493 56.9112 17.738 56.9019 17.822H50.6719V16.66H55.9779L55.2919 17.024C55.3012 16.5947 55.2126 16.2167 55.0259 15.89C54.8392 15.5633 54.5826 15.3067 54.2559 15.12C53.9386 14.9333 53.5699 14.84 53.1499 14.84C52.7206 14.84 52.3426 14.9333 52.0159 15.12C51.6986 15.3067 51.4466 15.568 51.2599 15.904C51.0826 16.2307 50.9939 16.618 50.9939 17.066V17.346C50.9939 17.794 51.0966 18.1907 51.3019 18.536C51.5072 18.8813 51.7966 19.1473 52.1699 19.334C52.5432 19.5207 52.9726 19.614 53.4579 19.614C53.8779 19.614 54.2559 19.5487 54.5919 19.418C54.9279 19.2873 55.2266 19.082 55.4879 18.802L56.4259 19.88C56.0899 20.272 55.6652 20.5753 55.1519 20.79C54.6479 20.9953 54.0692 21.098 53.4159 21.098ZM62.0409 21.098C61.2569 21.098 60.5569 20.9347 59.9409 20.608C59.3342 20.272 58.8582 19.8147 58.5129 19.236C58.1676 18.6573 57.9949 17.9993 57.9949 17.262C57.9949 16.5153 58.1676 15.8573 58.5129 15.288C58.8582 14.7093 59.3342 14.2567 59.9409 13.93C60.5569 13.6033 61.2569 13.44 62.0409 13.44C62.7689 13.44 63.4082 13.5893 63.9589 13.888C64.5189 14.1773 64.9436 14.6067 65.2329 15.176L63.8889 15.96C63.6649 15.6053 63.3896 15.344 63.0629 15.176C62.7456 15.008 62.4002 14.924 62.0269 14.924C61.5976 14.924 61.2102 15.0173 60.8649 15.204C60.5196 15.3907 60.2489 15.6613 60.0529 16.016C59.8569 16.3613 59.7589 16.7767 59.7589 17.262C59.7589 17.7473 59.8569 18.1673 60.0529 18.522C60.2489 18.8673 60.5196 19.1333 60.8649 19.32C61.2102 19.5067 61.5976 19.6 62.0269 19.6C62.4002 19.6 62.7456 19.516 63.0629 19.348C63.3896 19.18 63.6649 18.9187 63.8889 18.564L65.2329 19.348C64.9436 19.908 64.5189 20.342 63.9589 20.65C63.4082 20.9487 62.7689 21.098 62.0409 21.098ZM69.6554 21.098C68.834 21.098 68.1994 20.888 67.7514 20.468C67.3034 20.0387 67.0794 19.4087 67.0794 18.578V11.872H68.8294V18.536C68.8294 18.8907 68.918 19.166 69.0954 19.362C69.282 19.558 69.5387 19.656 69.8654 19.656C70.2574 19.656 70.584 19.5533 70.8454 19.348L71.3354 20.594C71.13 20.762 70.878 20.888 70.5794 20.972C70.2807 21.056 69.9727 21.098 69.6554 21.098ZM65.8474 14.98V13.58H70.8314V14.98H65.8474ZM79.8501 21.14C79.0848 21.14 78.3521 21.0327 77.6521 20.818C76.9521 20.594 76.3968 20.3093 75.9861 19.964L76.6161 18.55C77.0081 18.858 77.4934 19.1147 78.0721 19.32C78.6508 19.5253 79.2434 19.628 79.8501 19.628C80.3634 19.628 80.7788 19.572 81.0961 19.46C81.4134 19.348 81.6468 19.1987 81.7961 19.012C81.9454 18.816 82.0201 18.5967 82.0201 18.354C82.0201 18.0553 81.9128 17.8173 81.6981 17.64C81.4834 17.4533 81.2034 17.3087 80.8581 17.206C80.5221 17.094 80.1441 16.9913 79.7241 16.898C79.3134 16.8047 78.8981 16.6973 78.4781 16.576C78.0674 16.4453 77.6894 16.282 77.3441 16.086C77.0081 15.8807 76.7328 15.61 76.5181 15.274C76.3034 14.938 76.1961 14.5087 76.1961 13.986C76.1961 13.454 76.3361 12.9687 76.6161 12.53C76.9054 12.082 77.3394 11.7273 77.9181 11.466C78.5061 11.1953 79.2481 11.06 80.1441 11.06C80.7321 11.06 81.3154 11.1347 81.8941 11.284C82.4728 11.4333 82.9768 11.648 83.4061 11.928L82.8321 13.342C82.3934 13.0807 81.9408 12.8893 81.4741 12.768C81.0074 12.6373 80.5594 12.572 80.1301 12.572C79.6261 12.572 79.2154 12.6327 78.8981 12.754C78.5901 12.8753 78.3614 13.034 78.2121 13.23C78.0721 13.426 78.0021 13.65 78.0021 13.902C78.0021 14.2007 78.1048 14.4433 78.3101 14.63C78.5248 14.8073 78.8001 14.9473 79.1361 15.05C79.4814 15.1527 79.8641 15.2553 80.2841 15.358C80.7041 15.4513 81.1194 15.5587 81.5301 15.68C81.9501 15.8013 82.3281 15.96 82.6641 16.156C83.0094 16.352 83.2848 16.618 83.4901 16.954C83.7048 17.29 83.8121 17.7147 83.8121 18.228C83.8121 18.7507 83.6674 19.236 83.3781 19.684C83.0981 20.1227 82.6641 20.4773 82.0761 20.748C81.4881 21.0093 80.7461 21.14 79.8501 21.14ZM88.2628 21.098C87.4414 21.098 86.8068 20.888 86.3588 20.468C85.9108 20.0387 85.6868 19.4087 85.6868 18.578V11.872H87.4368V18.536C87.4368 18.8907 87.5254 19.166 87.7028 19.362C87.8894 19.558 88.1461 19.656 88.4728 19.656C88.8648 19.656 89.1914 19.5533 89.4528 19.348L89.9428 20.594C89.7374 20.762 89.4854 20.888 89.1868 20.972C88.8881 21.056 88.5801 21.098 88.2628 21.098ZM84.4548 14.98V13.58H89.4388V14.98H84.4548ZM94.5464 21.098C93.9117 21.098 93.3517 20.9813 92.8664 20.748C92.381 20.5053 92.003 20.1413 91.7324 19.656C91.4617 19.1613 91.3264 18.5407 91.3264 17.794V13.524H93.0764V17.556C93.0764 18.228 93.2257 18.732 93.5244 19.068C93.8324 19.3947 94.2664 19.558 94.8264 19.558C95.237 19.558 95.5917 19.474 95.8904 19.306C96.1984 19.138 96.4364 18.886 96.6044 18.55C96.7817 18.214 96.8704 17.7987 96.8704 17.304V13.524H98.6204V21H96.9544V18.984L97.2484 19.6C96.9964 20.0853 96.6277 20.4587 96.1424 20.72C95.657 20.972 95.125 21.098 94.5464 21.098ZM104.076 21.098C103.357 21.098 102.708 20.9393 102.13 20.622C101.56 20.2953 101.112 19.8473 100.786 19.278C100.459 18.7087 100.296 18.0367 100.296 17.262C100.296 16.4873 100.459 15.8153 100.786 15.246C101.112 14.6767 101.56 14.2333 102.13 13.916C102.708 13.5987 103.357 13.44 104.076 13.44C104.701 13.44 105.261 13.58 105.756 13.86C106.25 14.1307 106.642 14.546 106.932 15.106C107.221 15.666 107.366 16.3847 107.366 17.262C107.366 18.13 107.226 18.8487 106.946 19.418C106.666 19.978 106.278 20.398 105.784 20.678C105.289 20.958 104.72 21.098 104.076 21.098ZM104.286 19.6C104.706 19.6 105.079 19.5067 105.406 19.32C105.742 19.1333 106.008 18.8627 106.204 18.508C106.409 18.1533 106.512 17.738 106.512 17.262C106.512 16.7767 106.409 16.3613 106.204 16.016C106.008 15.6613 105.742 15.3907 105.406 15.204C105.079 15.0173 104.706 14.924 104.286 14.924C103.866 14.924 103.488 15.0173 103.152 15.204C102.825 15.3907 102.559 15.6613 102.354 16.016C102.158 16.3613 102.06 16.7767 102.06 17.262C102.06 17.738 102.158 18.1533 102.354 18.508C102.559 18.8627 102.825 19.1333 103.152 19.32C103.488 19.5067 103.866 19.6 104.286 19.6ZM106.554 21V19.236L106.624 17.248L106.484 15.26V10.612H108.22V21H106.554ZM114.037 21.098C113.206 21.098 112.478 20.9347 111.853 20.608C111.237 20.272 110.756 19.8147 110.411 19.236C110.075 18.6573 109.907 17.9993 109.907 17.262C109.907 16.5153 110.07 15.8573 110.397 15.288C110.733 14.7093 111.19 14.2567 111.769 13.93C112.357 13.6033 113.024 13.44 113.771 13.44C114.499 13.44 115.148 13.5987 115.717 13.916C116.286 14.2333 116.734 14.6813 117.061 15.26C117.388 15.8387 117.551 16.52 117.551 17.304C117.551 17.3787 117.546 17.4627 117.537 17.556C117.537 17.6493 117.532 17.738 117.523 17.822H111.293V16.66H116.599L115.913 17.024C115.922 16.5947 115.834 16.2167 115.647 15.89C115.46 15.5633 115.204 15.3067 114.877 15.12C114.56 14.9333 114.191 14.84 113.771 14.84C113.342 14.84 112.964 14.9333 112.637 15.12C112.32 15.3067 112.068 15.568 111.881 15.904C111.704 16.2307 111.615 16.618 111.615 17.066V17.346C111.615 17.794 111.718 18.1907 111.923 18.536C112.128 18.8813 112.418 19.1473 112.791 19.334C113.164 19.5207 113.594 19.614 114.079 19.614C114.499 19.614 114.877 19.5487 115.213 19.418C115.549 19.2873 115.848 19.082 116.109 18.802L117.047 19.88C116.711 20.272 116.286 20.5753 115.773 20.79C115.269 20.9953 114.69 21.098 114.037 21.098ZM123.474 13.44C124.071 13.44 124.603 13.5567 125.07 13.79C125.546 14.0233 125.919 14.3827 126.19 14.868C126.461 15.344 126.596 15.96 126.596 16.716V21H124.846V16.94C124.846 16.2773 124.687 15.7827 124.37 15.456C124.062 15.1293 123.628 14.966 123.068 14.966C122.657 14.966 122.293 15.05 121.976 15.218C121.659 15.386 121.411 15.638 121.234 15.974C121.066 16.3007 120.982 16.716 120.982 17.22V21H119.232V13.524H120.898V15.54L120.604 14.924C120.865 14.448 121.243 14.084 121.738 13.832C122.242 13.5707 122.821 13.44 123.474 13.44ZM131.63 21.098C130.809 21.098 130.174 20.888 129.726 20.468C129.278 20.0387 129.054 19.4087 129.054 18.578V11.872H130.804V18.536C130.804 18.8907 130.893 19.166 131.07 19.362C131.257 19.558 131.513 19.656 131.84 19.656C132.232 19.656 132.559 19.5533 132.82 19.348L133.31 20.594C133.105 20.762 132.853 20.888 132.554 20.972C132.255 21.056 131.947 21.098 131.63 21.098ZM127.822 14.98V13.58H132.806V14.98H127.822ZM137.06 21.098C136.434 21.098 135.832 21.0187 135.254 20.86C134.684 20.692 134.232 20.4913 133.896 20.258L134.568 18.928C134.904 19.1427 135.305 19.32 135.772 19.46C136.238 19.6 136.705 19.67 137.172 19.67C137.722 19.67 138.119 19.5953 138.362 19.446C138.614 19.2967 138.74 19.096 138.74 18.844C138.74 18.6387 138.656 18.4847 138.488 18.382C138.32 18.27 138.1 18.186 137.83 18.13C137.559 18.074 137.256 18.0227 136.92 17.976C136.593 17.9293 136.262 17.8687 135.926 17.794C135.599 17.71 135.3 17.5933 135.03 17.444C134.759 17.2853 134.54 17.0753 134.372 16.814C134.204 16.5527 134.12 16.2073 134.12 15.778C134.12 15.302 134.255 14.8913 134.526 14.546C134.796 14.1913 135.174 13.9207 135.66 13.734C136.154 13.538 136.738 13.44 137.41 13.44C137.914 13.44 138.422 13.496 138.936 13.608C139.449 13.72 139.874 13.8787 140.21 14.084L139.538 15.414C139.183 15.1993 138.824 15.0547 138.46 14.98C138.105 14.896 137.75 14.854 137.396 14.854C136.864 14.854 136.467 14.9333 136.206 15.092C135.954 15.2507 135.828 15.4513 135.828 15.694C135.828 15.918 135.912 16.086 136.08 16.198C136.248 16.31 136.467 16.3987 136.738 16.464C137.008 16.5293 137.307 16.5853 137.634 16.632C137.97 16.6693 138.301 16.73 138.628 16.814C138.954 16.898 139.253 17.0147 139.524 17.164C139.804 17.304 140.028 17.5047 140.196 17.766C140.364 18.0273 140.448 18.368 140.448 18.788C140.448 19.2547 140.308 19.6607 140.028 20.006C139.757 20.3513 139.37 20.622 138.866 20.818C138.362 21.0047 137.76 21.098 137.06 21.098Z" fill="#ABABAB"/>
<path d="M152.625 16.5L153.875 17.75L156.375 15.25M150.125 10.875H158.875C159.565 10.875 160.125 11.4346 160.125 12.125V20.875C160.125 21.5654 159.565 22.125 158.875 22.125H150.125C149.435 22.125 148.875 21.5654 148.875 20.875V12.125C148.875 11.4346 149.435 10.875 150.125 10.875Z" stroke="#ABABAB" stroke-width="1.66667" stroke-linecap="round" stroke-linejoin="round"/>
</svg>
