<svg width="177" height="34" viewBox="0 0 177 34" fill="none" xmlns="http://www.w3.org/2000/svg">
<path d="M6 1.5H167.106C169.054 1.5 170.781 2.75361 171.384 4.60594L174.968 15.6059C175.263 16.5119 175.263 17.4881 174.968 18.3941L171.384 29.3941C170.781 31.2464 169.054 32.5 167.106 32.5H6.00001C3.51472 32.5 1.5 30.4853 1.5 28V6C1.5 3.51472 3.51472 1.5 6 1.5Z" fill="#FFEFB9" stroke="#FFAE00" stroke-width="3"/>
<path d="M31.5474 21.1742C30.782 21.1742 30.0494 21.0668 29.3494 20.8522C28.6494 20.6282 28.094 20.3435 27.6834 19.9982L28.3134 18.5842C28.7054 18.8922 29.1907 19.1488 29.7694 19.3542C30.348 19.5595 30.9407 19.6622 31.5474 19.6622C32.0607 19.6622 32.476 19.6062 32.7934 19.4942C33.1107 19.3822 33.344 19.2328 33.4934 19.0462C33.6427 18.8502 33.7174 18.6308 33.7174 18.3882C33.7174 18.0895 33.61 17.8515 33.3954 17.6742C33.1807 17.4875 32.9007 17.3428 32.5554 17.2402C32.2194 17.1282 31.8414 17.0255 31.4214 16.9322C31.0107 16.8388 30.5954 16.7315 30.1754 16.6102C29.7647 16.4795 29.3867 16.3162 29.0414 16.1202C28.7054 15.9148 28.43 15.6442 28.2154 15.3082C28.0007 14.9722 27.8934 14.5428 27.8934 14.0202C27.8934 13.4882 28.0334 13.0028 28.3134 12.5642C28.6027 12.1162 29.0367 11.7615 29.6154 11.5002C30.2034 11.2295 30.9454 11.0942 31.8414 11.0942C32.4294 11.0942 33.0127 11.1688 33.5914 11.3182C34.17 11.4675 34.674 11.6822 35.1034 11.9622L34.5294 13.3762C34.0907 13.1148 33.638 12.9235 33.1714 12.8022C32.7047 12.6715 32.2567 12.6062 31.8274 12.6062C31.3234 12.6062 30.9127 12.6668 30.5954 12.7882C30.2874 12.9095 30.0587 13.0682 29.9094 13.2642C29.7694 13.4602 29.6994 13.6842 29.6994 13.9362C29.6994 14.2348 29.802 14.4775 30.0074 14.6642C30.222 14.8415 30.4974 14.9815 30.8334 15.0842C31.1787 15.1868 31.5614 15.2895 31.9814 15.3922C32.4014 15.4855 32.8167 15.5928 33.2274 15.7142C33.6474 15.8355 34.0254 15.9942 34.3614 16.1902C34.7067 16.3862 34.982 16.6522 35.1874 16.9882C35.402 17.3242 35.5094 17.7488 35.5094 18.2622C35.5094 18.7848 35.3647 19.2702 35.0754 19.7182C34.7954 20.1568 34.3614 20.5115 33.7734 20.7822C33.1854 21.0435 32.4434 21.1742 31.5474 21.1742ZM40.66 21.1322C39.8294 21.1322 39.1014 20.9688 38.476 20.6422C37.86 20.3062 37.3794 19.8488 37.034 19.2702C36.698 18.6915 36.53 18.0335 36.53 17.2962C36.53 16.5495 36.6934 15.8915 37.02 15.3222C37.356 14.7435 37.8134 14.2908 38.392 13.9642C38.98 13.6375 39.6474 13.4742 40.394 13.4742C41.122 13.4742 41.7707 13.6328 42.34 13.9502C42.9094 14.2675 43.3574 14.7155 43.684 15.2942C44.0107 15.8728 44.174 16.5542 44.174 17.3382C44.174 17.4128 44.1694 17.4968 44.16 17.5902C44.16 17.6835 44.1554 17.7722 44.146 17.8562H37.916V16.6942H43.222L42.536 17.0582C42.5454 16.6288 42.4567 16.2508 42.27 15.9242C42.0834 15.5975 41.8267 15.3408 41.5 15.1542C41.1827 14.9675 40.814 14.8742 40.394 14.8742C39.9647 14.8742 39.5867 14.9675 39.26 15.1542C38.9427 15.3408 38.6907 15.6022 38.504 15.9382C38.3267 16.2648 38.238 16.6522 38.238 17.1002V17.3802C38.238 17.8282 38.3407 18.2248 38.546 18.5702C38.7514 18.9155 39.0407 19.1815 39.414 19.3682C39.7874 19.5548 40.2167 19.6482 40.702 19.6482C41.122 19.6482 41.5 19.5828 41.836 19.4522C42.172 19.3215 42.4707 19.1162 42.732 18.8362L43.67 19.9142C43.334 20.3062 42.9094 20.6095 42.396 20.8242C41.892 21.0295 41.3134 21.1322 40.66 21.1322ZM45.855 21.0342V10.6462H47.605V21.0342H45.855ZM53.4159 21.1322C52.5852 21.1322 51.8572 20.9688 51.2319 20.6422C50.6159 20.3062 50.1352 19.8488 49.7899 19.2702C49.4539 18.6915 49.2859 18.0335 49.2859 17.2962C49.2859 16.5495 49.4492 15.8915 49.7759 15.3222C50.1119 14.7435 50.5692 14.2908 51.1479 13.9642C51.7359 13.6375 52.4032 13.4742 53.1499 13.4742C53.8779 13.4742 54.5266 13.6328 55.0959 13.9502C55.6652 14.2675 56.1132 14.7155 56.4399 15.2942C56.7666 15.8728 56.9299 16.5542 56.9299 17.3382C56.9299 17.4128 56.9252 17.4968 56.9159 17.5902C56.9159 17.6835 56.9112 17.7722 56.9019 17.8562H50.6719V16.6942H55.9779L55.2919 17.0582C55.3012 16.6288 55.2126 16.2508 55.0259 15.9242C54.8392 15.5975 54.5826 15.3408 54.2559 15.1542C53.9386 14.9675 53.5699 14.8742 53.1499 14.8742C52.7206 14.8742 52.3426 14.9675 52.0159 15.1542C51.6986 15.3408 51.4466 15.6022 51.2599 15.9382C51.0826 16.2648 50.9939 16.6522 50.9939 17.1002V17.3802C50.9939 17.8282 51.0966 18.2248 51.3019 18.5702C51.5072 18.9155 51.7966 19.1815 52.1699 19.3682C52.5432 19.5548 52.9726 19.6482 53.4579 19.6482C53.8779 19.6482 54.2559 19.5828 54.5919 19.4522C54.9279 19.3215 55.2266 19.1162 55.4879 18.8362L56.4259 19.9142C56.0899 20.3062 55.6652 20.6095 55.1519 20.8242C54.6479 21.0295 54.0692 21.1322 53.4159 21.1322ZM62.0409 21.1322C61.2569 21.1322 60.5569 20.9688 59.9409 20.6422C59.3342 20.3062 58.8582 19.8488 58.5129 19.2702C58.1676 18.6915 57.9949 18.0335 57.9949 17.2962C57.9949 16.5495 58.1676 15.8915 58.5129 15.3222C58.8582 14.7435 59.3342 14.2908 59.9409 13.9642C60.5569 13.6375 61.2569 13.4742 62.0409 13.4742C62.7689 13.4742 63.4082 13.6235 63.9589 13.9222C64.5189 14.2115 64.9436 14.6408 65.2329 15.2102L63.8889 15.9942C63.6649 15.6395 63.3896 15.3782 63.0629 15.2102C62.7456 15.0422 62.4002 14.9582 62.0269 14.9582C61.5976 14.9582 61.2102 15.0515 60.8649 15.2382C60.5196 15.4248 60.2489 15.6955 60.0529 16.0502C59.8569 16.3955 59.7589 16.8108 59.7589 17.2962C59.7589 17.7815 59.8569 18.2015 60.0529 18.5562C60.2489 18.9015 60.5196 19.1675 60.8649 19.3542C61.2102 19.5408 61.5976 19.6342 62.0269 19.6342C62.4002 19.6342 62.7456 19.5502 63.0629 19.3822C63.3896 19.2142 63.6649 18.9528 63.8889 18.5982L65.2329 19.3822C64.9436 19.9422 64.5189 20.3762 63.9589 20.6842C63.4082 20.9828 62.7689 21.1322 62.0409 21.1322ZM69.6554 21.1322C68.834 21.1322 68.1994 20.9222 67.7514 20.5022C67.3034 20.0728 67.0794 19.4428 67.0794 18.6122V11.9062H68.8294V18.5702C68.8294 18.9248 68.918 19.2002 69.0954 19.3962C69.282 19.5922 69.5387 19.6902 69.8654 19.6902C70.2574 19.6902 70.584 19.5875 70.8454 19.3822L71.3354 20.6282C71.13 20.7962 70.878 20.9222 70.5794 21.0062C70.2807 21.0902 69.9727 21.1322 69.6554 21.1322ZM65.8474 15.0142V13.6142H70.8314V15.0142H65.8474ZM79.8501 21.1742C79.0848 21.1742 78.3521 21.0668 77.6521 20.8522C76.9521 20.6282 76.3968 20.3435 75.9861 19.9982L76.6161 18.5842C77.0081 18.8922 77.4934 19.1488 78.0721 19.3542C78.6508 19.5595 79.2434 19.6622 79.8501 19.6622C80.3634 19.6622 80.7788 19.6062 81.0961 19.4942C81.4134 19.3822 81.6468 19.2328 81.7961 19.0462C81.9454 18.8502 82.0201 18.6308 82.0201 18.3882C82.0201 18.0895 81.9128 17.8515 81.6981 17.6742C81.4834 17.4875 81.2034 17.3428 80.8581 17.2402C80.5221 17.1282 80.1441 17.0255 79.7241 16.9322C79.3134 16.8388 78.8981 16.7315 78.4781 16.6102C78.0674 16.4795 77.6894 16.3162 77.3441 16.1202C77.0081 15.9148 76.7328 15.6442 76.5181 15.3082C76.3034 14.9722 76.1961 14.5428 76.1961 14.0202C76.1961 13.4882 76.3361 13.0028 76.6161 12.5642C76.9054 12.1162 77.3394 11.7615 77.9181 11.5002C78.5061 11.2295 79.2481 11.0942 80.1441 11.0942C80.7321 11.0942 81.3154 11.1688 81.8941 11.3182C82.4728 11.4675 82.9768 11.6822 83.4061 11.9622L82.8321 13.3762C82.3934 13.1148 81.9408 12.9235 81.4741 12.8022C81.0074 12.6715 80.5594 12.6062 80.1301 12.6062C79.6261 12.6062 79.2154 12.6668 78.8981 12.7882C78.5901 12.9095 78.3614 13.0682 78.2121 13.2642C78.0721 13.4602 78.0021 13.6842 78.0021 13.9362C78.0021 14.2348 78.1048 14.4775 78.3101 14.6642C78.5248 14.8415 78.8001 14.9815 79.1361 15.0842C79.4814 15.1868 79.8641 15.2895 80.2841 15.3922C80.7041 15.4855 81.1194 15.5928 81.5301 15.7142C81.9501 15.8355 82.3281 15.9942 82.6641 16.1902C83.0094 16.3862 83.2848 16.6522 83.4901 16.9882C83.7048 17.3242 83.8121 17.7488 83.8121 18.2622C83.8121 18.7848 83.6674 19.2702 83.3781 19.7182C83.0981 20.1568 82.6641 20.5115 82.0761 20.7822C81.4881 21.0435 80.7461 21.1742 79.8501 21.1742ZM88.2628 21.1322C87.4414 21.1322 86.8068 20.9222 86.3588 20.5022C85.9108 20.0728 85.6868 19.4428 85.6868 18.6122V11.9062H87.4368V18.5702C87.4368 18.9248 87.5254 19.2002 87.7028 19.3962C87.8894 19.5922 88.1461 19.6902 88.4728 19.6902C88.8648 19.6902 89.1914 19.5875 89.4528 19.3822L89.9428 20.6282C89.7374 20.7962 89.4854 20.9222 89.1868 21.0062C88.8881 21.0902 88.5801 21.1322 88.2628 21.1322ZM84.4548 15.0142V13.6142H89.4388V15.0142H84.4548ZM94.5464 21.1322C93.9117 21.1322 93.3517 21.0155 92.8664 20.7822C92.381 20.5395 92.003 20.1755 91.7324 19.6902C91.4617 19.1955 91.3264 18.5748 91.3264 17.8282V13.5582H93.0764V17.5902C93.0764 18.2622 93.2257 18.7662 93.5244 19.1022C93.8324 19.4288 94.2664 19.5922 94.8264 19.5922C95.237 19.5922 95.5917 19.5082 95.8904 19.3402C96.1984 19.1722 96.4364 18.9202 96.6044 18.5842C96.7817 18.2482 96.8704 17.8328 96.8704 17.3382V13.5582H98.6204V21.0342H96.9544V19.0182L97.2484 19.6342C96.9964 20.1195 96.6277 20.4928 96.1424 20.7542C95.657 21.0062 95.125 21.1322 94.5464 21.1322ZM104.076 21.1322C103.357 21.1322 102.708 20.9735 102.13 20.6562C101.56 20.3295 101.112 19.8815 100.786 19.3122C100.459 18.7428 100.296 18.0708 100.296 17.2962C100.296 16.5215 100.459 15.8495 100.786 15.2802C101.112 14.7108 101.56 14.2675 102.13 13.9502C102.708 13.6328 103.357 13.4742 104.076 13.4742C104.701 13.4742 105.261 13.6142 105.756 13.8942C106.25 14.1648 106.642 14.5802 106.932 15.1402C107.221 15.7002 107.366 16.4188 107.366 17.2962C107.366 18.1642 107.226 18.8828 106.946 19.4522C106.666 20.0122 106.278 20.4322 105.784 20.7122C105.289 20.9922 104.72 21.1322 104.076 21.1322ZM104.286 19.6342C104.706 19.6342 105.079 19.5408 105.406 19.3542C105.742 19.1675 106.008 18.8968 106.204 18.5422C106.409 18.1875 106.512 17.7722 106.512 17.2962C106.512 16.8108 106.409 16.3955 106.204 16.0502C106.008 15.6955 105.742 15.4248 105.406 15.2382C105.079 15.0515 104.706 14.9582 104.286 14.9582C103.866 14.9582 103.488 15.0515 103.152 15.2382C102.825 15.4248 102.559 15.6955 102.354 16.0502C102.158 16.3955 102.06 16.8108 102.06 17.2962C102.06 17.7722 102.158 18.1875 102.354 18.5422C102.559 18.8968 102.825 19.1675 103.152 19.3542C103.488 19.5408 103.866 19.6342 104.286 19.6342ZM106.554 21.0342V19.2702L106.624 17.2822L106.484 15.2942V10.6462H108.22V21.0342H106.554ZM114.037 21.1322C113.206 21.1322 112.478 20.9688 111.853 20.6422C111.237 20.3062 110.756 19.8488 110.411 19.2702C110.075 18.6915 109.907 18.0335 109.907 17.2962C109.907 16.5495 110.07 15.8915 110.397 15.3222C110.733 14.7435 111.19 14.2908 111.769 13.9642C112.357 13.6375 113.024 13.4742 113.771 13.4742C114.499 13.4742 115.148 13.6328 115.717 13.9502C116.286 14.2675 116.734 14.7155 117.061 15.2942C117.388 15.8728 117.551 16.5542 117.551 17.3382C117.551 17.4128 117.546 17.4968 117.537 17.5902C117.537 17.6835 117.532 17.7722 117.523 17.8562H111.293V16.6942H116.599L115.913 17.0582C115.922 16.6288 115.834 16.2508 115.647 15.9242C115.46 15.5975 115.204 15.3408 114.877 15.1542C114.56 14.9675 114.191 14.8742 113.771 14.8742C113.342 14.8742 112.964 14.9675 112.637 15.1542C112.32 15.3408 112.068 15.6022 111.881 15.9382C111.704 16.2648 111.615 16.6522 111.615 17.1002V17.3802C111.615 17.8282 111.718 18.2248 111.923 18.5702C112.128 18.9155 112.418 19.1815 112.791 19.3682C113.164 19.5548 113.594 19.6482 114.079 19.6482C114.499 19.6482 114.877 19.5828 115.213 19.4522C115.549 19.3215 115.848 19.1162 116.109 18.8362L117.047 19.9142C116.711 20.3062 116.286 20.6095 115.773 20.8242C115.269 21.0295 114.69 21.1322 114.037 21.1322ZM123.474 13.4742C124.071 13.4742 124.603 13.5908 125.07 13.8242C125.546 14.0575 125.919 14.4168 126.19 14.9022C126.461 15.3782 126.596 15.9942 126.596 16.7502V21.0342H124.846V16.9742C124.846 16.3115 124.687 15.8168 124.37 15.4902C124.062 15.1635 123.628 15.0002 123.068 15.0002C122.657 15.0002 122.293 15.0842 121.976 15.2522C121.659 15.4202 121.411 15.6722 121.234 16.0082C121.066 16.3348 120.982 16.7502 120.982 17.2542V21.0342H119.232V13.5582H120.898V15.5742L120.604 14.9582C120.865 14.4822 121.243 14.1182 121.738 13.8662C122.242 13.6048 122.821 13.4742 123.474 13.4742ZM131.63 21.1322C130.809 21.1322 130.174 20.9222 129.726 20.5022C129.278 20.0728 129.054 19.4428 129.054 18.6122V11.9062H130.804V18.5702C130.804 18.9248 130.893 19.2002 131.07 19.3962C131.257 19.5922 131.513 19.6902 131.84 19.6902C132.232 19.6902 132.559 19.5875 132.82 19.3822L133.31 20.6282C133.105 20.7962 132.853 20.9222 132.554 21.0062C132.255 21.0902 131.947 21.1322 131.63 21.1322ZM127.822 15.0142V13.6142H132.806V15.0142H127.822ZM137.06 21.1322C136.434 21.1322 135.832 21.0528 135.254 20.8942C134.684 20.7262 134.232 20.5255 133.896 20.2922L134.568 18.9622C134.904 19.1768 135.305 19.3542 135.772 19.4942C136.238 19.6342 136.705 19.7042 137.172 19.7042C137.722 19.7042 138.119 19.6295 138.362 19.4802C138.614 19.3308 138.74 19.1302 138.74 18.8782C138.74 18.6728 138.656 18.5188 138.488 18.4162C138.32 18.3042 138.1 18.2202 137.83 18.1642C137.559 18.1082 137.256 18.0568 136.92 18.0102C136.593 17.9635 136.262 17.9028 135.926 17.8282C135.599 17.7442 135.3 17.6275 135.03 17.4782C134.759 17.3195 134.54 17.1095 134.372 16.8482C134.204 16.5868 134.12 16.2415 134.12 15.8122C134.12 15.3362 134.255 14.9255 134.526 14.5802C134.796 14.2255 135.174 13.9548 135.66 13.7682C136.154 13.5722 136.738 13.4742 137.41 13.4742C137.914 13.4742 138.422 13.5302 138.936 13.6422C139.449 13.7542 139.874 13.9128 140.21 14.1182L139.538 15.4482C139.183 15.2335 138.824 15.0888 138.46 15.0142C138.105 14.9302 137.75 14.8882 137.396 14.8882C136.864 14.8882 136.467 14.9675 136.206 15.1262C135.954 15.2848 135.828 15.4855 135.828 15.7282C135.828 15.9522 135.912 16.1202 136.08 16.2322C136.248 16.3442 136.467 16.4328 136.738 16.4982C137.008 16.5635 137.307 16.6195 137.634 16.6662C137.97 16.7035 138.301 16.7642 138.628 16.8482C138.954 16.9322 139.253 17.0488 139.524 17.1982C139.804 17.3382 140.028 17.5388 140.196 17.8002C140.364 18.0615 140.448 18.4022 140.448 18.8222C140.448 19.2888 140.308 19.6948 140.028 20.0402C139.757 20.3855 139.37 20.6562 138.866 20.8522C138.362 21.0388 137.76 21.1322 137.06 21.1322Z" fill="#FF9500"/>
<path d="M152.625 16.5L153.875 17.75L156.375 15.25M150.125 10.875H158.875C159.565 10.875 160.125 11.4346 160.125 12.125V20.875C160.125 21.5654 159.565 22.125 158.875 22.125H150.125C149.435 22.125 148.875 21.5654 148.875 20.875V12.125C148.875 11.4346 149.435 10.875 150.125 10.875Z" stroke="#FF9500" stroke-width="1.66667" stroke-linecap="round" stroke-linejoin="round"/>
</svg>
