<svg width="118" height="34" viewBox="0 0 118 34" fill="none" xmlns="http://www.w3.org/2000/svg">
<path d="M6 1.5H108.117C110.067 1.5 111.795 2.75535 112.397 4.60947L115.971 15.6095C116.265 16.5132 116.265 17.4868 115.971 18.3905L112.397 29.3905C111.795 31.2447 110.067 32.5 108.117 32.5H6C3.51472 32.5 1.5 30.4853 1.5 28V6C1.5 3.51472 3.51472 1.5 6 1.5Z" fill="#F4F4F4" stroke="#ABABAB" stroke-width="3"/>
<path d="M24.4673 22.14C23.7019 22.14 22.9693 22.0327 22.2693 21.818C21.5693 21.594 21.0139 21.3093 20.6033 20.964L21.2333 19.55C21.6253 19.858 22.1106 20.1147 22.6893 20.32C23.2679 20.5253 23.8606 20.628 24.4673 20.628C24.9806 20.628 25.3959 20.572 25.7133 20.46C26.0306 20.348 26.2639 20.1987 26.4133 20.012C26.5626 19.816 26.6373 19.5967 26.6373 19.354C26.6373 19.0553 26.5299 18.8173 26.3153 18.64C26.1006 18.4533 25.8206 18.3087 25.4753 18.206C25.1393 18.094 24.7613 17.9913 24.3413 17.898C23.9306 17.8047 23.5153 17.6973 23.0953 17.576C22.6846 17.4453 22.3066 17.282 21.9613 17.086C21.6253 16.8807 21.3499 16.61 21.1353 16.274C20.9206 15.938 20.8133 15.5087 20.8133 14.986C20.8133 14.454 20.9533 13.9687 21.2333 13.53C21.5226 13.082 21.9566 12.7273 22.5353 12.466C23.1233 12.1953 23.8653 12.06 24.7613 12.06C25.3493 12.06 25.9326 12.1347 26.5113 12.284C27.0899 12.4333 27.5939 12.648 28.0233 12.928L27.4493 14.342C27.0106 14.0807 26.5579 13.8893 26.0913 13.768C25.6246 13.6373 25.1766 13.572 24.7473 13.572C24.2433 13.572 23.8326 13.6327 23.5153 13.754C23.2073 13.8753 22.9786 14.034 22.8293 14.23C22.6893 14.426 22.6193 14.65 22.6193 14.902C22.6193 15.2007 22.7219 15.4433 22.9273 15.63C23.1419 15.8073 23.4173 15.9473 23.7533 16.05C24.0986 16.1527 24.4813 16.2553 24.9013 16.358C25.3213 16.4513 25.7366 16.5587 26.1473 16.68C26.5673 16.8013 26.9453 16.96 27.2813 17.156C27.6266 17.352 27.9019 17.618 28.1073 17.954C28.3219 18.29 28.4293 18.7147 28.4293 19.228C28.4293 19.7507 28.2846 20.236 27.9953 20.684C27.7153 21.1227 27.2813 21.4773 26.6933 21.748C26.1053 22.0093 25.3633 22.14 24.4673 22.14ZM33.58 22.098C32.7493 22.098 32.0213 21.9347 31.396 21.608C30.78 21.272 30.2993 20.8147 29.954 20.236C29.618 19.6573 29.45 18.9993 29.45 18.262C29.45 17.5153 29.6133 16.8573 29.94 16.288C30.276 15.7093 30.7333 15.2567 31.312 14.93C31.9 14.6033 32.5673 14.44 33.314 14.44C34.042 14.44 34.6906 14.5987 35.26 14.916C35.8293 15.2333 36.2773 15.6813 36.604 16.26C36.9306 16.8387 37.094 17.52 37.094 18.304C37.094 18.3787 37.0893 18.4627 37.08 18.556C37.08 18.6493 37.0753 18.738 37.066 18.822H30.836V17.66H36.142L35.456 18.024C35.4653 17.5947 35.3766 17.2167 35.19 16.89C35.0033 16.5633 34.7466 16.3067 34.42 16.12C34.1026 15.9333 33.734 15.84 33.314 15.84C32.8846 15.84 32.5066 15.9333 32.18 16.12C31.8626 16.3067 31.6106 16.568 31.424 16.904C31.2466 17.2307 31.158 17.618 31.158 18.066V18.346C31.158 18.794 31.2606 19.1907 31.466 19.536C31.6713 19.8813 31.9606 20.1473 32.334 20.334C32.7073 20.5207 33.1366 20.614 33.622 20.614C34.042 20.614 34.42 20.5487 34.756 20.418C35.092 20.2873 35.3906 20.082 35.652 19.802L36.59 20.88C36.254 21.272 35.8293 21.5753 35.316 21.79C34.812 21.9953 34.2333 22.098 33.58 22.098ZM41.589 22.098C40.7676 22.098 40.133 21.888 39.685 21.468C39.237 21.0387 39.013 20.4087 39.013 19.578V12.872H40.763V19.536C40.763 19.8907 40.8516 20.166 41.029 20.362C41.2156 20.558 41.4723 20.656 41.799 20.656C42.191 20.656 42.5176 20.5533 42.779 20.348L43.269 21.594C43.0636 21.762 42.8116 21.888 42.513 21.972C42.2143 22.056 41.9063 22.098 41.589 22.098ZM37.781 15.98V14.58H42.765V15.98H37.781ZM47.3448 22.098C46.5235 22.098 45.8888 21.888 45.4408 21.468C44.9928 21.0387 44.7688 20.4087 44.7688 19.578V12.872H46.5188V19.536C46.5188 19.8907 46.6075 20.166 46.7848 20.362C46.9715 20.558 47.2281 20.656 47.5548 20.656C47.9468 20.656 48.2735 20.5533 48.5348 20.348L49.0248 21.594C48.8195 21.762 48.5675 21.888 48.2688 21.972C47.9701 22.056 47.6621 22.098 47.3448 22.098ZM43.5368 15.98V14.58H48.5208V15.98H43.5368ZM50.4644 22V14.524H52.2144V22H50.4644ZM51.3464 13.292C51.0197 13.292 50.7491 13.1893 50.5344 12.984C50.3291 12.7787 50.2264 12.5313 50.2264 12.242C50.2264 11.9433 50.3291 11.696 50.5344 11.5C50.7491 11.2947 51.0197 11.192 51.3464 11.192C51.6731 11.192 51.9391 11.29 52.1444 11.486C52.3591 11.6727 52.4664 11.9107 52.4664 12.2C52.4664 12.508 52.3637 12.7693 52.1584 12.984C51.9531 13.1893 51.6824 13.292 51.3464 13.292ZM58.7533 14.44C59.3506 14.44 59.8826 14.5567 60.3493 14.79C60.8253 15.0233 61.1986 15.3827 61.4693 15.868C61.7399 16.344 61.8753 16.96 61.8753 17.716V22H60.1253V17.94C60.1253 17.2773 59.9666 16.7827 59.6493 16.456C59.3413 16.1293 58.9073 15.966 58.3473 15.966C57.9366 15.966 57.5726 16.05 57.2553 16.218C56.9379 16.386 56.6906 16.638 56.5133 16.974C56.3453 17.3007 56.2613 17.716 56.2613 18.22V22H54.5113V14.524H56.1773V16.54L55.8833 15.924C56.1446 15.448 56.5226 15.084 57.0173 14.832C57.5213 14.5707 58.0999 14.44 58.7533 14.44ZM67.4969 24.814C66.8063 24.814 66.1296 24.7207 65.4669 24.534C64.8136 24.3567 64.2769 24.0953 63.8569 23.75L64.6409 22.434C64.9676 22.7047 65.3783 22.9193 65.8729 23.078C66.3769 23.246 66.8856 23.33 67.3989 23.33C68.2203 23.33 68.8223 23.1387 69.2049 22.756C69.5876 22.3827 69.7789 21.818 69.7789 21.062V19.732L69.9189 18.038L69.8629 16.344V14.524H71.5289V20.866C71.5289 22.2193 71.1836 23.2133 70.4929 23.848C69.8023 24.492 68.8036 24.814 67.4969 24.814ZM67.2729 21.664C66.5636 21.664 65.9196 21.5147 65.3409 21.216C64.7716 20.908 64.3189 20.4833 63.9829 19.942C63.6563 19.4007 63.4929 18.766 63.4929 18.038C63.4929 17.3193 63.6563 16.6893 63.9829 16.148C64.3189 15.6067 64.7716 15.1867 65.3409 14.888C65.9196 14.5893 66.5636 14.44 67.2729 14.44C67.9076 14.44 68.4769 14.566 68.9809 14.818C69.4849 15.07 69.8863 15.462 70.1849 15.994C70.4929 16.526 70.6469 17.2073 70.6469 18.038C70.6469 18.8687 70.4929 19.5547 70.1849 20.096C69.8863 20.628 69.4849 21.0247 68.9809 21.286C68.4769 21.538 67.9076 21.664 67.2729 21.664ZM67.5389 20.18C67.9776 20.18 68.3696 20.0913 68.7149 19.914C69.0603 19.7273 69.3263 19.4753 69.5129 19.158C69.7089 18.8313 69.8069 18.458 69.8069 18.038C69.8069 17.618 69.7089 17.2493 69.5129 16.932C69.3263 16.6053 69.0603 16.358 68.7149 16.19C68.3696 16.0127 67.9776 15.924 67.5389 15.924C67.1003 15.924 66.7036 16.0127 66.3489 16.19C66.0036 16.358 65.7329 16.6053 65.5369 16.932C65.3503 17.2493 65.2569 17.618 65.2569 18.038C65.2569 18.458 65.3503 18.8313 65.5369 19.158C65.7329 19.4753 66.0036 19.7273 66.3489 19.914C66.7036 20.0913 67.1003 20.18 67.5389 20.18ZM76.1396 22.098C75.5143 22.098 74.9123 22.0187 74.3336 21.86C73.7643 21.692 73.3116 21.4913 72.9756 21.258L73.6476 19.928C73.9836 20.1427 74.385 20.32 74.8516 20.46C75.3183 20.6 75.785 20.67 76.2516 20.67C76.8023 20.67 77.199 20.5953 77.4416 20.446C77.6936 20.2967 77.8196 20.096 77.8196 19.844C77.8196 19.6387 77.7356 19.4847 77.5676 19.382C77.3996 19.27 77.1803 19.186 76.9096 19.13C76.639 19.074 76.3356 19.0227 75.9996 18.976C75.673 18.9293 75.3416 18.8687 75.0056 18.794C74.679 18.71 74.3803 18.5933 74.1096 18.444C73.839 18.2853 73.6196 18.0753 73.4516 17.814C73.2836 17.5527 73.1996 17.2073 73.1996 16.778C73.1996 16.302 73.335 15.8913 73.6056 15.546C73.8763 15.1913 74.2543 14.9207 74.7396 14.734C75.2343 14.538 75.8176 14.44 76.4896 14.44C76.9936 14.44 77.5023 14.496 78.0156 14.608C78.529 14.72 78.9536 14.8787 79.2896 15.084L78.6176 16.414C78.263 16.1993 77.9036 16.0547 77.5396 15.98C77.185 15.896 76.8303 15.854 76.4756 15.854C75.9436 15.854 75.547 15.9333 75.2856 16.092C75.0336 16.2507 74.9076 16.4513 74.9076 16.694C74.9076 16.918 74.9916 17.086 75.1596 17.198C75.3276 17.31 75.547 17.3987 75.8176 17.464C76.0883 17.5293 76.387 17.5853 76.7136 17.632C77.0496 17.6693 77.381 17.73 77.7076 17.814C78.0343 17.898 78.333 18.0147 78.6036 18.164C78.8836 18.304 79.1076 18.5047 79.2756 18.766C79.4436 19.0273 79.5276 19.368 79.5276 19.788C79.5276 20.2547 79.3876 20.6607 79.1076 21.006C78.837 21.3513 78.4496 21.622 77.9456 21.818C77.4416 22.0047 76.8396 22.098 76.1396 22.098Z" fill="#ABABAB"/>
<path d="M94.625 17.5L95.875 18.75L98.375 16.25M92.125 11.875H100.875C101.565 11.875 102.125 12.4346 102.125 13.125V21.875C102.125 22.5654 101.565 23.125 100.875 23.125H92.125C91.4346 23.125 90.875 22.5654 90.875 21.875V13.125C90.875 12.4346 91.4346 11.875 92.125 11.875Z" stroke="#ABABAB" stroke-width="1.66667" stroke-linecap="round" stroke-linejoin="round"/>
</svg>
