<svg width="98" height="98" viewBox="0 0 98 98" fill="none" xmlns="http://www.w3.org/2000/svg">
<path d="M30 87C32.2091 87 34 85.2091 34 83L34 9.99999C34 7.79086 32.2091 6 30 6L9 6C6.23858 6 4 8.23858 4 11L4.00001 81C4.00001 84.3137 6.6863 87 10 87L30 87Z" fill="#FFD13B"/>
<path d="M4 82C4 86.4183 7.58172 90 12 90H85C89.9706 90 94 85.9706 94 81V64C94 61.7909 92.2091 60 90 60H12C7.58172 60 4 63.5817 4 68V82Z" fill="#E962FF"/>
<path d="M87 90C90.866 90 94 86.866 94 83L94 7C94 3.13401 90.866 -2.0008e-06 87 -1.67492e-06L69 -1.57634e-07C66.2386 7.51363e-08 64 2.23858 64 5L64 84C64 87.3137 66.6863 90 70 90L87 90Z" fill="#3C5AFF"/>
<path d="M7 25C7 27.7614 9.23858 30 12 30L82 30C85.3137 30 88 27.3137 88 24V7C88 3.13401 84.866 -1.19209e-07 81 -1.19209e-07L14 -1.19209e-07C10.134 -1.19209e-07 7 3.13401 7 7L7 25Z" fill="#29DB0B"/>
<g filter="url(#filter0_d_1276_201)">
<rect width="30" height="30" rx="6" transform="matrix(1 0 0 -1 64 30)" fill="#B3FFA7"/>
</g>
<path d="M30 50C32.2091 50 34 48.2091 34 46L34 7C34 3.13401 30.866 -5.70288e-07 27 -2.44409e-07L11 1.10429e-06C7.13401 1.43017e-06 4 3.13401 4 7L4 44C4 47.3137 6.68629 50 10 50L30 50Z" fill="#FFD13B"/>
<g filter="url(#filter1_d_1276_201)">
<rect width="30" height="30" rx="6" transform="matrix(1 0 0 -1 64 90)" fill="#9DACFF"/>
</g>
<g filter="url(#filter2_d_1276_201)">
<rect width="30" height="30" rx="6" transform="matrix(1 0 0 -1 4 90)" fill="#EF9DFF"/>
</g>
<g filter="url(#filter3_d_1276_201)">
<rect width="30" height="30" rx="6" transform="matrix(-8.42937e-08 -1 -1 8.42937e-08 34 30)" fill="#FFDE83"/>
</g>
<defs>
<filter id="filter0_d_1276_201" x="60" y="0" width="38" height="38" filterUnits="userSpaceOnUse" color-interpolation-filters="sRGB">
<feFlood flood-opacity="0" result="BackgroundImageFix"/>
<feColorMatrix in="SourceAlpha" type="matrix" values="0 0 0 0 0 0 0 0 0 0 0 0 0 0 0 0 0 0 127 0" result="hardAlpha"/>
<feOffset dy="4"/>
<feGaussianBlur stdDeviation="2"/>
<feComposite in2="hardAlpha" operator="out"/>
<feColorMatrix type="matrix" values="0 0 0 0 0 0 0 0 0 0 0 0 0 0 0 0 0 0 0.05 0"/>
<feBlend mode="normal" in2="BackgroundImageFix" result="effect1_dropShadow_1276_201"/>
<feBlend mode="normal" in="SourceGraphic" in2="effect1_dropShadow_1276_201" result="shape"/>
</filter>
<filter id="filter1_d_1276_201" x="60" y="60" width="38" height="38" filterUnits="userSpaceOnUse" color-interpolation-filters="sRGB">
<feFlood flood-opacity="0" result="BackgroundImageFix"/>
<feColorMatrix in="SourceAlpha" type="matrix" values="0 0 0 0 0 0 0 0 0 0 0 0 0 0 0 0 0 0 127 0" result="hardAlpha"/>
<feOffset dy="4"/>
<feGaussianBlur stdDeviation="2"/>
<feComposite in2="hardAlpha" operator="out"/>
<feColorMatrix type="matrix" values="0 0 0 0 0 0 0 0 0 0 0 0 0 0 0 0 0 0 0.05 0"/>
<feBlend mode="normal" in2="BackgroundImageFix" result="effect1_dropShadow_1276_201"/>
<feBlend mode="normal" in="SourceGraphic" in2="effect1_dropShadow_1276_201" result="shape"/>
</filter>
<filter id="filter2_d_1276_201" x="0" y="60" width="38" height="38" filterUnits="userSpaceOnUse" color-interpolation-filters="sRGB">
<feFlood flood-opacity="0" result="BackgroundImageFix"/>
<feColorMatrix in="SourceAlpha" type="matrix" values="0 0 0 0 0 0 0 0 0 0 0 0 0 0 0 0 0 0 127 0" result="hardAlpha"/>
<feOffset dy="4"/>
<feGaussianBlur stdDeviation="2"/>
<feComposite in2="hardAlpha" operator="out"/>
<feColorMatrix type="matrix" values="0 0 0 0 0 0 0 0 0 0 0 0 0 0 0 0 0 0 0.05 0"/>
<feBlend mode="normal" in2="BackgroundImageFix" result="effect1_dropShadow_1276_201"/>
<feBlend mode="normal" in="SourceGraphic" in2="effect1_dropShadow_1276_201" result="shape"/>
</filter>
<filter id="filter3_d_1276_201" x="0" y="0" width="38" height="38" filterUnits="userSpaceOnUse" color-interpolation-filters="sRGB">
<feFlood flood-opacity="0" result="BackgroundImageFix"/>
<feColorMatrix in="SourceAlpha" type="matrix" values="0 0 0 0 0 0 0 0 0 0 0 0 0 0 0 0 0 0 127 0" result="hardAlpha"/>
<feOffset dy="4"/>
<feGaussianBlur stdDeviation="2"/>
<feComposite in2="hardAlpha" operator="out"/>
<feColorMatrix type="matrix" values="0 0 0 0 0 0 0 0 0 0 0 0 0 0 0 0 0 0 0.05 0"/>
<feBlend mode="normal" in2="BackgroundImageFix" result="effect1_dropShadow_1276_201"/>
<feBlend mode="normal" in="SourceGraphic" in2="effect1_dropShadow_1276_201" result="shape"/>
</filter>
</defs>
</svg>
