<svg width="358" height="51" viewBox="0 0 358 51" fill="none" xmlns="http://www.w3.org/2000/svg">
<path d="M109.667 40.4C107.48 40.4 105.387 40.0933 103.387 39.48C101.387 38.84 99.7999 38.0267 98.6266 37.04L100.427 33C101.547 33.88 102.933 34.6133 104.587 35.2C106.24 35.7867 107.933 36.08 109.667 36.08C111.133 36.08 112.32 35.92 113.227 35.6C114.133 35.28 114.8 34.8533 115.227 34.32C115.653 33.76 115.867 33.1333 115.867 32.44C115.867 31.5867 115.56 30.9067 114.947 30.4C114.333 29.8667 113.533 29.4533 112.547 29.16C111.587 28.84 110.507 28.5467 109.307 28.28C108.133 28.0133 106.947 27.7067 105.747 27.36C104.573 26.9867 103.493 26.52 102.507 25.96C101.547 25.3733 100.76 24.6 100.147 23.64C99.5332 22.68 99.2266 21.4533 99.2266 19.96C99.2266 18.44 99.6266 17.0533 100.427 15.8C101.253 14.52 102.493 13.5067 104.147 12.76C105.827 11.9867 107.947 11.6 110.507 11.6C112.187 11.6 113.853 11.8133 115.507 12.24C117.16 12.6667 118.6 13.28 119.827 14.08L118.187 18.12C116.933 17.3733 115.64 16.8267 114.307 16.48C112.973 16.1067 111.693 15.92 110.467 15.92C109.027 15.92 107.853 16.0933 106.947 16.44C106.067 16.7867 105.413 17.24 104.987 17.8C104.587 18.36 104.387 19 104.387 19.72C104.387 20.5733 104.68 21.2667 105.267 21.8C105.88 22.3067 106.667 22.7067 107.627 23C108.613 23.2933 109.707 23.5867 110.907 23.88C112.107 24.1467 113.293 24.4533 114.467 24.8C115.667 25.1467 116.747 25.6 117.707 26.16C118.693 26.72 119.48 27.48 120.067 28.44C120.68 29.4 120.987 30.6133 120.987 32.08C120.987 33.5733 120.573 34.96 119.747 36.24C118.947 37.4933 117.707 38.5067 116.027 39.28C114.347 40.0267 112.227 40.4 109.667 40.4ZM134.703 40.28C132.649 40.28 130.796 39.8267 129.143 38.92C127.516 38.0133 126.236 36.7467 125.303 35.12C124.369 33.4667 123.903 31.5333 123.903 29.32C123.903 27.1067 124.369 25.1867 125.303 23.56C126.236 21.9333 127.516 20.6667 129.143 19.76C130.796 18.8533 132.649 18.4 134.703 18.4C136.543 18.4 138.156 18.8 139.543 19.6C140.956 20.3733 142.063 21.56 142.863 23.16C143.689 24.76 144.103 26.8133 144.103 29.32C144.103 31.8 143.676 33.8533 142.823 35.48C141.996 37.08 140.876 38.28 139.463 39.08C138.049 39.88 136.463 40.28 134.703 40.28ZM135.263 36C136.463 36 137.543 35.7333 138.503 35.2C139.463 34.6667 140.223 33.8933 140.783 32.88C141.343 31.8667 141.623 30.68 141.623 29.32C141.623 27.9333 141.343 26.7467 140.783 25.76C140.223 24.7467 139.463 23.9733 138.503 23.44C137.543 22.9067 136.463 22.64 135.263 22.64C134.063 22.64 132.983 22.9067 132.023 23.44C131.089 23.9733 130.343 24.7467 129.783 25.76C129.223 26.7467 128.943 27.9333 128.943 29.32C128.943 30.68 129.223 31.8667 129.783 32.88C130.343 33.8933 131.089 34.6667 132.023 35.2C132.983 35.7333 134.063 36 135.263 36ZM141.543 47.76V35.04L141.943 29.36L141.783 23.68V18.64H146.543V47.76H141.543ZM162.125 40.28C160.311 40.28 158.711 39.9467 157.325 39.28C155.938 38.5867 154.858 37.5467 154.085 36.16C153.311 34.7467 152.925 32.9733 152.925 30.84V18.64H157.925V30.16C157.925 32.08 158.351 33.52 159.205 34.48C160.085 35.4133 161.325 35.88 162.925 35.88C164.098 35.88 165.111 35.64 165.965 35.16C166.845 34.68 167.525 33.96 168.005 33C168.511 32.04 168.765 30.8533 168.765 29.44V18.64H173.765V40H169.005V34.24L169.845 36C169.125 37.3867 168.071 38.4533 166.685 39.2C165.298 39.92 163.778 40.28 162.125 40.28ZM193.471 40V35.68L193.191 34.76V27.2C193.191 25.7333 192.751 24.6 191.871 23.8C190.991 22.9733 189.658 22.56 187.871 22.56C186.671 22.56 185.485 22.7467 184.311 23.12C183.165 23.4933 182.191 24.0133 181.391 24.68L179.431 21.04C180.578 20.16 181.938 19.5067 183.511 19.08C185.111 18.6267 186.765 18.4 188.471 18.4C191.565 18.4 193.951 19.1467 195.631 20.64C197.338 22.1067 198.191 24.3867 198.191 27.48V40H193.471ZM186.751 40.28C185.151 40.28 183.751 40.0133 182.551 39.48C181.351 38.92 180.418 38.16 179.751 37.2C179.111 36.2133 178.791 35.1067 178.791 33.88C178.791 32.68 179.071 31.6 179.631 30.64C180.218 29.68 181.165 28.92 182.471 28.36C183.778 27.8 185.511 27.52 187.671 27.52H193.871V30.84H188.031C186.325 30.84 185.178 31.12 184.591 31.68C184.005 32.2133 183.711 32.88 183.711 33.68C183.711 34.5867 184.071 35.3067 184.791 35.84C185.511 36.3733 186.511 36.64 187.791 36.64C189.018 36.64 190.111 36.36 191.071 35.8C192.058 35.24 192.765 34.4133 193.191 33.32L194.031 36.32C193.551 37.5733 192.685 38.5467 191.431 39.24C190.205 39.9333 188.645 40.28 186.751 40.28ZM204.608 40V18.64H209.368V24.52L208.808 22.8C209.448 21.36 210.448 20.2667 211.808 19.52C213.195 18.7733 214.915 18.4 216.968 18.4V23.16C216.755 23.1067 216.555 23.08 216.368 23.08C216.181 23.0533 215.995 23.04 215.808 23.04C213.915 23.04 212.408 23.6 211.288 24.72C210.168 25.8133 209.608 27.4533 209.608 29.64V40H204.608ZM231.054 40.28C228.681 40.28 226.601 39.8133 224.814 38.88C223.054 37.92 221.681 36.6133 220.694 34.96C219.734 33.3067 219.254 31.4267 219.254 29.32C219.254 27.1867 219.721 25.3067 220.654 23.68C221.614 22.0267 222.921 20.7333 224.574 19.8C226.254 18.8667 228.161 18.4 230.294 18.4C232.374 18.4 234.228 18.8533 235.854 19.76C237.481 20.6667 238.761 21.9467 239.694 23.6C240.628 25.2533 241.094 27.2 241.094 29.44C241.094 29.6533 241.081 29.8933 241.054 30.16C241.054 30.4267 241.041 30.68 241.014 30.92H223.214V27.6H238.374L236.414 28.64C236.441 27.4133 236.188 26.3333 235.654 25.4C235.121 24.4667 234.388 23.7333 233.454 23.2C232.548 22.6667 231.494 22.4 230.294 22.4C229.068 22.4 227.988 22.6667 227.054 23.2C226.148 23.7333 225.428 24.48 224.894 25.44C224.388 26.3733 224.134 27.48 224.134 28.76V29.56C224.134 30.84 224.428 31.9733 225.014 32.96C225.601 33.9467 226.428 34.7067 227.494 35.24C228.561 35.7733 229.788 36.04 231.174 36.04C232.374 36.04 233.454 35.8533 234.414 35.48C235.374 35.1067 236.228 34.52 236.974 33.72L239.654 36.8C238.694 37.92 237.481 38.7867 236.014 39.4C234.574 39.9867 232.921 40.28 231.054 40.28ZM255.057 40.4C252.871 40.4 250.777 40.0933 248.777 39.48C246.777 38.84 245.191 38.0267 244.017 37.04L245.817 33C246.937 33.88 248.324 34.6133 249.977 35.2C251.631 35.7867 253.324 36.08 255.057 36.08C256.524 36.08 257.711 35.92 258.617 35.6C259.524 35.28 260.191 34.8533 260.617 34.32C261.044 33.76 261.257 33.1333 261.257 32.44C261.257 31.5867 260.951 30.9067 260.337 30.4C259.724 29.8667 258.924 29.4533 257.937 29.16C256.977 28.84 255.897 28.5467 254.697 28.28C253.524 28.0133 252.337 27.7067 251.137 27.36C249.964 26.9867 248.884 26.52 247.897 25.96C246.937 25.3733 246.151 24.6 245.537 23.64C244.924 22.68 244.617 21.4533 244.617 19.96C244.617 18.44 245.017 17.0533 245.817 15.8C246.644 14.52 247.884 13.5067 249.537 12.76C251.217 11.9867 253.337 11.6 255.897 11.6C257.577 11.6 259.244 11.8133 260.897 12.24C262.551 12.6667 263.991 13.28 265.217 14.08L263.577 18.12C262.324 17.3733 261.031 16.8267 259.697 16.48C258.364 16.1067 257.084 15.92 255.857 15.92C254.417 15.92 253.244 16.0933 252.337 16.44C251.457 16.7867 250.804 17.24 250.377 17.8C249.977 18.36 249.777 19 249.777 19.72C249.777 20.5733 250.071 21.2667 250.657 21.8C251.271 22.3067 252.057 22.7067 253.017 23C254.004 23.2933 255.097 23.5867 256.297 23.88C257.497 24.1467 258.684 24.4533 259.857 24.8C261.057 25.1467 262.137 25.6 263.097 26.16C264.084 26.72 264.871 27.48 265.457 28.44C266.071 29.4 266.377 30.6133 266.377 32.08C266.377 33.5733 265.964 34.96 265.137 36.24C264.337 37.4933 263.097 38.5067 261.417 39.28C259.737 40.0267 257.617 40.4 255.057 40.4ZM280.853 40.28C278.613 40.28 276.613 39.8133 274.853 38.88C273.12 37.92 271.76 36.6133 270.773 34.96C269.787 33.3067 269.293 31.4267 269.293 29.32C269.293 27.1867 269.787 25.3067 270.773 23.68C271.76 22.0267 273.12 20.7333 274.853 19.8C276.613 18.8667 278.613 18.4 280.853 18.4C282.933 18.4 284.76 18.8267 286.333 19.68C287.933 20.5067 289.147 21.7333 289.973 23.36L286.133 25.6C285.493 24.5867 284.707 23.84 283.773 23.36C282.867 22.88 281.88 22.64 280.813 22.64C279.587 22.64 278.48 22.9067 277.493 23.44C276.507 23.9733 275.733 24.7467 275.173 25.76C274.613 26.7467 274.333 27.9333 274.333 29.32C274.333 30.7067 274.613 31.9067 275.173 32.92C275.733 33.9067 276.507 34.6667 277.493 35.2C278.48 35.7333 279.587 36 280.813 36C281.88 36 282.867 35.76 283.773 35.28C284.707 34.8 285.493 34.0533 286.133 33.04L289.973 35.28C289.147 36.88 287.933 38.12 286.333 39C284.76 39.8533 282.933 40.28 280.853 40.28ZM303.583 40.28C301.396 40.28 299.45 39.8133 297.743 38.88C296.036 37.92 294.69 36.6133 293.703 34.96C292.716 33.3067 292.223 31.4267 292.223 29.32C292.223 27.1867 292.716 25.3067 293.703 23.68C294.69 22.0267 296.036 20.7333 297.743 19.8C299.45 18.8667 301.396 18.4 303.583 18.4C305.796 18.4 307.756 18.8667 309.463 19.8C311.196 20.7333 312.543 22.0133 313.503 23.64C314.49 25.2667 314.983 27.16 314.983 29.32C314.983 31.4267 314.49 33.3067 313.503 34.96C312.543 36.6133 311.196 37.92 309.463 38.88C307.756 39.8133 305.796 40.28 303.583 40.28ZM303.583 36C304.81 36 305.903 35.7333 306.863 35.2C307.823 34.6667 308.57 33.8933 309.103 32.88C309.663 31.8667 309.943 30.68 309.943 29.32C309.943 27.9333 309.663 26.7467 309.103 25.76C308.57 24.7467 307.823 23.9733 306.863 23.44C305.903 22.9067 304.823 22.64 303.623 22.64C302.396 22.64 301.303 22.9067 300.343 23.44C299.41 23.9733 298.663 24.7467 298.103 25.76C297.543 26.7467 297.263 27.9333 297.263 29.32C297.263 30.68 297.543 31.8667 298.103 32.88C298.663 33.8933 299.41 34.6667 300.343 35.2C301.303 35.7333 302.383 36 303.583 36ZM319.764 40V18.64H324.524V24.52L323.964 22.8C324.604 21.36 325.604 20.2667 326.964 19.52C328.351 18.7733 330.071 18.4 332.124 18.4V23.16C331.911 23.1067 331.711 23.08 331.524 23.08C331.338 23.0533 331.151 23.04 330.964 23.04C329.071 23.04 327.564 23.6 326.444 24.72C325.324 25.8133 324.764 27.4533 324.764 29.64V40H319.764ZM346.211 40.28C343.837 40.28 341.757 39.8133 339.971 38.88C338.211 37.92 336.837 36.6133 335.851 34.96C334.891 33.3067 334.411 31.4267 334.411 29.32C334.411 27.1867 334.877 25.3067 335.811 23.68C336.771 22.0267 338.077 20.7333 339.731 19.8C341.411 18.8667 343.317 18.4 345.451 18.4C347.531 18.4 349.384 18.8533 351.011 19.76C352.637 20.6667 353.917 21.9467 354.851 23.6C355.784 25.2533 356.251 27.2 356.251 29.44C356.251 29.6533 356.237 29.8933 356.211 30.16C356.211 30.4267 356.197 30.68 356.171 30.92H338.371V27.6H353.531L351.571 28.64C351.597 27.4133 351.344 26.3333 350.811 25.4C350.277 24.4667 349.544 23.7333 348.611 23.2C347.704 22.6667 346.651 22.4 345.451 22.4C344.224 22.4 343.144 22.6667 342.211 23.2C341.304 23.7333 340.584 24.48 340.051 25.44C339.544 26.3733 339.291 27.48 339.291 28.76V29.56C339.291 30.84 339.584 31.9733 340.171 32.96C340.757 33.9467 341.584 34.7067 342.651 35.24C343.717 35.7733 344.944 36.04 346.331 36.04C347.531 36.04 348.611 35.8533 349.571 35.48C350.531 35.1067 351.384 34.52 352.131 33.72L354.811 36.8C353.851 37.92 352.637 38.7867 351.171 39.4C349.731 39.9867 348.077 40.28 346.211 40.28Z" fill="black"/>
<path d="M81 4L81 51" stroke="#D0D0D0" stroke-width="4"/>
<path d="M10.7414 45.2303L17.719 41.2018C18.9147 40.5114 19.3244 38.9824 18.634 37.7867L14.6056 30.8092C13.9152 29.6134 12.3862 29.2038 11.1905 29.8941L4.21296 33.9226C3.01723 34.6129 2.60754 36.1419 3.2979 37.3377L7.32638 44.3152C8.01674 45.5109 9.54571 45.9206 10.7414 45.2303Z" fill="#FFEAAF" stroke="#FFAE00" stroke-width="3"/>
<path d="M56.8079 18.6346L63.7854 14.6061C64.9811 13.9157 65.3908 12.3867 64.7005 11.191L60.672 4.21347C59.9816 3.01774 58.4526 2.60805 57.2569 3.29841L50.2794 7.32689C49.0836 8.01725 48.6739 9.54622 49.3643 10.742L53.3928 17.7195C54.0831 18.9152 55.6121 19.3249 56.8079 18.6346Z" fill="#92A3FF" stroke="#020CFF" stroke-width="3"/>
<rect x="-2.5" y="-2.5" width="21.0926" height="21.0926" rx="4.5" transform="matrix(4.37114e-08 -1 -1 -4.37114e-08 41.9258 32.1328)" stroke="black" stroke-width="5"/>
<path d="M4.3391 14.6072L11.3166 18.6357C12.5124 19.3261 14.0413 18.9164 14.7317 17.7206L18.7602 10.7431C19.4505 9.54736 19.0409 8.01838 17.8451 7.32802L10.8676 3.29954C9.67185 2.60919 8.14288 3.01887 7.45252 4.21461L3.42404 11.1921C2.73368 12.3879 3.14337 13.9169 4.3391 14.6072Z" fill="#AEF2A3" stroke="#2BB514" stroke-width="3"/>
<path d="M50.0149 40.9783L56.9924 45.0068C58.1882 45.6971 59.7171 45.2875 60.4075 44.0917L64.436 37.1142C65.1263 35.9185 64.7166 34.3895 63.5209 33.6991L56.5434 29.6706C55.3476 28.9803 53.8187 29.39 53.1283 30.5857L49.0998 37.5632C48.4095 38.759 48.8192 40.2879 50.0149 40.9783Z" fill="#F5B6FF" stroke="#E441FF" stroke-width="3"/>
</svg>
