<svg width="68" height="49" viewBox="0 0 68 49" fill="none" xmlns="http://www.w3.org/2000/svg">
<path d="M10.7414 45.2303L17.719 41.2018C18.9147 40.5114 19.3244 38.9824 18.634 37.7867L14.6056 30.8092C13.9152 29.6134 12.3862 29.2038 11.1905 29.8941L4.21296 33.9226C3.01723 34.6129 2.60754 36.1419 3.2979 37.3377L7.32638 44.3152C8.01674 45.5109 9.54571 45.9206 10.7414 45.2303Z" fill="#FFEAAF" stroke="#FFAE00" stroke-width="3"/>
<path d="M56.8079 18.6346L63.7854 14.6061C64.9811 13.9157 65.3908 12.3867 64.7005 11.191L60.672 4.21347C59.9816 3.01774 58.4526 2.60805 57.2569 3.29841L50.2794 7.32689C49.0836 8.01725 48.6739 9.54622 49.3643 10.742L53.3928 17.7195C54.0831 18.9152 55.6121 19.3249 56.8079 18.6346Z" fill="#92A3FF" stroke="#020CFF" stroke-width="3"/>
<rect x="-2.5" y="-2.5" width="21.0926" height="21.0926" rx="4.5" transform="matrix(4.37114e-08 -1 -1 -4.37114e-08 41.9258 32.1328)" stroke="black" stroke-width="5"/>
<path d="M4.3391 14.6072L11.3166 18.6357C12.5124 19.3261 14.0413 18.9164 14.7317 17.7206L18.7602 10.7431C19.4505 9.54736 19.0409 8.01838 17.8451 7.32802L10.8676 3.29954C9.67185 2.60919 8.14288 3.01887 7.45252 4.21461L3.42404 11.1921C2.73368 12.3879 3.14337 13.9169 4.3391 14.6072Z" fill="#AEF2A3" stroke="#2BB514" stroke-width="3"/>
<path d="M50.0149 40.9783L56.9924 45.0068C58.1882 45.6971 59.7171 45.2875 60.4075 44.0917L64.436 37.1142C65.1263 35.9185 64.7166 34.3895 63.5209 33.6991L56.5434 29.6706C55.3476 28.9803 53.8187 29.39 53.1283 30.5857L49.0998 37.5632C48.4095 38.759 48.8192 40.2879 50.0149 40.9783Z" fill="#F5B6FF" stroke="#E441FF" stroke-width="3"/>
</svg>
